<?xml version="1.0" encoding="UTF-8"?>
<svg id="Layer_1" data-name="Layer 1" xmlns="http://www.w3.org/2000/svg" viewBox="0 0 1859.02 1430.62">
  <path d="M591.31,97.7c58.54-42.24,124.53-64.95,195.5-74.66,59.19-8.09,117.53-4.37,174.88,12.64,13.39,3.97,26.49,8.83,38.99,15.13,3.72,1.87,6.52,2.9,10.42-.84,6.44-6.19,15.12-6.3,23.55-5.49,20.61,1.98,39.29,10.02,57.13,19.74,69.69,37.98,127.03,89.7,170.53,156.22,19.65,30.05,33.77,62.63,39.34,98.42,4.12,26.47,3.44,53.14,2.02,79.74-1.76,32.91-4.11,65.79-6.26,98.69-1.39,21.28,1.7,41.53,10.72,61.2,20.93,45.64,43.62,90.47,63.43,136.62,10.75,25.05,21.81,50.01,27.79,76.78.86,3.87,1.16,7.88,1.56,11.85.94,9.31-2.69,16.81-9.15,23.29-9.4,9.42-20.97,15.13-33.19,19.71-14.36,5.38-29.11,9.44-44.27,11.71-5.24.79-7.41,2.37-7.36,8.03.28,28.97.21,57.95.19,86.92-.03,34.62.27,69.25-.33,103.86-.46,26.23-13.62,44.55-37.66,55-15.84,6.89-32.73,8.69-49.7,9.64-23.71,1.33-47.22-1.22-70.67-4.37-3.59-.48-7.14-1.67-11.9-.41,0,30.68,0,61.6,0,92.52-175.99.02-351.99.03-527.98.05-.11-3.99-.33-7.98-.33-11.96-.03-107.49-.14-214.99.17-322.48.02-8.4-2.69-14.16-8.1-20.21-59.93-66.96-112.55-139.01-151.84-220.22-17.01-35.15-30.01-71.7-37.6-110.05-5.67-28.64-5.44-57.59-2.81-86.5,3.82-42.02,14.88-82.3,30.3-121.46,3.93-2.6,8.41-1.27,12.63-1.78,8.51-1.03,14.78,2.25,19.3,9.5,2.81,4.5,5.96,8.82,9.17,13.05,5.83,7.69,9.29,8.65,17.87,4.92,6.7-2.92,13.28-6.13,19.94-9.13,12.7-5.73,14.1-8.27,10.99-21.41-6.35-26.84-7.33-20.72,11.49-41.77,5.19-5.8,11.22-7.97,18.7-6.74,5.58.92,11.14,1.93,16.73,2.78,7.97,1.22,11.5-.16,14.54-7.1,3.99-9.12,7.57-18.44,10.76-27.87,2.26-6.68.59-10.21-5.6-14.26-5-3.28-10.03-6.57-15.28-9.42-7.18-3.89-10.7-9.56-10.35-17.8.22-4.98.21-10-.15-14.97-.46-6.32,1.96-10.76,7.18-14.26,5.79-3.87,11.51-7.94,16.81-12.44,6.5-5.52,6.98-8.78,3.73-16.66-1.9-4.6-3.89-9.17-5.84-13.75ZM1186.03,932.86c35.3,0,70.61-.01,105.91,0,9.74,0,8.71-.02,8.71-8.6,0-27.64-.05-55.29.03-82.93.02-7.56.24-7.6,7.62-8.76,17.79-2.79,35.15-7.16,51.93-13.79,8.09-3.2,15.73-7.12,22.6-12.52,9.86-7.75,13.83-17.59,10.87-29.94-1.39-5.81-2.7-11.67-4.43-17.38-7.83-25.83-18.4-50.62-29.65-75.09-17.91-38.98-36.04-77.86-54.52-116.57-11.03-23.11-15.63-47.13-13.75-72.64,2.52-34.2,5.24-68.39,6.51-102.68,1.04-27.97,1.65-55.95-4.14-83.57-7.64-36.43-24.05-68.95-45.34-99.13-35.6-50.46-80.27-91.42-132.23-124.51-19.67-12.53-40.25-23.34-62.73-30.15-8.69-2.63-17.46-4.26-26.54-3.61-9.43.67-13.79,4.21-16.31,13.24-.8,2.87-1.28,5.84-1.78,8.78-2.39,14.2-2.13,28.54-2.05,42.85.38,68.32,7.21,136.31,11.04,204.45,2.58,45.91,4.56,91.8,2.86,137.78-.44,11.98-2.12,23.85-4.01,35.7-3.27,20.41-13.87,35.55-31.66,46.01-13.85,8.15-28.54,14.25-43.83,18.93-58.66,17.95-119.16,24.14-180.01,28.2-5.06.34-8.92-1.6-12.92-4.1-24.25-15.14-50.02-26.35-78.83-29.02-39.69-3.68-76.98,12.03-95.42,52.49-6.43,14.09-9.3,29.11-10.36,44.47-2.09,30.37,10.48,53.49,35.3,70.39,10.77,7.33,22.28,13.2,34.51,17.73,32.09,11.89,65.34,17.93,99.39,20,9.48.58,9.54.47,12.08,9.72,8.11,29.5,17.11,58.73,26.61,87.8,12.19,37.29,25.75,74.06,41.06,110.24,11.28,26.65,29.85,44.21,56.23,54.53.93.36,1.82.82,2.73,1.22,29.32,12.84,59.89,21.93,90.74,30.11,52.75,14,106.21,24.73,160.03,33.66,31.54,5.23,63.15,9.79,95.31,8.5,15.69-.63,31.21-1.89,46.04-7.56,24-9.18,36.47-26.05,36.85-51.52.44-29.63.05-59.28.27-88.92.04-5.04-1.21-7.33-6.6-6.95-4.97.35-9.99,0-14.98,0-65.61.02-131.22.09-196.83,0-3.48,0-9.54,1.99-9.35-3.84.15-4.81,5.8-2.95,9.14-2.96,34.64-.1,69.27-.06,103.91-.05ZM731.32,329.03c-6.04-1.13-9.89,1.81-11.94,7.58-2.45,6.89-5.03,13.73-7.26,20.69-1.94,6.06-.84,9.03,4.28,12.91,1.85,1.4,3.92,2.51,5.9,3.74,16.16,9.97,15.98,9.98,16.56,29.08.22,7.34-1.85,12.83-8.37,16.73-4.55,2.72-8.7,6.13-12.92,9.36-3.55,2.72-4.8,5.99-2.74,10.46,3.2,6.93,5.77,14.16,9.05,21.05,4.02,8.45,6.43,9.51,15.82,8.09,1.63-.25,3.21-.86,4.83-1.23q17.09-3.84,29.5,8.4c.71.7,1.36,1.48,2.13,2.1,4.68,3.75,5.75,8.63,4.78,14.32-.95,5.57-1.75,11.17-2.47,16.78-.64,4.94,1.42,8.31,6.2,10.02,5.32,1.9,10.61,3.88,15.89,5.89,15.04,5.73,15.38,5.62,23.26-8.36.49-.87,1.02-1.72,1.44-2.62,3.99-8.46,10.33-12.69,19.95-11.54,2.61.31,5.34.05,7.96-.31,7.14-.98,12.11,2.07,15.96,7.84,2.77,4.14,5.69,8.21,8.85,12.06,4.43,5.41,6.24,5.78,12.87,2.96,6.11-2.6,12.16-5.36,18.18-8.16,10-4.66,10.65-6.17,7.95-16.91-5.58-22.26-6.63-18.12,9.49-35.77.45-.49.96-.92,1.37-1.44,2.74-3.47,6.48-4.6,10.65-4.17,5.94.62,11.83,1.68,17.77,2.29,7.55.79,9.47-.21,12.39-7.04,2.48-5.8,4.45-11.81,6.62-17.74,4.12-11.24,3.78-12.23-6.21-18.59q-17.84-11.38-17.47-32.7c0-.33.02-.67,0-1-.34-4.74,1.6-8.3,5.43-11.06,4.58-3.3,9.03-6.79,13.54-10.2,6.41-4.85,7.19-7.25,4.19-14.3-2.6-6.12-5.32-12.19-8.18-18.19-4.53-9.48-6.91-10.56-17.27-8.32-21.72,4.68-21.64,4.61-36.9-11.25-3.54-3.68-5.18-7.54-4.31-12.57.96-5.57,1.77-11.16,2.6-16.76.78-5.26-1.02-9.13-6.19-11.09-7.45-2.83-14.87-5.74-22.36-8.46-5.38-1.96-9.76-.53-12.9,4.39-2.86,4.48-5.94,8.84-8.61,13.43-2.86,4.92-6.26,8.69-12.58,7.78-9.27-1.34-20.27,4.95-27.31-6.42-2.62-4.23-6.03-7.96-8.75-12.14-3.06-4.69-6.87-5.52-12.01-3.78-6.62,2.24-13.19,4.57-19.33,7.9-9.93,5.38-10.86,7.48-8.8,18.27,4.14,21.68,4.05,21.59-11.98,36.83-3.76,3.57-7.54,4.8-12.6,3.9-5.22-.92-10.24-3.03-15.96-2.72ZM477.33,436.09c.86,6.38-1.4,12.54-8.31,17.38-13.21,9.26-13.03,9.51-6.11,24.1,1,2.1,1.97,4.21,2.95,6.32,1.13,2.42,3.02,3.46,5.64,2.95,2.28-.44,4.53-1,6.79-1.54q15.08-3.63,26.92,7.2c.49.45.95.94,1.5,1.32,4.31,3.02,5.52,7.32,4.91,12.26-.58,4.61-1.33,9.21-2.08,13.8-.62,3.78.37,6.38,4.36,7.67,5.04,1.64,10.1,3.38,14.9,5.61,3.89,1.81,6.29.51,8.46-2.5,1.36-1.89,3.19-3.61,3.96-5.72,3.6-9.8,11.17-11.61,20.6-12.24,10.92-.74,18.77,2.54,23.91,12.19.62,1.16,1.62,2.13,2.24,3.29,2.59,4.8,6.1,5.57,10.66,2.71,1.4-.87,3.01-1.4,4.52-2.1,14.42-6.75,14.56-6.79,10.79-22.33-1.66-6.83.3-11.98,4.69-17.33,7.67-9.33,16.35-14.29,28.58-10.24,1.24.41,2.68.22,3.92.62,4.08,1.34,6.42-.65,7.82-4.1,2.13-5.23,3.97-10.58,6.08-15.82,1.52-3.77.3-6.44-2.97-8.41-1.71-1.03-3.42-2.11-5.25-2.86-9.56-3.93-13.56-11.07-12.62-21.24.18-1.97-.06-3.99-.17-5.98-.29-5.41,1.61-9.72,6.14-12.83,3.56-2.45,7.09-4.95,10.57-7.51,2.66-1.95,4.04-4.47,2.51-7.77-3.06-6.58-4.21-14.82-9.62-19.33-4.72-3.93-11.38.93-17.1,2.07-5.81,1.16-10.46.26-14.41-4.21-1.76-1.99-3.57-4.01-5.67-5.62-6.91-5.32-8.22-12.01-6.75-20.39,2.68-15.24,3.84-13.33-11.28-18.68-12.63-4.47-13.19-4.69-19.65,7.22-4.44,8.18-10.53,11.36-19.3,10.93-2.32-.12-4.67-.05-6.98.13-5.88.47-10.32-1.76-13.5-6.72-1.44-2.24-3.02-4.39-4.6-6.52q-5.4-7.31-13.87-4.04c-.93.36-1.82.8-2.73,1.21-16.65,7.7-14.09,6.81-10.74,21.2.96,4.12,2.33,8.35.32,12.7-5.97,12.89-18.32,19.49-32.24,17.08-10.55-1.83-10.62-1.85-14.2,8.2-1.87,5.26-6.11,10.58-4.58,15.9,1.57,5.45,8.25,7.31,12.92,10.33,4.61,2.98,7.23,6.64,7.4,12.12.08,2.66.37,5.31.67,9.5ZM815.75,75.4c.72,1.56.24,3.14-.32,4.73-3.37,9.7-14.99,16.3-25.16,14.28-8.47-1.69-8.71-1.78-11.64,6.16-5.26,14.25-5.41,11.01,5.92,18.68,3.95,2.67,7.77,5.13,7.23,10.85-.21,2.27.25,4.65.67,6.94,1.07,5.85-.93,10.45-5.48,14.04-2.09,1.65-4.14,3.42-6.46,4.66-3.31,1.77-4.21,3.92-2.36,7.27.96,1.74,1.68,3.62,2.46,5.45,4.02,9.45,5.35,10.08,14,7.12,6.48-2.22,11.89-.08,17.26,4.55,7.01,6.04,10.95,12.28,7.51,21.6-.45,1.22-.4,2.62-.54,3.95-.34,3.1.91,5,4.03,5.86,2.23.61,4.32,1.73,6.5,2.54,9.86,3.64,7.95,3.3,13.42-4.22,2.7-3.71,4.57-7.96,9.73-9.39,12.23-3.38,18.94-1.29,26.67,8.95.6.8,1.27,1.56,1.76,2.42,2.62,4.57,6.34,3.35,9.25,1.02,4.15-3.34,12.93-1.74,11.95-10.69-.21-1.96-.93-3.86-1.26-5.81-2.59-15.04,9.08-26.94,23.89-24.39q9.18,1.58,12.45-7.62c.45-1.25.74-2.61,1.42-3.72,3-4.81,1.1-8-3.26-10.47-1.44-.82-2.96-1.53-4.32-2.46-11.04-7.54-11.4-25.16-.69-33.1,10.17-7.54,9.43-4.84,4.5-16.39-.26-.61-.54-1.22-.81-1.82-2.68-6.13-3.13-8.23-11.04-5.73-4.17,1.32-8.71,3.21-13.57.92-10.64-5.02-15.95-14.77-13.96-26.58.22-1.3.73-2.55.97-3.85.25-1.32.35-2.95-.79-3.7-5.07-3.32-10.81-5.41-16.68-6.12-3.94-.48-4.58,4.3-6.16,6.99-3.64,6.23-8.09,10.43-15.97,9.1-1.59-.27-3.32.12-4.97.3-5.08.55-9.09-1.14-12.04-5.41-1.69-2.46-3.6-4.78-5.46-7.13-1.03-1.3-2.17-2.95-3.99-2.54-5.88,1.31-11.7,3.37-16.17,7.33-2.82,2.5.42,6.22.73,9.42.19,1.98.49,3.95.75,6.04ZM784.93,199.75c-1.15-2.53-2.48-4.84-3.27-7.33-1.52-4.77-4.34-5.68-9.12-4.71-13.35,2.69-22.43-5.8-21.18-19.21.21-2.25,1.84-4.93.02-6.72-2.91-2.86-7.09-3.6-10.92-4.48-3.31-.76-4.18,2.61-5.67,4.68-7.56,10.57-20.4,11.4-27.82,1.13-3.46-4.79-6.49-4.44-10.9-2.43-4.26,1.95-6.76,3.61-5.49,9.55,2.73,12.8-5.88,21.9-18.68,21.03-7.75-.53-7.48-.42-10.22,6.17-2.14,5.13-1.44,8.08,3.69,11.17,10.57,6.38,11.04,19.56,1.38,27.02-5.51,4.25-6.16,2.71-2.09,13.17,2.5,6.42,6.39,4.32,10.42,3.21,2.93-.81,5.8-1.92,8.52.28,5.93,4.8,12.8,9.12,9.74,18.66-1.7,5.29.69,7.8,5.76,9.31,7.09,2.12,7.37,2.63,11.2-3.79,2.92-4.9,6.78-6.51,12.16-7.12,7.04-.8,12.43,1.14,16.5,6.84,1.32,1.84,2.06,4.35,4.93,4.38,6.76.08,11.99-6.03,10.84-12.62-2.18-12.56,6.79-22.31,19.36-20,5.53,1.01,7-1.2,8.51-5.32,1.52-4.14,3.57-7.93-2.15-10.82-3.44-1.74-7.34-3.64-7.62-8.44-.49-8.42-1.11-16.89,8.87-20.94,1.15-.47,2.01-1.65,3.24-2.69Z" style="fill: #252122; stroke-width: 0px;"/>
  <path d="M608.9,1189.68c175.99-.02,351.98-.03,527.98-.05,20.62,1.18,41.26.22,61.89.52,2.66.04,5.33,0,7.99,0,9.49.05,9.58.02,12.43,8.92,9.64,30.07,19.24,60.16,28.79,90.26,11.36,35.8,22.67,71.62,33.91,107.46,1.07,3.4,2.98,6.7,2.44,10.38-3.26,2.29-6.69,1.43-9.93,1.43-277.67.04-555.33.04-833,.03-10.99,0-10.62.05-7.29-10.24,10.55-32.57,20.82-65.24,31.16-97.87,10.95-34.54,21.97-69.06,32.67-103.67,1.73-5.58,4.7-6.85,10.1-6.8,29.63.23,59.26.13,88.89.09,3.99,0,7.97-.3,11.96-.46ZM850.08,1329.32v-.1c16.32,0,32.64,0,48.95,0,107.23.03,214.47.07,321.7.07,3.31,0,6.63-.22,9.91-.63,1.32-.16,2.25-1.31,2.18-2.89-.07-1.5-.89-2.64-2.22-2.94-1.93-.43-3.94-.62-5.92-.62-6.66,0-13.32.17-19.98.17-236.11.01-472.22.01-708.34,0-6.66,0-13.32-.17-19.98-.17-1.98,0-4.04.09-5.93.61-1.14.31-2.24,1.4-2.25,2.94-.01,1.58,1.1,2.73,2.3,2.87,3.61.44,7.27.65,10.91.65,122.88.03,245.77.02,368.65.02Z" style="fill: #68e1fd; stroke-width: 0px;"/>
  <path d="M266.84,365.34c26.35,81.27,52.81,162.49,75.53,244.91,7.05,25.58,4.3,47.98-7.91,70.87-18.7,35.04-40.56,67.99-63.47,100.31-8.47,11.95-17.28,23.66-26.15,35.31-2.31,3.04-4.15,6.37-8.43,8.05-3.59,1.41-5.09,5.98-5.18,10.08-.05,2.16,7.88,5.57,11.99,4.49,2.95-.78,5.04-.35,7.45,1,19.74,11.01,39.59,21.85,58.01,35.03,4.86,3.48,9.75,7,13.45,11.83,4.61,6,3.83,9.16-3.23,12.08-5.3,2.19-11.02,2.49-16.64,2.96-4.31.36-8.65.38-12.98.34-3.72-.04-7.13.25-10.25,2.78-4.17,3.38-9.36,2.97-14.36,2.88-31.62-.58-63.23-1.19-94.85-1.74-11.32-.2-22.65-.08-33.96-.39-7.25-.2-7.67-1.09-7.1-8.42.57-7.3.46-14.66,1.34-21.91.81-6.61-1.13-13.95,4.81-19.52,1.03-.97.44-3.82.37-5.79-.18-4.99-.56-9.97-.72-14.96-.21-6.42-.38-12.67-8.23-15.02-2.9-.87-3.64-3.58-3.7-6.46-.07-3.33-.32-6.65-.41-9.98-2.26-81.89-4.5-163.78-6.75-245.67-.77-27.96-1.54-55.93-2.33-83.89-.11-3.89.7-7.86-5.86-7.7-40.89,1-68.19-20.38-87.46-54.26-9.84-17.3-14.67-36.32-17.49-55.85-4.49-31.08-2.7-61.69,7.09-91.74,5.74-17.62,14.77-33.42,25.4-48.39,9.26-13.04,19.45-25.35,29.87-37.49,5.2-6.06,9.97-12.5,15.27-18.48,17.74-20.02,29.59-43.21,37.98-68.44,4.93-14.82,10.46-29.46,17.84-43.3,4.57-8.58,10-16.55,17.18-23.15,11.36-10.44,24.47-14.87,39.45-9.46,4.57,1.65,6.58.16,9.2-2.87,4.63-5.36,10.17-9.69,17.03-11.78,13.95-4.26,25.58.22,35.3,10.33,10.09,10.49,16.31,23.37,21.87,36.63,6.6,15.73,9.82,32.41,13.85,48.86-.72,4.25-2.15,8.24-4.25,12-1.63-2.68-1.45-5.75-1.92-8.69-3.57-22.1-9.49-43.46-19.84-63.44-4.15-8.01-8.91-15.64-15.56-21.82-11.76-10.93-26.75-10.96-38.56-.13-2.43,2.22-4.6,4.84-6.4,7.6-2.34,3.59-4.93,3.7-8.44,1.94-15.42-7.7-28.3-2.6-39.79,8.34-6.58,6.27-11.08,14.07-15.12,22.13-7.16,14.29-12.66,29.26-17.93,44.3-8.34,23.77-20.14,45.48-36.57,64.69-12.53,14.66-24.79,29.56-36.86,44.6-11.48,14.3-21.7,29.52-28.63,46.57-18.91,46.52-17.85,93.43-1.02,140.17,6.63,18.43,17.75,34.17,33.16,46.58,14.7,11.84,31.4,18.5,50.41,18.67,10.04.09,10.06-.07,9.82-9.73-.5-20.62-1-41.24-1.5-61.85,52.06-8,104.12-16.01,156.18-24.01ZM214.95,556.85c-.7-.07-1.41-.14-2.11-.21-4.45,65.08-8.9,130.16-13.42,196.34,3.27-2.75,3.89-5.34,4.9-7.67,11.26-25.92,22.2-51.98,33.85-77.72,4.37-9.66,4.86-18.86,2.33-28.98-6.95-27.76-16.18-54.78-25.55-81.76ZM196.25,863.23c-9.69-4.28-12.06-11.91-11.35-21.41.35-4.8.73-9.77-.64-15.15-7.55,1.91-14.59,3.64-21.9,3.92-7.18.27-14.12-2.49-20.5-2.21,0,9.18,0,17.46,0,25.75,0,3.11.28,5.66,4.17,6.79,13.09,3.79,26.17,7.51,39.87,8.35,4.27.26,7.93-.67,10.36-6.04ZM239.36,847.55c-1.33-.74-2.43-1.47-3.62-1.99q-14.02-6.14-8.68-20c.24-.62.42-1.26.71-1.86,1.11-2.3.16-3.86-1.91-4.76-9.25-4.05-17.95-9.37-27.95-12.63-1.68,6.77,1.15,14.37-6.04,18.51-.58,8.61-1.09,17.27.1,25.82.53,3.8,4.17,6.02,7.65,7.11,3.37,1.06,3.97-2.77,5.66-4.51,1.36-1.4,2.38-3.19,3.33-4.93,2.16-3.92,4.92-3.7,8.17-1.48,3.56,2.43,7.15,4.8,10.77,7.14,6.4,4.13,6.43,4.12,10.17-2.68.62-1.12,1.04-2.35,1.64-3.73ZM214.98,501.01c-.9-17.91-2.77-35.74-3.58-53.62-.13-2.96-.5-5.93-1.09-8.82-.25-1.24-1.45-2.21-3-2.12-1.52.09-2.5,1.13-2.73,2.42-.28,1.58-.14,3.27-.03,4.9,2.14,31.42,4.22,62.85,3.41,94.37-.03.99-.08,1.99-.01,2.98.15,2.17.94,3.91,3.47,3.9,2.09,0,2.84-1.63,3.02-3.29.33-2.96.51-5.95.53-8.92.06-10.6.02-21.2.02-31.8Z" style="fill: #252122; stroke-width: 0px;"/>
  <path d="M1803.41,1233.76c19.1,13.48,19.65,32.89,15.9,52.93-4.21,22.46-15.63,41.51-30.89,58.33-4.87,5.37-9.82,10.69-14.85,16.15,2.16,1.69,5.21.66,7.98.68,17.37.14,34.49,2.16,51.38,6.19,5.21,1.24,10.23,3.01,14.56,6.23,10.58,7.88,14.18,21.06,9.56,35.01-.94,2.83-2.17,5.58-3.48,8.26-4.17,8.56-10.92,13.04-20.6,13.07-8.36.03-16.57-1.2-24.77-2.54-16.06-2.62-32.4-3.56-48.18-7.86-.64-.17-1.31-.32-1.96-.34-11.65-.26-19.29-12.06-32.92-9.4-11.38,2.22-23.64-2.16-35.47-3.98-5.25-.81-10.63-1.15-15.73-2.54-14.66-3.98-28.91-1.37-43.37,1.34-16.34,3.06-32.92,4.54-49.5,5.89-26.53,2.15-53.03,4.68-79.67,4.98-3.59.04-7.32,1.05-10.75-.93-2.86-1.65-5.17.49-7.46,1.38-14.62,5.69-29.7,9.67-45.14,12.15-17.3,2.77-34.47,1.47-51.41-2.86-3.87-.99-7.53-2.61-10.88-4.83-13.04-8.61-12.75-25.18.51-33.33,18.68-11.49,39.08-18.1,60.59-21.65,6.09-1.01,12.16-2.13,19.09-3.35-2.28-3.41-4.94-3.66-7.27-4.38-11.43-3.53-22.74-7.43-33.39-12.93-14.66-7.57-20.62-20.81-17.64-37.25,2.45-13.5,8.99-24.88,17.41-35.36,3.12-3.88,6.51-7.55,9.96-11.53-1.45-2.07-3.47-3.96-4.24-6.27-1.52-4.59-3.34-5.01-7.95-3.28-5.73,2.15-11.78-1.42-14.97-8.68-6.45-14.68-9.06-30.02-3.19-45.51,1.7-4.48,1.65-8.01,0-12.23-4.94-12.69-9.66-25.46-14.35-38.24-3.17-8.62-2.41-9.5,7.05-9.32,35.92.69,71.84,1.36,107.76,2,1.3.02,2.61-.34,3.91-.52,12.23,1.73,24.55.94,36.83,1.06,9.11.09,9.07-.04,10.46-8.86,4.18-26.62,8.96-53.14,14.48-79.52,2.18-10.4,4.28-20.87,8.24-30.81.86-2.15,2.19-4.62,5.09-3.17,2.37,1.19,1.07,3.3.49,5.22-11.58,37.92-16.48,77.19-24.14,116.96,9.34-.94,11.82,4.91,13.38,11.8.81,3.56,1.96,7.04,2.95,10.56.7,2.47,2.13,3.77,4.86,4.17,22.01,3.26,43.73,8.83,66.24,7.96,4.44-.17,9.6,1.4,9.93-6.12.14-3.31,3.84-3.03,6.44-3.25,7.95-.7,15.91-1.36,23.86-2.03,19.85-1.69,39.71-3.39,59.24-5.05.92-3.1-.38-5.22-.97-7.43-10.34-38.52-20.73-77.03-31.11-115.54-.95-3.53-1.98-7.04-2.81-10.6-.47-2.02-.42-4.29,2.03-4.9,2.45-.61,3.41,1.36,3.95,3.37,2.17,8.02,4.29,16.06,6.46,24.08,9.65,35.61,19.33,71.21,28.96,106.82,2.67,9.87,2.23,10.42-8.2,11.47-.66.07-1.33.04-1.99.1-24.19,2.03-48.39,4.01-72.58,6.11-7.5.65-7.65.81-7.63,8.3.04,12.65.29,25.3.51,37.94.14,8.34.18,8.4,8.43,9.97,11.75,2.23,23.52,4.33,35.27,6.54,2.29.43,5.02,1.02,4.67,4.06-.37,3.23-3.08,2.89-5.43,2.45-14.69-2.77-29.36-5.63-44.07-8.3-3.62-.66-5.4-2.52-5.05-6.06.49-4.95-2.51-5.94-6.49-6.9-13.56-3.28-27.02-6.98-40.54-10.41-4.56-1.16-9.18-1.17-13.85-.11-3.96.91-5.64,2.67-4.27,6.91,2.67,8.22,5.32,16.45,7.5,24.81,1.03,3.94,2.92,5.3,6.86,5.56,8.62.56,17.2,1.62,25.8,2.49,23.8,2.41,47.61,4.76,71.4,7.29,5.83.62,11.1-.53,16.46-2.73,16.28-6.7,32.56-13.45,49.07-19.55,14.37-5.31,29.06-7.04,43.61-.13ZM1591.76,1271.48c-.87-3.73-1.39-6.57-2.21-9.32-4.35-14.66-8.79-29.29-13.18-43.94-6.19-20.69-12.34-41.39-18.55-62.08-2.74-9.14-2.78-9.13-12.03-9.49-1.33-.05-2.66-.09-3.99-.11-50.26-.87-100.53-1.74-150.79-2.59-1.23-.02-2.63-.2-3.86,1.69,3.75,10.16,7.55,20.74,11.59,31.24,1.17,3.05,1.29,6.92,4.12,8.86,2.79,1.91,5.62-1.07,8.55-1.31,6.35-.52,8.3,1.45,7.38,7.93-.37,2.59-.98,5.15-1.53,7.93,2.3,2.29,8.01,1.23,7.97,4.69-.08,7.26,5.29,12.56,5.66,19.38.28,5.17-2.11,9.65-4.24,14.19-4.78,10.2-.57,16.74,10.5,14.98,14.47-2.31,28.51-.58,42.59,2.16,10.75,2.09,21.38,4.91,32.19,6.53,15.1,2.26,30.32,3.74,45.49,5.48,11.13,1.28,22.27,2.45,34.33,3.78ZM1756.94,1370.8c3.97,2.22,7.57,3.91,10.84,6.11,13.71,9.21,12.77,22.79-2.08,30.2-3.3,1.64-6.85,2.78-10.34,4.18,1.34,2.15,3.01,2.35,4.62,2.79,16.11,4.36,32.85,4.96,49.14,8.28,7.2,1.47,14.46,2.3,21.79,2.39,4.34.05,8.81-.14,12.08-3.59,8.38-8.86,11.53-19.63,8.97-31.29-2.05-9.34-9.77-13.6-18.61-16.01-21.05-5.73-42.54-7.34-64.23-7.01-3.89.06-8.03.1-12.18,3.95ZM1453.91,1370.46c-26.07,3.18-51.05,8.86-73.71,22.36-4.29,2.55-8.61,4.96-8.13,11.28.47,6.26,3.17,10.84,8.68,13.52,4.46,2.17,9.2,3.7,14.13,4.64,29.34,5.57,57.46.72,84.95-9.72,2.34-.89,5.03-1.21,6.22-3.92-2.94-5.04-8.22-4.05-12.5-5.21-19.58-5.3-24.35-12.95-19.64-32.95ZM1569.8,1172.58c2.87,9.51,5.6,18.01,7.94,26.61,1.07,3.93,2.64,5.76,6.92,4.3,7.22-2.46,14.34-1.25,21.51.7,11.5,3.13,23.09,5.94,34.64,8.89,2.14.55,4.28,1.94,6.57-.07,0-8.53.08-17.13-.02-25.73-.08-6.9-.19-7.11-7.25-6.98-17,.32-33.74-1.67-50.37-5.04-6.1-1.24-12.09-3.39-19.93-2.68ZM1648.37,1282.34c-.05-2.38-1.59-3.4-3.21-3.34-1.55.06-3.14.99-4.59,1.76-24.09,12.75-49.36,22.89-74.5,33.27-24.52,10.13-49.24,19.77-73.87,29.65-2.38.96-5.75,1.79-4.6,5.15,1.11,3.27,4.23,2.38,6.83,1.43.94-.34,1.88-.67,2.8-1.04,37.57-15.09,75.26-29.87,112.31-46.21,11.53-5.09,23.14-10.05,34.11-16.32,1.98-1.13,4.33-1.89,4.71-4.35ZM1413.59,1191.9c-6.45-.47-10.74,2.1-12.64,7.07-5.68,14.84-3.37,29.37,3.62,43.11,2.66,5.23,7.23,5.56,11.67,1.81,5.84-4.92,8.76-11.65,9.64-19.02.34-2.89-.83-6.58-5.32-3.09-1.42,1.11-3.18,1.11-4.3-.56-.79-1.17-.32-2.52.25-3.75,1.33-2.93,4.45-4.94,4.45-8.6-3.88-2.35-6.81,1.63-10.32,1.51-2.87-.1-4.71-1.23-2.98-4.28,2.43-4.3,5.46-8.31,5.95-14.19ZM1747.05,1405.55c7.23-.35,13.29-1.96,18.73-5.41,6.95-4.41,7.44-10.86,1.27-16.38-4.28-3.83-9.54-5.99-14.87-7.87-5.82-2.05-13.04,1.39-15.16,7.16-1.03,2.8-1.67,5.73-2.55,8.59-2.79,9.11-2.52,9.69,6.56,12.53,2.2.69,4.49,1.04,6.02,1.39ZM1479.17,1397.66c-6.02-9.2-11.37-17.39-16.84-25.75-11.54,12-1.05,25.37,16.84,25.75Z" style="fill: #252122; stroke-width: 0px;"/>
  <path d="M1803.41,1233.76c-14.56-6.91-29.24-5.18-43.61.13-16.51,6.1-32.79,12.86-49.07,19.55-5.36,2.2-10.63,3.35-16.46,2.73-23.79-2.54-47.6-4.88-71.4-7.29-8.6-.87-17.18-1.93-25.8-2.49-3.94-.26-5.84-1.62-6.86-5.56-2.18-8.35-4.84-16.59-7.5-24.81-1.37-4.23.31-6,4.27-6.91,4.66-1.07,9.28-1.05,13.85.11,13.53,3.42,26.98,7.12,40.54,10.41,3.98.96,6.98,1.96,6.49,6.9-.35,3.54,1.43,5.41,5.05,6.06,14.71,2.67,29.38,5.53,44.07,8.3,2.36.44,5.06.79,5.43-2.45.35-3.04-2.38-3.63-4.67-4.06-11.75-2.21-23.52-4.32-35.27-6.54-8.25-1.56-8.29-1.63-8.43-9.97-.22-12.65-.46-25.29-.51-37.94-.03-7.48.12-7.64,7.63-8.3,24.19-2.11,48.38-4.09,72.58-6.11.66-.06,1.33-.03,1.99-.1,10.43-1.04,10.87-1.59,8.2-11.47-9.63-35.61-19.31-71.21-28.96-106.82-2.17-8.02-4.29-16.06-6.46-24.08-.54-2.01-1.5-3.99-3.95-3.37-2.46.61-2.5,2.89-2.03,4.9.83,3.56,1.86,7.07,2.81,10.6,10.38,38.51,20.77,77.02,31.11,115.54.59,2.21,1.89,4.33.97,7.43-19.54,1.67-39.39,3.36-59.24,5.05-7.95.68-15.91,1.33-23.86,2.03-2.6.23-6.3-.06-6.44,3.25-.33,7.52-5.49,5.95-9.93,6.12-22.51.86-44.23-4.7-66.24-7.96-2.73-.41-4.17-1.7-4.86-4.17-.99-3.52-2.14-7-2.95-10.56-1.56-6.9-4.05-12.74-13.38-11.8,7.67-39.77,12.56-79.04,24.14-116.96.59-1.92,1.89-4.03-.49-5.22-2.9-1.45-4.23,1.01-5.09,3.17-3.96,9.93-6.06,20.4-8.24,30.81-5.52,26.37-10.3,52.89-14.48,79.52-1.39,8.83-1.35,8.95-10.46,8.86-12.28-.12-24.6.66-36.83-1.06,14.05-39,29.22-77.52,48.31-114.4,10.8-20.86,25.73-36.89,49.05-43.6,1.55-.45,3.18-1.03,4.05-2.63,4.44-.35,5.5,2.35,6,6.11,1.15,8.53,3.34,16.99,3.77,25.54.59,11.82,7.76,17.73,17.29,22.01,17.48,7.86,38.72-3.71,48.26-16.5,5.63-7.54,8.14-15.85,6.08-25.27-1.13-5.18-2.17-10.39-2-15.74,15.25.74,30.66,1.91,45.11,6.45,20.61,6.48,38.05,17.77,48.73,38.05,25.65,48.7,45.23,99.58,57.64,153.22,2.72,11.75,3.22,23.61,3.04,35.6-.13,8.56-3.84,14.29-11.53,18.14-6.28,3.14-13.04,4.83-19.44,7.54Z" style="fill: #68e1fd; stroke-width: 0px;"/>
  <path d="M285.42,109.42c2.1-3.76,3.53-7.76,4.25-12,4.34-10.46,12.25-13.04,22.61-10.27,1.6.43,3.25.68,4.87,1.03.97.21,1.93.49,2.9.7,9.82,2.15,17.65.19,24.79-8,15.95-18.31,14.49-14.62,9.67-36-4.14-18.34-4.01-18.73,13.03-27.59,5.93-3.09,12.17-5.35,18.52-7.3,7.82-2.4,10.36-1.37,15.31,5.14,3.82,5.02,7.75,9.95,11.57,14.98,4.13,5.44,9.41,7.88,16.38,7.6,28.86-1.19,22.02,2.26,36.78-19.46.75-1.1,1.58-2.14,2.33-3.24,5.86-8.51,8.86-9.76,18.29-6.85,7.93,2.45,15.81,5.09,23.6,7.97,8.06,2.98,9.73,5.46,9.06,14.32-.49,6.59-1.43,13.22-2.93,19.65-1.29,5.54.21,9.87,3.88,13.64,4.64,4.76,9.81,9.03,14.2,14,5.09,5.77,11.17,6.62,18.09,5.16,6.17-1.31,12.3-2.77,18.48-3.97,7.16-1.39,10.46.07,13.95,6.27,2.28,4.05,4.18,8.31,6.25,12.48,1.95,4.58,3.94,9.15,5.84,13.75,3.25,7.88,2.77,11.14-3.73,16.66-5.3,4.5-11.02,8.57-16.81,12.44-5.22,3.49-7.64,7.94-7.18,14.26.36,4.97.37,9.99.15,14.97-.36,8.24,3.16,13.9,10.35,17.8,5.25,2.85,10.28,6.14,15.28,9.42,6.19,4.06,7.86,7.58,5.6,14.26-3.19,9.43-6.77,18.75-10.76,27.87-3.04,6.94-6.57,8.32-14.54,7.1-5.59-.85-11.15-1.87-16.73-2.78-7.48-1.23-13.51.94-18.7,6.74-18.82,21.05-17.84,14.93-11.49,41.77,3.11,13.14,1.71,15.67-10.99,21.41-6.66,3.01-13.24,6.22-19.94,9.13-8.59,3.74-12.04,2.78-17.87-4.92-3.21-4.24-6.36-8.55-9.17-13.05-4.53-7.24-10.8-10.53-19.3-9.5-4.22.51-8.7-.81-12.63,1.78-8.25-.96-13.86,2.6-17.77,9.79-3.14,5.79-6.46,11.51-10.72,16.63-3.17,3.81-6.88,5.05-11.43,3.34-9.27-3.48-18.52-7.03-27.71-10.72-5.89-2.37-8.25-6.67-8.02-13.26.25-7.27,3.5-14.2,2.13-21.58.85-3.46,1.83-6.92-.89-10.06-2.76-6.38-9.66-8.74-13.56-14.02,3.37-4.48,6.85-8.88,10.09-13.45,3.05-4.31,3.5-9.24,2.4-14.26-1.62-7.32-5.91-9.79-13.2-7.72-4.06,1.15-7.61,3.91-12.17,3.99-.3-1.02-.64-1.93-.83-2.88-1.66-8.05-4.59-9.48-11.21-5.2-6.09,3.93-10.06,9.78-12.23,16.43-2.39,7.32-7.09,11.58-14.11,13.82-5.83-7.82-8.08-17.28-11.84-26.04-3.06-7.14-2.25-9.86,3.85-14.43,4.77-3.57,9.81-6.76,14.7-10.17,6.88-4.79,10.09-11.35,8.76-19.69-.89-5.58-1.46-11.16-1.24-16.79.2-5.15-1.8-8.86-6.38-11.37-4.93-2.71-9.69-5.71-14.53-8.58-2.1-1.66-4.21-3.33-6.31-4.99-5.32-5.93-6.17-12.43-2.81-19.66.93-2.01,1.19-4.33,1.76-6.51ZM477.85,221.33c15.45-9.33,24.54-23.24,29.1-40.42,2.9-10.55,1.83-21.1-.65-31.46-8.34-34.74-43.25-57.46-78.08-50.39-40.88,8.31-65.78,50.92-50.84,89.91-5.6,9.08-5.34,18.87-2.76,28.61,2.21,8.32,8.27,13.43,16.53,15.36,7.01,1.64,13.11-.06,16.88-6.91,13.8,6.16,28.15,8.97,43.25,6.93,9.95-1.34,19.1-4.61,26.58-11.64Z" style="fill: #68e1fd; stroke-width: 0px;"/>
  <path d="M266.84,365.34c-52.06,8-104.12,16.01-156.18,24.01-2.11-11.77-2.1-23.72-2.62-35.59-.63-14.26.66-28.55,1.02-42.81.66-26.57,1.43-53.1,4.76-79.47,1.87-14.8,3.66-29.73,9.4-43.65,9.39-22.77,26.15-36.22,51.07-38.71,1.04,3.25.77,6.59.41,9.88-.38,3.44.27,6.56,1.84,9.61,7.28,14.12,18.86,22.14,34.59,23.57,13.46,1.22,22.78-6.74,24.81-20.28.24-1.61.79-3.16,1.19-4.74,12.38,7.82,17.35,19.82,19.02,33.69.5.8,1,1.6,1.5,2.4l-.21-.14c-.6,6.43.39,12.68,2.21,18.82-.02,3.66-.21,7.32-.01,10.96.67,12.59,2.61,25.1,2.15,37.75-11.67,7.93-23.77,15.12-36.84,22.46-1.95-6.56-3.65-12.15-5.27-17.76-4.11-14.27-8.2-28.54-12.24-42.83-.57-2.02-1.26-3.89-3.61-4.08-3.05-.24-3.86,1.9-4.11,4.41-3.46,1.08-6.91,2.18-10.38,3.23-12.62,3.83-24.79,9.12-37.77,11.82-1.54-.51-3.11-1.67-4.72-.82-2.12,1.12-1.98,3.16-1.46,5.19.33,1.28.57,2.59.97,3.85,7.46,23.35,15.33,46.57,25.57,68.87,5.23,11.4,10.51,22.88,19.02,32.44,5.24,5.88,10.93,7.81,18.55,4.44,5.78-2.55,11.31-5.44,16.74-8.61,13.75-8.03,26.14-18.06,39.44-26.73-.8,12.97,3.34,25.8,1.16,38.81Z" style="fill: #68e1fd; stroke-width: 0px;"/>
  <path d="M1679.85,974.76c-.17,5.35.86,10.56,2,15.74,2.06,9.43-.45,17.73-6.08,25.27-9.54,12.78-30.77,24.36-48.26,16.5-9.53-4.28-16.7-10.19-17.29-22.01-.43-8.55-2.62-17.01-3.77-25.54-.51-3.76-1.56-6.46-6-6.11-17.88-8.15-24.63-23.24-25.87-41.69-.69-10.29-1.29-20.6-1.7-30.9-.14-3.56-.84-6.04-4.44-7.96-13.84-7.38-22.8-36.63-16.15-53.81,7.23-18.68,27.45-28.27,48.62-22.69,6.47,1.7,12.52,4.43,18.19,7.99,11.99,7.52,24.97,12.5,38.97,14.51,18.77,2.7,30.22,13.67,32.29,35.85,1.43,15.34-.13,30.58-3.84,45.51-1.46,5.86-4.94,10.85-9.26,15.06-2.08,2.03-3.34,4.04-2.65,6.98,2.13,9.02,2.2,18.45,5.23,27.3ZM1668.06,947.19c-3.15,0-5.5.23-7.78-.06-2.79-.36-7.09.35-7.05-3.71.05-4.46,4.26-2.79,6.96-2.89,11.39-.42,19.07-7.3,19.62-18.33.23-4.55,0-9.47-4.63-12.41-4.87-3.1-8.88-.42-12.85,2.1-3.77,2.4-6.56,5.62-7.63,10.07-.57,2.36-1.19,5.03-4.22,4.39-3.84-.81-2.22-4.12-2.07-6.52.08-1.27.71-2.55,1.29-3.73,1.02-2.08.47-3.78-.85-5.5-8.41-10.95-13.9-23.32-17.76-36.5-.56-1.91-1.03-4.13-3.68-3.87-15.24,1.52-30.43,3.3-43.43,12.55-2.53,1.8-4.15,4.22-4.14,7.54.04,19.6-.81,39.28,3.13,58.64,3.21,15.78,15.97,25.82,32.23,25.5,10.34-.21,20.57-1.39,29.79-6.78,2.01-1.18,4.21-2.75,6.31-.66,1.98,1.97.69,4.29-.2,6.43-6.85,16.44-15.97,30.71-34.25,35.74-.54,8.73,4.41,13.24,10.93,16.76,18.45,9.98,45.87-8.14,48.47-25.17.3-1.94.2-4.01-.13-5.95-2.61-15.71-5.31-31.41-8.09-47.68ZM1683.44,908.36c.73-13.77,1.89-25.19-.95-36.64-2.85-11.48-10.08-18.36-21.44-21.14-2.26-.55-4.51-1.23-6.8-1.56-12.69-1.82-24.22-6.48-35.14-13.18-8.19-5.03-16.75-9.7-26.75-10.04-13.01-.44-24.47,2.88-31.57,14.86-9.12,15.39-3.76,39.86,11.84,51.7.27-14,10.38-18.5,20.82-22.5,11.58-4.43,23.88-5.48,36.03-7.13,3.47-.47,5.74.85,6.6,4.41.62,2.58,1.34,5.15,2.15,7.68,3.36,10.49,7.89,20.42,14.26,29.47,1.7,2.41,3.42,4.2,6.37,1.89,7.7-6.02,15.31-5.25,24.57,2.19Z" style="fill: #252122; stroke-width: 0px;"/>
  <path d="M265.68,326.53c-13.31,8.68-25.69,18.71-39.44,26.73-5.43,3.17-10.96,6.06-16.74,8.61-7.62,3.36-13.31,1.44-18.55-4.44-8.52-9.56-13.79-21.04-19.02-32.44-10.24-22.3-18.11-45.52-25.57-68.87-.4-1.26-.64-2.57-.97-3.85-.53-2.02-.67-4.07,1.46-5.19,1.6-.84,3.18.32,4.72.82,6.46,24.09,15.55,47.24,25.32,70.13,4.83,11.3,9.88,22.52,17.09,32.56,5.35,7.45,7.4,8.01,15.9,4.31,7.32-3.19,14.07-7.48,20.67-11.94,37.51-25.36,72.53-53.89,106.6-83.63,5.27-4.6,10.26-9.48,14.66-14.92,2.53-3.13,4.68-6.57,4.88-10.7.25-5.16-2.33-6.94-7.27-5.11-3.41,1.27-6.74,2.76-10.04,4.3q-12.25,5.71-11.77-8.04c-6.1,3.69-8.31,9.5-10.3,15.38-1.19,3.51-2.54,6.54-6.04,8.64-28.19,16.89-56.25,34-84.41,50.93-5.36,3.22-6.63,2.68-8.56-3-1.17-3.45-1.85-7.07-2.92-10.56-5.4-17.75-9.47-35.89-15.67-53.4.25-2.52,1.06-4.65,4.11-4.41,2.36.18,3.04,2.05,3.61,4.08,4.04,14.29,8.13,28.56,12.24,42.83,1.62,5.61,3.32,11.19,5.27,17.76,13.07-7.34,25.18-14.52,36.84-22.46,7.65-3.49,14.6-8.09,22.11-13.04-9.7-11.59-15.93-24.32-24.24-35.67-1.82-6.15-2.82-12.39-2.21-18.83,5.4,6.1,6.54,15.04,13.25,20.58,8.95-21.37,14.03-49.91,15.79-88.1,2.1,1.66,4.21,3.33,6.31,5-.29,2.96-.76,5.91-.86,8.88-.79,23.72-4.9,46.97-13.05,69.12-3.96,10.78-2.91,18.64,4.15,27.09,7.62,9.12,5.39,10.43,16.43,1.98,7.01-2.25,11.71-6.5,14.11-13.82,2.17-6.65,6.14-12.49,12.23-16.43,6.63-4.28,9.56-2.86,11.21,5.2.19.94.54,1.86.83,2.88,4.56-.07,8.11-2.84,12.17-3.99,7.29-2.06,11.58.4,13.2,7.72,1.11,5.02.66,9.95-2.4,14.26-3.24,4.57-6.72,8.97-10.09,13.44-20.94,19.15-43.58,36.34-65.46,54.57,11.31,9.69,21.99,9.43,32.91,1.89,3.28-2.27,6.7-4.36,9.81-6.84,13.33-10.6,25.23-22.68,36.29-35.6,2.72,3.14,1.74,6.6.89,10.06-9.89,9.21-18.88,19.36-29.47,27.83-5.42,4.33-10.96,8.48-16.95,12.02-10.67,6.29-21.71,6.53-31.75-.36-6.17-4.24-10.43-3.95-15.31.98-1.84,1.86-4,3.39-6.01,5.07Z" style="fill: #252122; stroke-width: 0px;"/>
  <path d="M1186.03,932.86c-34.64,0-69.27-.04-103.91.06-3.34,0-8.99-1.85-9.14,2.96-.19,5.83,5.87,3.83,9.35,3.84,65.61.1,131.22.03,196.83,0,5,0,10.01.36,14.98,0,5.4-.38,6.64,1.9,6.6,6.95-.23,29.64.16,59.29-.27,88.92-.37,25.47-12.85,42.34-36.85,51.52-14.83,5.67-30.35,6.93-46.04,7.56-32.16,1.29-63.76-3.27-95.31-8.5-53.82-8.93-107.27-19.66-160.03-33.66-30.85-8.19-61.43-17.27-90.74-30.11-.91-.4-1.8-.85-2.73-1.22-26.37-10.31-44.95-27.87-56.23-54.53-15.31-36.19-28.87-72.95-41.06-110.24-9.5-29.07-18.5-58.3-26.61-87.8-2.54-9.25-2.6-9.14-12.08-9.72-34.05-2.07-67.3-8.11-99.39-20-12.23-4.53-23.74-10.4-34.51-17.73-24.83-16.9-37.39-40.02-35.3-70.39,1.06-15.36,3.93-30.38,10.36-44.47,18.45-40.45,55.73-56.16,95.42-52.49,28.81,2.67,54.57,13.89,78.83,29.02,4,2.5,7.87,4.44,12.92,4.1,60.85-4.06,121.35-10.25,180.01-28.2,15.29-4.68,29.98-10.78,43.83-18.93,17.78-10.46,28.39-25.6,31.66-46.01,1.9-11.84,3.57-23.72,4.01-35.7,1.7-45.98-.28-91.87-2.86-137.78-3.83-68.14-10.66-136.12-11.04-204.45-.08-14.31-.35-28.65,2.05-42.85.5-2.94.98-5.91,1.78-8.78,2.52-9.02,6.89-12.57,16.31-13.24,9.08-.64,17.85.98,26.54,3.61,22.48,6.81,43.06,17.62,62.73,30.15,51.96,33.09,96.62,74.05,132.23,124.51,21.29,30.17,37.7,62.69,45.34,99.13,5.79,27.61,5.17,55.59,4.14,83.57-1.27,34.28-3.99,68.48-6.51,102.68-1.88,25.52,2.72,49.53,13.75,72.64,18.48,38.71,36.61,77.59,54.52,116.57,11.24,24.47,21.81,49.26,29.65,75.09,1.73,5.72,3.04,11.57,4.43,17.38,2.96,12.35-1.01,22.19-10.87,29.94-6.87,5.4-14.51,9.32-22.6,12.52-16.78,6.63-34.14,11-51.93,13.79-7.38,1.16-7.6,1.2-7.62,8.76-.07,27.64-.03,55.29-.03,82.93,0,8.58,1.03,8.61-8.71,8.6-35.3-.02-70.61,0-105.91-.01ZM1168.49,509.43c25.76-.21,49.47-7.8,71.16-21.91,2.23-1.45,4.36-3.06,6.45-4.69,1.3-1.02,2.7-2.27,1.51-4.11-1.31-2.03-3.25-2.1-5.19-.92-2.27,1.39-4.41,2.98-6.67,4.37-40.2,24.62-81.5,28.41-124.02,6.27-5.57-2.9-10.7-6.66-15.95-10.15-2.24-1.49-4.26-2.17-5.84.59-1.39,2.42.75,3.54,2.18,4.78,1,.87,2.14,1.58,3.23,2.33,21.94,15.16,46.2,23.08,73.12,23.44Z" style="fill: #fff; stroke-width: 0px;"/>
  <path d="M731.32,329.03c5.72-.31,10.74,1.8,15.96,2.72,5.07.9,8.84-.33,12.6-3.9,16.04-15.24,16.12-15.15,11.98-36.83-2.06-10.79-1.13-12.89,8.8-18.27,6.14-3.33,12.71-5.66,19.33-7.9,5.14-1.74,8.95-.91,12.01,3.78,2.72,4.17,6.13,7.9,8.75,12.14,7.03,11.37,18.03,5.08,27.31,6.42,6.32.91,9.71-2.85,12.58-7.78,2.67-4.59,5.75-8.94,8.61-13.43,3.14-4.93,7.51-6.35,12.9-4.39,7.49,2.72,14.91,5.64,22.36,8.46,5.17,1.96,6.97,5.83,6.19,11.09-.82,5.59-1.63,11.19-2.6,16.76-.87,5.03.77,8.89,4.31,12.57,15.26,15.86,15.18,15.93,36.9,11.25,10.35-2.23,12.74-1.15,17.27,8.32,2.86,6,5.58,12.07,8.18,18.19,3,7.05,2.22,9.45-4.19,14.3-4.51,3.41-8.96,6.9-13.54,10.2-3.83,2.76-5.77,6.32-5.43,11.06.02.33,0,.67,0,1q-.37,21.32,17.47,32.7c9.98,6.37,10.32,7.35,6.21,18.59-2.17,5.93-4.14,11.94-6.62,17.74-2.92,6.83-4.84,7.82-12.39,7.04-5.94-.62-11.83-1.67-17.77-2.29-4.17-.44-7.91.7-10.65,4.17-.41.52-.93.95-1.37,1.44-16.12,17.64-15.07,13.5-9.49,35.77,2.69,10.74,2.05,12.26-7.95,16.91-6.02,2.81-12.07,5.56-18.18,8.16-6.63,2.82-8.44,2.46-12.87-2.96-3.15-3.85-6.08-7.92-8.85-12.06-3.85-5.77-8.81-8.82-15.96-7.84-2.62.36-5.36.62-7.96.31-9.62-1.15-15.97,3.07-19.95,11.54-.42.9-.95,1.75-1.44,2.62-7.87,13.98-8.22,14.09-23.26,8.36-5.28-2.01-10.57-3.99-15.89-5.89-4.78-1.71-6.84-5.08-6.2-10.02.72-5.61,1.52-11.21,2.47-16.78.97-5.68-.1-10.56-4.78-14.32-.77-.62-1.42-1.4-2.13-2.1q-12.41-12.23-29.5-8.4c-1.62.36-3.19.98-4.83,1.23-9.39,1.42-11.8.36-15.82-8.09-3.28-6.89-5.85-14.12-9.05-21.05-2.06-4.46-.81-7.74,2.74-10.46,4.22-3.23,8.37-6.64,12.92-9.36,6.52-3.9,8.59-9.39,8.37-16.73-.58-19.1-.4-19.1-16.56-29.08-1.98-1.22-4.05-2.33-5.9-3.74-5.13-3.89-6.22-6.85-4.28-12.91,2.23-6.96,4.81-13.8,7.26-20.69,2.05-5.77,5.9-8.71,11.94-7.58ZM901.53,396.55c-.42-33.41-25.34-58.02-58.36-57.66-29.63.33-55.77,27.26-55.3,56.98.51,32.04,25.81,56.9,57.53,56.5,30.82-.39,56.52-25.94,56.14-55.82Z" style="fill: #68e1fd; stroke-width: 0px;"/>
  <path d="M477.33,436.09c-.31-4.19-.59-6.84-.67-9.5-.17-5.48-2.79-9.14-7.4-12.12-4.67-3.02-11.35-4.88-12.92-10.33-1.53-5.32,2.71-10.64,4.58-15.9,3.58-10.05,3.65-10.03,14.2-8.2,13.91,2.41,26.26-4.19,32.24-17.08,2.01-4.34.64-8.57-.32-12.7-3.35-14.4-5.91-13.51,10.74-21.2.9-.42,1.8-.86,2.73-1.21q8.45-3.26,13.87,4.04c1.58,2.14,3.16,4.29,4.6,6.52,3.18,4.96,7.62,7.19,13.5,6.72,2.32-.18,4.66-.25,6.98-.13,8.77.44,14.86-2.75,19.3-10.93,6.47-11.91,7.02-11.69,19.65-7.22,15.12,5.35,13.96,3.44,11.28,18.68-1.47,8.38-.16,15.07,6.75,20.39,2.09,1.61,3.91,3.63,5.67,5.62,3.95,4.47,8.6,5.38,14.41,4.21,5.72-1.14,12.37-6.01,17.1-2.07,5.41,4.51,6.56,12.74,9.62,19.33,1.53,3.3.15,5.81-2.51,7.77-3.48,2.56-7.01,5.06-10.57,7.51-4.53,3.11-6.44,7.43-6.14,12.83.11,1.99.35,4.01.17,5.98-.94,10.17,3.06,17.31,12.62,21.24,1.83.75,3.54,1.83,5.25,2.86,3.27,1.97,4.49,4.63,2.97,8.41-2.11,5.24-3.95,10.59-6.08,15.82-1.4,3.45-3.74,5.43-7.82,4.1-1.24-.41-2.68-.21-3.92-.62-12.23-4.04-20.91.91-28.58,10.24-4.4,5.35-6.35,10.49-4.69,17.33,3.77,15.54,3.63,15.58-10.79,22.33-1.5.7-3.12,1.23-4.52,2.1-4.56,2.86-8.07,2.09-10.66-2.71-.63-1.16-1.62-2.13-2.24-3.29-5.15-9.65-13-12.93-23.91-12.19-9.43.64-17,2.44-20.6,12.24-.77,2.11-2.6,3.83-3.96,5.72-2.17,3.01-4.57,4.32-8.46,2.5-4.8-2.24-9.85-3.97-14.9-5.61-3.99-1.3-4.98-3.9-4.36-7.67.75-4.59,1.5-9.18,2.08-13.8.62-4.94-.6-9.24-4.91-12.26-.54-.38-1.01-.87-1.5-1.32q-11.84-10.83-26.92-7.2c-2.26.54-4.51,1.1-6.79,1.54-2.62.51-4.51-.53-5.64-2.95-.98-2.11-1.96-4.22-2.95-6.32-6.93-14.59-7.1-14.84,6.11-24.1,6.9-4.84,9.17-11,8.31-17.38ZM560.24,380.25c-22.05-1.69-49.98,16.56-50.17,49.52-.16,26.98,22.7,49.12,49.94,49.07,27.22-.05,48.87-22.02,48.88-49.92.01-29.72-25.43-49.87-48.66-48.66Z" style="fill: #fff; stroke-width: 0px;"/>
  <path d="M815.75,75.4c-.26-2.08-.56-4.05-.75-6.04-.31-3.19-3.55-6.92-.73-9.42,4.47-3.96,10.29-6.01,16.17-7.33,1.82-.41,2.96,1.25,3.99,2.54,1.86,2.34,3.76,4.66,5.46,7.13,2.95,4.28,6.95,5.97,12.04,5.41,1.65-.18,3.37-.57,4.97-.3,7.88,1.34,12.33-2.87,15.97-9.1,1.57-2.69,2.22-7.47,6.16-6.99,5.87.71,11.62,2.8,16.68,6.12,1.14.75,1.04,2.38.79,3.7-.25,1.3-.75,2.55-.97,3.85-1.99,11.81,3.33,21.57,13.96,26.58,4.85,2.29,9.4.39,13.57-.92,7.91-2.5,8.36-.4,11.04,5.73.27.61.55,1.21.81,1.82,4.92,11.55,5.67,8.85-4.5,16.39-10.71,7.94-10.36,25.55.69,33.1,1.36.93,2.88,1.64,4.32,2.46,4.36,2.47,6.26,5.66,3.26,10.47-.69,1.11-.98,2.47-1.42,3.72q-3.27,9.2-12.45,7.62c-14.81-2.55-26.48,9.35-23.89,24.39.34,1.95,1.05,3.85,1.26,5.81.98,8.95-7.8,7.35-11.95,10.69-2.9,2.34-6.62,3.56-9.25-1.02-.49-.86-1.16-1.62-1.76-2.42-7.72-10.24-14.43-12.33-26.67-8.95-5.16,1.43-7.03,5.68-9.73,9.39-5.47,7.51-3.56,7.86-13.42,4.22-2.18-.81-4.27-1.93-6.5-2.54-3.13-.86-4.37-2.76-4.03-5.86.14-1.32.09-2.73.54-3.95,3.44-9.32-.5-15.56-7.51-21.6-5.38-4.63-10.78-6.77-17.26-4.55-8.65,2.96-9.98,2.33-14-7.12-.78-1.84-1.5-3.71-2.46-5.45-1.85-3.35-.96-5.5,2.36-7.27,2.32-1.24,4.38-3.02,6.46-4.66,4.55-3.59,6.55-8.19,5.48-14.04-.42-2.28-.88-4.66-.67-6.94.54-5.72-3.28-8.17-7.23-10.85-11.33-7.67-11.17-4.43-5.92-18.68,2.93-7.94,3.17-7.85,11.64-6.16,10.17,2.03,21.79-4.57,25.16-14.28.55-1.59,1.03-3.18.32-4.73ZM857.16,173.2c22.05.36,41.84-17.38,41.26-38.53-.73-26.87-19.99-40.48-40.12-40.86-21.15-.39-39.27,17.97-39.5,39.3-.23,21.79,16.94,39.74,38.36,40.09Z" style="fill: #fff; stroke-width: 0px;"/>
  <path d="M784.93,199.75c-1.22,1.04-2.09,2.22-3.24,2.69-9.97,4.05-9.35,12.52-8.87,20.94.28,4.8,4.18,6.7,7.62,8.44,5.72,2.89,3.66,6.68,2.15,10.82-1.51,4.12-2.98,6.34-8.51,5.32-12.57-2.31-21.53,7.45-19.36,20,1.14,6.59-4.08,12.7-10.84,12.62-2.86-.03-3.61-2.54-4.93-4.38-4.08-5.71-9.46-7.64-16.5-6.84-5.39.61-9.24,2.22-12.16,7.12-3.82,6.41-4.11,5.9-11.2,3.79-5.07-1.51-7.46-4.02-5.76-9.31,3.06-9.54-3.81-13.86-9.74-18.66-2.72-2.2-5.59-1.09-8.52-.28-4.02,1.11-7.92,3.21-10.42-3.21-4.07-10.45-3.41-8.92,2.09-13.17,9.66-7.46,9.19-20.64-1.38-27.02-5.13-3.1-5.83-6.05-3.69-11.17,2.74-6.58,2.47-6.7,10.22-6.17,12.79.88,21.41-8.23,18.68-21.03-1.27-5.94,1.23-7.6,5.49-9.55,4.41-2.02,7.45-2.36,10.9,2.43,7.42,10.27,20.25,9.44,27.82-1.13,1.49-2.08,2.36-5.44,5.67-4.68,3.83.88,8.01,1.62,10.92,4.48,1.82,1.79.19,4.47-.02,6.72-1.25,13.41,7.83,21.9,21.18,19.21,4.78-.96,7.6-.05,9.12,4.71.79,2.48,2.12,4.79,3.27,7.33ZM753.03,219.12c-.19-17.24-14.24-30.98-31.28-30.59-16.82.38-30.95,14.8-30.86,31.49.09,17.04,14.24,31.17,31.06,31.01,17.63-.17,31.28-14.18,31.09-31.9Z" style="fill: #fff; stroke-width: 0px;"/>
  <path d="M850.08,1329.32c-122.88,0-245.77,0-368.65-.02-3.64,0-7.3-.21-10.91-.65-1.2-.15-2.31-1.3-2.3-2.87.01-1.54,1.11-2.62,2.25-2.94,1.89-.52,3.94-.61,5.93-.61,6.66,0,13.32.17,19.98.17,236.11.01,472.22.01,708.34,0,6.66,0,13.32-.18,19.98-.17,1.98,0,4,.19,5.92.62,1.33.3,2.16,1.43,2.22,2.94.07,1.58-.86,2.72-2.18,2.89-3.28.41-6.6.63-9.91.63-107.23,0-214.47-.04-321.7-.07-16.32,0-32.64,0-48.95,0v.1Z" style="fill: #252122; stroke-width: 0px;"/>
  <path d="M286.46,135.59c-1.76,38.2-6.84,66.74-15.79,88.1-6.7-5.54-7.85-14.48-13.25-20.58,0,0,.21.14.21.14-.5-.8-1-1.6-1.5-2.4-1.67-13.87-6.64-25.87-19.02-33.69-.96-7.64.79-15.24.44-22.86-.19-4.23,1.38-6.2,5.52-7.93,12.36-5.15,18.96-14.99,20.71-28.23,2.32-17.56-1.85-34.3-6.25-51.03-.92-3.51-2.91-5.04-6.58-4.09-12.61,3.28-23.39-1.71-33.91-7.64-3.46-1.95-6.63-4.42-10.06-6.45-5.22-3.08-6.75-2.32-7.37,3.94-1.18,12.1-5.23,23.06-12.35,33.76-6.07-4.47-12.32-6.77-18.43-1.69-6.49,5.4-10.16,12.47-8.41,21.11,1.35,6.67,4.95,12.39,10.65,16.3,2.65,1.82,4.65,3.38,4.4,6.97-.71,9.92.59,19.92-1.2,29.8-24.92,2.49-41.68,15.94-51.07,38.71-5.74,13.92-7.53,28.85-9.4,43.65-3.33,26.38-4.1,52.9-4.76,79.47-.35,14.26-1.65,28.55-1.02,42.81.52,11.86.51,23.82,2.62,35.59.5,20.62,1,41.24,1.5,61.86.23,9.66.22,9.82-9.82,9.73-19.01-.17-35.71-6.83-50.41-18.67-15.41-12.41-26.53-28.15-33.16-46.58-16.82-46.74-17.89-93.64,1.02-140.17,6.93-17.05,17.15-32.27,28.63-46.57,12.07-15.04,24.33-29.95,36.86-44.6,16.43-19.22,28.24-40.92,36.57-64.69,5.27-15.04,10.77-30.02,17.93-44.3,4.04-8.06,8.54-15.86,15.12-22.13,11.49-10.95,24.37-16.04,39.79-8.34,3.52,1.76,6.1,1.65,8.44-1.94,1.8-2.76,3.97-5.37,6.4-7.6,11.81-10.82,26.8-10.79,38.56.13,6.65,6.18,11.41,13.81,15.56,21.82,10.35,19.98,16.27,41.34,19.84,63.44.47,2.94.29,6.01,1.92,8.69-.57,2.18-.83,4.5-1.76,6.51-3.36,7.23-2.51,13.73,2.81,19.66Z" style="fill: #140c17; stroke-width: 0px;"/>
  <path d="M196.25,863.23c-2.43,5.37-6.08,6.3-10.36,6.04-13.7-.84-26.77-4.56-39.87-8.35-3.89-1.13-4.17-3.68-4.17-6.79,0-8.28,0-16.57,0-25.75,6.38-.28,13.32,2.48,20.5,2.21,7.32-.28,14.35-2.01,21.9-3.92,1.37,5.39.99,10.36.64,15.15-.7,9.5,1.66,17.13,11.35,21.41Z" style="fill: #3f5fac; stroke-width: 0px;"/>
  <path d="M239.36,847.55c-.6,1.38-1.02,2.61-1.64,3.73-3.74,6.8-3.77,6.81-10.17,2.68-3.62-2.34-7.21-4.71-10.77-7.14-3.25-2.22-6.01-2.43-8.17,1.48-.96,1.74-1.97,3.53-3.33,4.93-1.7,1.74-2.29,5.57-5.66,4.51-3.48-1.09-7.12-3.31-7.65-7.11-1.19-8.55-.68-17.21-.1-25.82,7.19-4.14,4.36-11.74,6.04-18.51,10,3.26,18.7,8.58,27.95,12.63,2.07.91,3.02,2.46,1.91,4.76-.29.59-.47,1.24-.71,1.86q-5.35,13.87,8.68,20c1.19.52,2.29,1.25,3.62,1.99Z" style="fill: #3f5fac; stroke-width: 0px;"/>
  <path d="M1591.76,1271.48c-12.06-1.32-23.2-2.5-34.33-3.78-15.18-1.75-30.39-3.22-45.49-5.48-10.81-1.62-21.44-4.44-32.19-6.53-14.08-2.74-28.12-4.47-42.59-2.16-11.06,1.77-15.27-4.78-10.5-14.98,2.13-4.54,4.52-9.01,4.24-14.19-.38-6.82-5.74-12.13-5.66-19.38.04-3.46-5.67-2.39-7.97-4.69.54-2.78,1.16-5.33,1.53-7.93.92-6.47-1.03-8.44-7.38-7.93-2.93.24-5.76,3.22-8.55,1.31-2.82-1.94-2.94-5.81-4.12-8.86-4.04-10.5-7.84-21.08-11.59-31.24,1.24-1.89,2.63-1.71,3.86-1.69,50.26.84,100.53,1.72,150.79,2.59,1.33.02,2.66.06,3.99.11,9.24.36,9.29.35,12.03,9.49,6.21,20.68,12.36,41.39,18.55,62.08,4.38,14.65,8.83,29.28,13.18,43.94.82,2.75,1.34,5.59,2.21,9.32Z" style="fill: #fff; stroke-width: 0px;"/>
  <path d="M1756.94,1370.8c4.15-3.85,8.29-3.89,12.18-3.95,21.69-.34,43.18,1.27,64.23,7.01,8.84,2.41,16.55,6.67,18.61,16.01,2.56,11.66-.59,22.43-8.97,31.29-3.27,3.46-7.74,3.65-12.08,3.59-7.33-.09-14.6-.92-21.79-2.39-16.28-3.32-33.03-3.92-49.14-8.28-1.61-.44-3.28-.64-4.62-2.79,3.49-1.4,7.04-2.54,10.34-4.18,14.85-7.41,15.79-20.98,2.08-30.2-3.27-2.2-6.87-3.89-10.84-6.11Z" style="fill: #fff; stroke-width: 0px;"/>
  <path d="M1453.91,1370.46c-4.71,20.01.06,27.66,19.64,32.95,4.28,1.16,9.56.17,12.5,5.21-1.19,2.7-3.88,3.03-6.22,3.92-27.49,10.44-55.61,15.29-84.95,9.72-4.93-.94-9.67-2.46-14.13-4.64-5.51-2.68-8.2-7.26-8.68-13.52-.48-6.33,3.85-8.73,8.13-11.28,22.66-13.5,47.64-19.18,73.71-22.36Z" style="fill: #fff; stroke-width: 0px;"/>
  <path d="M1569.8,1172.58c7.84-.71,13.83,1.44,19.93,2.68,16.62,3.38,33.37,5.36,50.37,5.04,7.07-.13,7.17.07,7.25,6.98.1,8.6.02,17.2.02,25.73-2.28,2.02-4.42.62-6.57.07-11.55-2.95-23.14-5.76-34.64-8.89-7.17-1.95-14.29-3.16-21.51-.7-4.28,1.46-5.85-.37-6.92-4.3-2.34-8.6-5.08-17.1-7.94-26.61Z" style="fill: #8b5a32; stroke-width: 0px;"/>
  <path d="M1648.37,1282.34c-.38,2.46-2.73,3.22-4.71,4.35-10.97,6.27-22.58,11.23-34.11,16.32-37.05,16.35-74.74,31.12-112.31,46.21-.92.37-1.87.7-2.8,1.04-2.61.95-5.72,1.84-6.83-1.43-1.14-3.36,2.22-4.19,4.6-5.15,24.62-9.88,49.35-19.52,73.87-29.65,25.14-10.39,50.41-20.52,74.5-33.27,1.45-.77,3.04-1.7,4.59-1.76,1.61-.06,3.16.95,3.21,3.34Z" style="fill: #fff; stroke-width: 0px;"/>
  <path d="M1413.59,1191.9c-.49,5.88-3.51,9.89-5.95,14.19-1.73,3.06.12,4.19,2.98,4.28,3.51.12,6.43-3.86,10.32-1.51,0,3.67-3.12,5.68-4.45,8.6-.56,1.24-1.03,2.58-.25,3.75,1.12,1.67,2.88,1.67,4.3.56,4.49-3.49,5.66.2,5.32,3.09-.88,7.37-3.8,14.1-9.64,19.02-4.44,3.74-9.01,3.41-11.67-1.81-6.98-13.74-9.3-28.27-3.62-43.11,1.9-4.97,6.19-7.54,12.64-7.07Z" style="fill: #8b5a32; stroke-width: 0px;"/>
  <path d="M1747.05,1405.55c-1.52-.34-3.82-.7-6.02-1.39-9.08-2.84-9.35-3.42-6.56-12.53.87-2.86,1.52-5.79,2.55-8.59,2.13-5.77,9.34-9.21,15.16-7.16,5.33,1.87,10.59,4.04,14.87,7.87,6.17,5.52,5.67,11.98-1.27,16.38-5.44,3.45-11.5,5.07-18.73,5.41Z" style="fill: #8b5a32; stroke-width: 0px;"/>
  <path d="M1479.17,1397.66c-17.9-.38-28.38-13.74-16.84-25.75,5.47,8.36,10.82,16.55,16.84,25.75Z" style="fill: #8b5a32; stroke-width: 0px;"/>
  <path d="M364.28,270.94c-11.06,12.92-22.97,24.99-36.29,35.6-3.11,2.48-6.53,4.57-9.81,6.84-10.91,7.54-21.6,7.8-32.91-1.89,21.89-18.22,44.52-35.42,65.46-54.57,3.89,5.28,10.79,7.64,13.55,14.02Z" style="fill: #3f5fac; stroke-width: 0px;"/>
  <path d="M377.37,188.97c5.96-3.47,11.31-2.42,16,2.35,7.5,7.63,12.28,16.8,15.27,27.03.81,2.78-1.04,5.1-.62,7.69-3.76,6.84-9.87,8.54-16.88,6.9-8.27-1.93-14.32-7.04-16.53-15.36-2.59-9.74-2.84-19.53,2.76-28.61ZM401.73,217.87c-2.05-8.36-6.94-16.81-14.69-23.47-2.74-2.36-4.77-.93-5.84,2.32-2.51,7.64-1.78,15.1,1.61,22.19,2.09,4.35,5.79,7.31,10.78,7.96,5.09.66,8.17-2.22,8.14-9.01Z" style="fill: #252122; stroke-width: 0px;"/>
  <path d="M477.85,221.33c8.74-14.16,17.54-28.28,29.09-40.42-4.55,17.18-13.65,31.08-29.09,40.42Z" style="fill: #252122; stroke-width: 0px;"/>
  <path d="M199.7,232.86c6.21,17.51,10.28,35.65,15.67,53.4,1.06,3.49,1.74,7.11,2.92,10.56,1.93,5.68,3.2,6.22,8.56,3,28.17-16.93,56.23-34.04,84.41-50.93,3.5-2.1,4.85-5.12,6.04-8.64,1.99-5.88,4.21-11.68,10.3-15.38q-.47,13.77,11.77,8.04c3.3-1.54,6.63-3.03,10.04-4.3,4.93-1.83,7.51-.05,7.27,5.11-.2,4.13-2.34,7.57-4.88,10.7-4.4,5.44-9.39,10.32-14.66,14.92-34.07,29.74-69.09,58.28-106.6,83.63-6.6,4.46-13.34,8.75-20.67,11.94-8.5,3.7-10.55,3.14-15.9-4.31-7.21-10.04-12.27-21.26-17.09-32.56-9.78-22.89-18.87-46.04-25.32-70.13,12.98-2.69,25.14-7.98,37.77-11.81,3.47-1.05,6.92-2.15,10.38-3.23Z" style="fill: #3f5fac; stroke-width: 0px;"/>
  <path d="M174.28,149.13c1.79-9.88.49-19.88,1.2-29.8.26-3.6-1.75-5.15-4.4-6.97-5.69-3.91-9.29-9.63-10.65-16.3-1.75-8.63,1.92-15.7,8.41-21.11,6.11-5.08,12.36-2.78,18.43,1.69,7.12-10.7,11.16-21.66,12.35-33.76.61-6.26,2.15-7.03,7.37-3.94,3.43,2.02,6.59,4.5,10.06,6.45,10.52,5.93,21.3,10.92,33.91,7.64,3.66-.95,5.65.58,6.58,4.09,4.39,16.73,8.57,33.47,6.25,51.03-1.75,13.24-8.35,23.09-20.71,28.23-4.13,1.72-5.71,3.69-5.52,7.93.35,7.62-1.41,15.22-.44,22.86-.4,1.58-.95,3.14-1.19,4.74-2.03,13.55-11.35,21.51-24.81,20.28-15.73-1.43-27.31-9.45-34.59-23.57-1.57-3.05-2.22-6.17-1.84-9.61.36-3.29.64-6.63-.41-9.88ZM205.55,47.32c-2.3,8.83-4.54,16.46-8.15,23.6-3.03,5.99-8.38,11.68-2.33,18.9.68.81.51,2.58-.92,3.48-1.66,1.04-3.31.89-4.36-.64-1.69-2.46-2.95-5.21-4.63-7.68-2.06-3.04-4.28-6.44-8.56-5.8-4.8.73-7.29,4.63-8.63,8.75-1.34,4.14-1.13,8.44,1.19,12.53,2.99,5.27,7.4,8.16,13.14,9.84,6.45,1.89,6.74,2.99,1.55,6.66-2.58,1.83-2.16,3.77-2.19,5.88-.13,11.98-.14,23.96-.21,35.95-.01,2.68.27,5.18,1.51,7.7,5.67,11.5,20.14,19.86,32.82,18.72,7.93-.71,11.8-4.7,12.76-12.67.37-3.06-.31-4.81-3.29-6.21-11.9-5.57-18.27-16.09-23.5-27.41-3.15-6.83-2.01-8.46,5.31-7.67,7.27.79,14.49,2.06,21.86,1.69,14.39-.73,24.28-9.41,26.81-23.49,2.67-14.83-.76-29.04-3.91-43.35-1.02-4.63-2.97-5.77-7.57-5.16-6,.8-11.82-.98-17.56-2.9-7.33-2.45-13.7-6.7-21.16-10.74Z" style="fill: #252122; stroke-width: 0px;"/>
  <path d="M259.64,221.94c8.32,11.35,14.54,24.08,24.24,35.67-7.51,4.95-14.46,9.55-22.11,13.04.46-12.65-1.48-25.17-2.15-37.75-.19-3.64,0-7.31.01-10.96Z" style="fill: #3f5fac; stroke-width: 0px;"/>
  <path d="M256.14,200.85c.5.8,1,1.6,1.5,2.4-.5-.8-1-1.6-1.5-2.4Z" style="fill: #252122; stroke-width: 0px;"/>
  <path d="M1668.06,947.19c2.77,16.27,5.48,31.97,8.09,47.68.32,1.94.42,4.02.13,5.95-2.6,17.03-30.01,35.15-48.47,25.17-6.52-3.53-11.46-8.04-10.93-16.76,18.28-5.03,27.4-19.3,34.25-35.74.89-2.15,2.18-4.46.2-6.43-2.11-2.1-4.3-.52-6.31.66-9.22,5.39-19.45,6.57-29.79,6.78-16.26.32-29.02-9.71-32.23-25.5-3.93-19.36-3.09-39.04-3.13-58.64,0-3.32,1.61-5.74,4.14-7.54,13-9.26,28.19-11.04,43.43-12.55,2.65-.26,3.12,1.96,3.68,3.87,3.85,13.17,9.35,25.55,17.76,36.5,1.32,1.72,1.87,3.42.85,5.5-.58,1.18-1.21,2.46-1.29,3.73-.16,2.4-1.78,5.71,2.07,6.52,3.03.64,3.65-2.03,4.22-4.39,1.07-4.45,3.86-7.67,7.63-10.07,3.96-2.52,7.97-5.2,12.85-2.1,4.63,2.94,4.86,7.86,4.63,12.41-.55,11.03-8.23,17.91-19.62,18.33-2.7.1-6.91-1.57-6.96,2.89-.04,4.06,4.26,3.35,7.05,3.71,2.28.29,4.62.06,7.78.06ZM1615.81,960.89c8.08.42,14.69-2.19,20.41-7.23,5.46-4.82,8.25-11.07,9.56-18.07.35-1.87-.62-3.33-2.33-3.87-1.84-.58-3.19.67-3.94,2.17-.57,1.14-.56,2.56-.95,3.81-3.87,12.47-13.02,18.27-25.83,16.11-3.9-.66-7.68-2-11.52-2.98-1.99-.51-4.1-.83-4.93,1.68-.75,2.28.52,3.62,2.62,4.51,5.55,2.35,11.28,3.81,16.93,3.87ZM1614.56,935.31c-4.73.26-5.6-.52-3.73-6.34,1.71-5.33,4.17-10.41,6.14-15.66.62-1.65.09-3.33-1.66-4.14-1.43-.66-2.63.13-3.32,1.32-4.54,7.74-8.02,15.92-9.32,24.86-.43,2.95,1.3,5.36,3.86,6.35,4.86,1.88,9.76,1.15,14.33-1.3,1.25-.67,1.69-2.03,1.18-3.41-.48-1.3-1.45-2.2-2.96-2.16-.98.03-1.96.2-4.52.48ZM1632.32,901.43c-2.62.98-3.76,2.95-3.29,5.48.44,2.38,1.7,4.69,4.66,3.94,2.87-.72,2.96-3.3,2.51-5.69-.39-2.09-1.55-3.61-3.88-3.73ZM1599.33,911.56c-.51-2.26-.74-4.84-3.9-4.83-2.65,0-3.09,2.1-3.2,4.14-.13,2.43.31,4.95,3.19,5.31,3.2.4,3.48-2.31,3.9-4.62Z" style="fill: #8b5a32; stroke-width: 0px;"/>
  <path d="M1683.44,908.36c-9.27-7.44-16.87-8.2-24.57-2.19-2.95,2.3-4.67.52-6.37-1.89-6.37-9.05-10.9-18.97-14.26-29.47-.81-2.53-1.53-5.09-2.15-7.68-.86-3.56-3.12-4.88-6.6-4.41-12.16,1.64-24.45,2.7-36.03,7.13-10.44,4-20.55,8.5-20.82,22.5-15.61-11.84-20.97-36.3-11.84-51.7,7.1-11.98,18.55-15.3,31.57-14.86,10,.34,18.56,5.01,26.75,10.04,10.92,6.7,22.45,11.36,35.14,13.18,2.29.33,4.54,1,6.8,1.56,11.35,2.78,18.59,9.66,21.44,21.14,2.84,11.46,1.68,22.87.95,36.64Z" style="fill: #252122; stroke-width: 0px;"/>
  <path d="M1168.49,509.43c-26.92-.36-51.18-8.29-73.12-23.44-1.09-.76-2.23-1.47-3.23-2.33-1.44-1.24-3.58-2.36-2.18-4.78,1.59-2.76,3.6-2.08,5.84-.59,5.25,3.49,10.38,7.25,15.95,10.15,42.52,22.14,83.82,18.35,124.02-6.27,2.27-1.39,4.41-2.98,6.67-4.37,1.94-1.19,3.88-1.11,5.19.92,1.19,1.84-.21,3.1-1.51,4.11-2.09,1.64-4.23,3.24-6.45,4.69-21.7,14.12-45.41,21.7-71.16,21.91Z" style="fill: #252122; stroke-width: 0px;"/>
  <path d="M901.53,396.55c.38,29.88-25.32,55.43-56.14,55.82-31.71.4-57.02-24.46-57.53-56.5-.47-29.72,25.67-56.65,55.3-56.98,33.03-.37,57.94,24.24,58.36,57.66Z" style="fill: #252122; stroke-width: 0px;"/>
  <path d="M560.24,380.25c23.23-1.21,48.67,18.94,48.66,48.66-.01,27.9-21.66,49.87-48.88,49.92-27.24.05-50.1-22.09-49.94-49.07.19-32.96,28.11-51.21,50.17-49.52Z" style="fill: #252122; stroke-width: 0px;"/>
  <path d="M857.16,173.2c-21.42-.35-38.59-18.31-38.36-40.09.23-21.32,18.35-39.69,39.5-39.3,20.13.37,39.39,13.99,40.12,40.86.57,21.15-19.22,38.9-41.26,38.53Z" style="fill: #252122; stroke-width: 0px;"/>
  <path d="M753.03,219.12c.19,17.73-13.45,31.73-31.09,31.9-16.81.16-30.97-13.97-31.06-31.01-.09-16.7,14.04-31.12,30.86-31.49,17.04-.38,31.09,13.36,31.28,30.59Z" style="fill: #252122; stroke-width: 0px;"/>
  <path d="M401.73,217.87c.03,6.79-3.05,9.67-8.14,9.01-4.99-.65-8.69-3.61-10.78-7.96-3.4-7.09-4.13-14.55-1.61-22.19,1.07-3.25,3.1-4.68,5.84-2.32,7.74,6.65,12.64,15.11,14.69,23.47Z" style="fill: #3f5fac; stroke-width: 0px;"/>
  <path d="M205.55,47.32c7.46,4.04,13.83,8.29,21.16,10.74,5.74,1.92,11.56,3.7,17.56,2.9,4.6-.61,6.55.53,7.57,5.16,3.15,14.31,6.58,28.52,3.91,43.35-2.54,14.08-12.42,22.76-26.81,23.49-7.37.37-14.58-.9-21.86-1.69-7.32-.79-8.46.84-5.31,7.67,5.23,11.32,11.59,21.84,23.5,27.41,2.98,1.39,3.67,3.14,3.29,6.21-.97,7.97-4.83,11.96-12.76,12.67-12.68,1.13-27.15-7.22-32.82-18.72-1.24-2.52-1.53-5.03-1.51-7.7.07-11.98.07-23.97.21-35.95.02-2.11-.39-4.05,2.19-5.88,5.19-3.67,4.9-4.77-1.55-6.66-5.74-1.68-10.15-4.57-13.14-9.84-2.32-4.09-2.53-8.4-1.19-12.53,1.34-4.12,3.82-8.03,8.63-8.75,4.29-.65,6.5,2.76,8.56,5.8,1.68,2.47,2.94,5.22,4.63,7.68,1.06,1.53,2.7,1.68,4.36.64,1.42-.9,1.6-2.66.92-3.48-6.05-7.22-.7-12.92,2.33-18.9,3.61-7.14,5.85-14.78,8.15-23.6ZM227.57,123.01c6.99-.74,13.34-2.34,18.43-7.14,1.03-.97,1.58-2.21.81-3.55-.73-1.27-2.08-1.74-3.39-1.3-1.54.51-2.97,1.4-4.44,2.13-9.36,4.68-18.01,3.43-25.84-3.34-2.5-2.16-4.71-4.65-6.94-7.09-1.56-1.71-3.25-2.34-5.17-.88-1.78,1.35-.8,2.98.03,4.39,6.04,10.17,15.21,15.36,26.51,16.78ZM231.85,98.4c-1.63,1.57-3.27,1.04-4.88.91-2.57-.21-5.98-1.22-6.56,2.37-.56,3.47,2.94,3.77,5.42,4.48,2.24.64,4.51,1.04,6.85.56,6.33-1.3,8.41-4.63,6.26-10.77-1.86-5.33-4.75-10.19-7.94-14.82-1.39-2.02-2.75-5.26-6.07-2.79-2.53,1.87-.91,4.04.24,6.11,2.53,4.56,5.97,8.72,6.68,13.96ZM241.27,77.69c-.03-2.07-.27-4.51-2.58-4.77-2.44-.27-2.96,2.06-3.03,4.14-.07,2.09.25,4.53,2.5,4.79,2.41.28,2.86-2.14,3.11-4.17ZM210.81,75.97c-.34-1.89-.4-4.43-2.86-4.44-2.65-.02-2.5,2.59-2.5,4.47,0,1.9-.06,4.53,2.52,4.5,2.38-.03,2.51-2.58,2.83-4.53Z" style="fill: #3f5fac; stroke-width: 0px;"/>
  <path d="M1615.81,960.89c-5.65-.06-11.38-1.52-16.93-3.87-2.1-.89-3.37-2.23-2.62-4.51.83-2.52,2.94-2.19,4.93-1.68,3.84.99,7.63,2.33,11.52,2.98,12.81,2.16,21.96-3.64,25.83-16.11.39-1.25.37-2.67.95-3.81.75-1.5,2.1-2.75,3.94-2.17,1.71.54,2.68,2.01,2.33,3.87-1.31,7-4.09,13.26-9.56,18.07-5.72,5.04-12.32,7.64-20.41,7.23Z" style="fill: #252122; stroke-width: 0px;"/>
  <path d="M1614.56,935.31c2.56-.28,3.54-.45,4.52-.48,1.51-.04,2.48.86,2.96,2.16.51,1.37.08,2.73-1.18,3.41-4.57,2.45-9.46,3.18-14.33,1.3-2.56-.99-4.29-3.4-3.86-6.35,1.3-8.94,4.78-17.11,9.32-24.86.69-1.18,1.9-1.98,3.32-1.32,1.75.81,2.28,2.49,1.66,4.14-1.97,5.25-4.43,10.33-6.14,15.66-1.87,5.82-1,6.6,3.73,6.34Z" style="fill: #252122; stroke-width: 0px;"/>
  <path d="M1632.32,901.43c2.32.12,3.49,1.64,3.88,3.73.45,2.4.35,4.97-2.51,5.69-2.96.75-4.21-1.56-4.66-3.94-.47-2.53.67-4.5,3.29-5.48Z" style="fill: #252122; stroke-width: 0px;"/>
  <path d="M1599.33,911.56c-.42,2.31-.7,5.02-3.9,4.62-2.88-.36-3.32-2.88-3.19-5.31.11-2.04.55-4.13,3.2-4.14,3.15,0,3.39,2.57,3.9,4.83Z" style="fill: #252122; stroke-width: 0px;"/>
  <path d="M227.57,123.01c-11.3-1.42-20.47-6.61-26.51-16.78-.83-1.4-1.81-3.03-.03-4.39,1.92-1.46,3.61-.83,5.17.88,2.23,2.44,4.45,4.94,6.94,7.09,7.83,6.77,16.48,8.02,25.84,3.34,1.47-.73,2.89-1.62,4.44-2.13,1.31-.44,2.67.04,3.39,1.3.76,1.33.22,2.58-.81,3.55-5.1,4.8-11.45,6.4-18.43,7.14Z" style="fill: #252122; stroke-width: 0px;"/>
  <path d="M231.85,98.4c-.71-5.25-4.15-9.41-6.68-13.96-1.15-2.07-2.77-4.23-.24-6.11,3.33-2.46,4.68.78,6.07,2.79,3.19,4.63,6.08,9.5,7.94,14.82,2.15,6.14.07,9.47-6.26,10.77-2.35.48-4.61.08-6.85-.56-2.48-.71-5.98-1.01-5.42-4.48.58-3.59,3.99-2.58,6.56-2.37,1.61.13,3.24.66,4.88-.91Z" style="fill: #252122; stroke-width: 0px;"/>
  <path d="M241.26,77.69c-.24,2.02-.7,4.44-3.11,4.16-2.25-.27-2.57-2.71-2.5-4.79.07-2.08.59-4.41,3.03-4.14,2.31.26,2.55,2.7,2.58,4.78Z" style="fill: #252122; stroke-width: 0px;"/>
  <path d="M210.81,75.97c-.33,1.95-.46,4.51-2.83,4.53-2.58.03-2.51-2.6-2.52-4.5,0-1.88-.16-4.49,2.5-4.47,2.45.01,2.52,2.54,2.86,4.44Z" style="fill: #252122; stroke-width: 0px;"/>
</svg>