<svg version="1.1" id="Layer_1" xmlns="http://www.w3.org/2000/svg" xmlns:xlink="http://www.w3.org/1999/xlink" x="0px" y="0px" viewBox="0 0 500 500" style="width: 180px;" xml:space="preserve" data-imageid="artificial-intelligence-1-33" imageName="Artificial Intelligence 1" class="illustrations_image">
<style type="text/css">
	.st0_artificial-intelligence-1-33{fill:#68E1FD;}
	.st1_artificial-intelligence-1-33{fill:#093F68;}
	.st2_artificial-intelligence-1-33{fill:#FFFFFF;}
	.st3_artificial-intelligence-1-33{fill:#FFBC0E;}
</style>
<g id="brain_artificial-intelligence-1-33">
	<path class="st0_artificial-intelligence-1-33 targetColor" d="M241.3,137.2v226.9c0,20.9-16.9,37.8-37.8,37.8c-20.9,0-37.8-16.9-37.8-37.8c0,0,0,0,0,0v-3.2&#10;&#9;&#9;c-1.8,0.2-3.6,0.4-5.5,0.4c-23.9,0-43.2-19.4-43.2-43.3c0-9.3,3-18.3,8.5-25.7c-23-6.6-36.3-30.5-29.8-53.5&#10;&#9;&#9;c4.1-14.4,15.4-25.7,29.8-29.8c-5.5-7.4-8.5-16.4-8.5-25.7c0-23.9,19.4-43.3,43.3-43.3c1.8,0,3.6,0.1,5.5,0.4v-3.2&#10;&#9;&#9;c0-20.9,16.9-37.8,37.8-37.8S241.4,116.3,241.3,137.2L241.3,137.2z" style="fill: rgb(104, 225, 253);"/>
	<path class="st1_artificial-intelligence-1-33" d="M203.5,403.7c-21.9,0-39.6-17.8-39.6-39.6v-1.1c-1.2,0.1-2.4,0.1-3.6,0.1c-24.9,0-45.1-20.2-45.1-45.1&#10;&#9;&#9;c0-8.8,2.5-17.4,7.4-24.7c-23.5-8.2-36-33.9-27.8-57.4c4.5-13,14.8-23.3,27.8-27.8c-4.8-7.3-7.4-15.9-7.4-24.7&#10;&#9;&#9;c0-24.9,20.2-45.1,45.1-45.1c1.2,0,2.4,0,3.6,0.1v-1.2c0-21.9,17.7-39.6,39.6-39.6c21.9,0,39.6,17.7,39.6,39.6c0,0,0,0,0,0v226.9&#10;&#9;&#9;C243.1,386,225.4,403.7,203.5,403.7z M165.7,359.1c1,0,1.8,0.8,1.8,1.8v3.2c0,19.9,16.1,36,36,36s36-16.1,36-36l0,0V137.2&#10;&#9;&#9;c0-19.9-16.1-36-36-36s-36,16.1-36,36v3.2c0,1-0.8,1.8-1.9,1.8c-0.1,0-0.2,0-0.2,0c-1.7-0.2-3.5-0.3-5.2-0.3&#10;&#9;&#9;c-22.9,0-41.4,18.6-41.4,41.4c0,8.9,2.8,17.5,8.1,24.6c0.6,0.8,0.4,2-0.4,2.6c-0.2,0.1-0.4,0.2-0.6,0.3&#10;&#9;&#9;c-22,6.3-34.8,29.2-28.5,51.2c3.9,13.8,14.7,24.6,28.5,28.5c0.6,0.2,1,0.6,1.2,1.2c0.2,0.6,0.1,1.2-0.3,1.7&#10;&#9;&#9;c-5.3,7.1-8.2,15.7-8.1,24.6c0,22.9,18.6,41.4,41.4,41.4c1.7,0,3.5-0.1,5.2-0.3L165.7,359.1z"/>
	<path class="st0_artificial-intelligence-1-33 targetColor" d="M258.7,137.2v226.9c0,20.9,16.9,37.8,37.8,37.8c20.9,0,37.8-16.9,37.8-37.8c0,0,0,0,0,0v-3.2&#10;&#9;&#9;c1.8,0.2,3.6,0.4,5.5,0.4c23.9,0,43.3-19.4,43.3-43.3c0-9.3-3-18.3-8.5-25.7c23-6.6,36.3-30.5,29.8-53.5&#10;&#9;&#9;c-4.1-14.4-15.4-25.7-29.8-29.8c5.5-7.4,8.5-16.4,8.5-25.7c0-23.9-19.4-43.3-43.3-43.3c-1.8,0-3.6,0.1-5.5,0.4v-3.2&#10;&#9;&#9;c0-20.9-16.9-37.8-37.8-37.8C275.6,99.4,258.7,116.3,258.7,137.2C258.7,137.2,258.7,137.2,258.7,137.2L258.7,137.2z" style="fill: rgb(104, 225, 253);"/>
	<path class="st1_artificial-intelligence-1-33" d="M296.5,403.7c-21.9,0-39.6-17.8-39.6-39.6V137.2c0-21.9,17.8-39.6,39.6-39.6c21.9,0,39.6,17.7,39.6,39.6v1.2&#10;&#9;&#9;c1.2-0.1,2.4-0.1,3.6-0.1c24.9,0,45.1,20.2,45.1,45.1c0,8.8-2.5,17.3-7.4,24.7c23.5,8.2,36,33.9,27.8,57.4&#10;&#9;&#9;c-4.5,13-14.8,23.3-27.8,27.8c4.8,7.3,7.4,15.9,7.4,24.7c0,24.9-20.2,45.1-45.1,45.1c-1.2,0-2.4,0-3.6-0.1v1.1&#10;&#9;&#9;C336.1,386,318.4,403.7,296.5,403.7z M296.5,101.2c-19.9,0-36,16.1-36,36v226.8c0,19.9,16.1,36,36,36s36-16.1,36-36l0,0v-3.2&#10;&#9;&#9;c0-0.5,0.2-1,0.6-1.4c0.4-0.3,0.9-0.5,1.5-0.4c1.7,0.2,3.5,0.3,5.2,0.3c22.9,0,41.4-18.6,41.4-41.4c0-8.9-2.8-17.5-8.1-24.6&#10;&#9;&#9;c-0.4-0.5-0.5-1.1-0.3-1.7c0.2-0.6,0.7-1,1.2-1.2c22-6.3,34.8-29.2,28.5-51.2c-3.9-13.8-14.7-24.6-28.5-28.5&#10;&#9;&#9;c-1-0.3-1.6-1.3-1.3-2.2c0.1-0.2,0.2-0.4,0.3-0.6c5.3-7.1,8.2-15.7,8.1-24.6c0-22.9-18.6-41.4-41.4-41.4c-1.7,0-3.5,0.1-5.2,0.3&#10;&#9;&#9;c-1,0.1-1.9-0.6-2.1-1.6c0-0.1,0-0.2,0-0.2v-3.2C332.4,117.4,316.4,101.3,296.5,101.2z"/>
</g>
<g id="neuron_artificial-intelligence-1-33">
	<circle class="st1_artificial-intelligence-1-33" cx="339.1" cy="330.2" r="6.5"/>
	<path class="st1_artificial-intelligence-1-33" d="M339.1,338.5c-4.6,0-8.3-3.7-8.3-8.3c0-4.6,3.7-8.3,8.3-8.3c4.6,0,8.3,3.7,8.3,8.3S343.7,338.5,339.1,338.5&#10;&#9;&#9;L339.1,338.5z M339.1,325.5c-2.6,0-4.7,2.1-4.7,4.7s2.1,4.7,4.7,4.7s4.7-2.1,4.7-4.7C343.8,327.6,341.7,325.5,339.1,325.5&#10;&#9;&#9;L339.1,325.5z"/>
	<circle class="st1_artificial-intelligence-1-33" cx="279.4" cy="327.7" r="6.5"/>
	<path class="st1_artificial-intelligence-1-33" d="M279.4,336.1c-4.6,0-8.3-3.7-8.3-8.3c0-4.6,3.7-8.3,8.3-8.3c4.6,0,8.3,3.7,8.3,8.3&#10;&#9;&#9;C287.7,332.3,284,336.1,279.4,336.1z M279.4,323.1c-2.6,0-4.7,2.1-4.7,4.7s2.1,4.7,4.7,4.7s4.7-2.1,4.7-4.7&#10;&#9;&#9;C284,325.2,281.9,323.1,279.4,323.1L279.4,323.1z"/>
	<circle class="st1_artificial-intelligence-1-33" cx="183.8" cy="342.8" r="6.5"/>
	<path class="st1_artificial-intelligence-1-33" d="M183.8,351.1c-4.6,0-8.3-3.7-8.3-8.3s3.7-8.3,8.3-8.3c4.6,0,8.3,3.7,8.3,8.3&#10;&#9;&#9;C192.1,347.4,188.4,351.1,183.8,351.1z M183.8,338.1c-2.6,0-4.7,2.1-4.7,4.7c0,2.6,2.1,4.7,4.7,4.7c2.6,0,4.7-2.1,4.7-4.7&#10;&#9;&#9;C188.5,340.2,186.4,338.1,183.8,338.1L183.8,338.1z"/>
	<circle class="st1_artificial-intelligence-1-33" cx="150.6" cy="289.8" r="6.5"/>
	<path class="st1_artificial-intelligence-1-33" d="M150.6,298.1c-4.6,0-8.3-3.7-8.3-8.3c0-4.6,3.7-8.3,8.3-8.3c4.6,0,8.3,3.7,8.3,8.3l0,0&#10;&#9;&#9;C158.9,294.4,155.2,298.1,150.6,298.1z M150.6,285.1c-2.6,0-4.7,2.1-4.7,4.7c0,2.6,2.1,4.7,4.7,4.7c2.6,0,4.7-2.1,4.7-4.7&#10;&#9;&#9;C155.2,287.2,153.1,285.1,150.6,285.1L150.6,285.1z"/>
	<circle class="st1_artificial-intelligence-1-33" cx="119.2" cy="247" r="6.5"/>
	<path class="st1_artificial-intelligence-1-33" d="M119.2,255.3c-4.6,0-8.3-3.7-8.3-8.3c0-4.6,3.7-8.3,8.3-8.3s8.3,3.7,8.3,8.3c0,0,0,0,0,0&#10;&#9;&#9;C127.5,251.6,123.8,255.3,119.2,255.3z M119.2,242.3c-2.6,0-4.7,2.1-4.7,4.6c0,2.6,2.1,4.7,4.6,4.7s4.7-2.1,4.7-4.6c0,0,0,0,0,0&#10;&#9;&#9;C123.9,244.4,121.8,242.3,119.2,242.3L119.2,242.3z"/>
	<circle class="st1_artificial-intelligence-1-33" cx="152.3" cy="189.3" r="6.5"/>
	<path class="st1_artificial-intelligence-1-33" d="M152.3,197.6c-4.6,0-8.3-3.7-8.3-8.3s3.7-8.3,8.3-8.3c4.6,0,8.3,3.7,8.3,8.3v0&#10;&#9;&#9;C160.6,193.9,156.9,197.6,152.3,197.6z M152.3,184.6c-2.6,0-4.7,2.1-4.7,4.7c0,2.6,2.1,4.7,4.7,4.7c2.6,0,4.7-2.1,4.7-4.7&#10;&#9;&#9;C156.9,186.7,154.8,184.6,152.3,184.6L152.3,184.6z"/>
	<circle class="st1_artificial-intelligence-1-33" cx="186.1" cy="148.1" r="6.5"/>
	<path class="st1_artificial-intelligence-1-33" d="M186.1,156.4c-4.6,0-8.3-3.7-8.3-8.3c0-4.6,3.7-8.3,8.3-8.3s8.3,3.7,8.3,8.3c0,0,0,0,0,0&#10;&#9;&#9;C194.4,152.6,190.6,156.4,186.1,156.4z M186.1,143.4c-2.6,0-4.7,2.1-4.7,4.6s2.1,4.7,4.6,4.7c2.6,0,4.7-2.1,4.7-4.6c0,0,0,0,0,0&#10;&#9;&#9;C190.7,145.5,188.6,143.4,186.1,143.4L186.1,143.4z"/>
	<path class="st1_artificial-intelligence-1-33" d="M339.6,329.6c-0.8,0-1.5-0.5-1.7-1.2l-15.6-43.2H288c-1,0-1.8-0.8-1.8-1.8c0-1,0.8-1.8,1.8-1.8h35.5&#10;&#9;&#9;c0.8,0,1.5,0.5,1.7,1.2l16,44.4c0.3,0.9-0.1,2-1.1,2.3c0,0,0,0,0,0C340,329.5,339.8,329.6,339.6,329.6z"/>
	<path class="st2_artificial-intelligence-1-33" d="M210.5,207h80c2,0,3.6,1.6,3.6,3.6v80.1c0,2-1.6,3.6-3.6,3.6h-80c-2,0-3.6-1.6-3.6-3.6v-80.1&#10;&#9;&#9;C206.9,208.6,208.5,207,210.5,207z"/>
	<path class="st1_artificial-intelligence-1-33" d="M287.5,296.1h-74c-4.7,0-8.5-3.8-8.5-8.5v-74c0-4.7,3.8-8.5,8.5-8.5h74c4.7,0,8.5,3.8,8.5,8.5v74&#10;&#9;&#9;C296,292.4,292.2,296.1,287.5,296.1z M213.5,208.8c-2.7,0-4.8,2.2-4.8,4.8v74c0,2.7,2.2,4.8,4.8,4.8h74c2.7,0,4.8-2.2,4.8-4.8v-74&#10;&#9;&#9;c0-2.7-2.2-4.8-4.8-4.8H213.5z"/>
	<path class="st1_artificial-intelligence-1-33" d="M224,221.8H277c1.3,0,2.4,1.1,2.4,2.4v52.9c0,1.3-1.1,2.4-2.4,2.4H224c-1.3,0-2.4-1.1-2.4-2.4v-52.9&#10;&#9;&#9;C221.6,222.9,222.7,221.8,224,221.8z"/>
	<path class="st1_artificial-intelligence-1-33" d="M275,281.4h-49c-3.4,0-6.2-2.8-6.2-6.2v-48.9c0-3.4,2.8-6.2,6.2-6.2h49c3.4,0,6.2,2.8,6.2,6.2v49&#10;&#9;&#9;C281.2,278.6,278.4,281.4,275,281.4z M226,223.6c-1.4,0-2.6,1.1-2.6,2.6v48.9c0,1.4,1.1,2.6,2.6,2.6c0,0,0,0,0,0h49&#10;&#9;&#9;c1.4,0,2.6-1.1,2.6-2.6v-49c0-1.4-1.1-2.6-2.6-2.6L226,223.6z"/>
	<path class="st1_artificial-intelligence-1-33" d="M327.9,225.5h-32.5c-1,0-1.8-0.8-1.8-1.8s0.8-1.8,1.8-1.8h31.4l14.5-23.8c0.5-0.9,1.7-1.1,2.5-0.6&#10;&#9;&#9;c0.9,0.5,1.1,1.7,0.6,2.5l-15.1,24.7C329.1,225.2,328.5,225.5,327.9,225.5z"/>
	<circle class="st1_artificial-intelligence-1-33" cx="346.2" cy="194.9" r="6.5"/>
	<path class="st1_artificial-intelligence-1-33" d="M346.2,203.3c-4.6,0-8.3-3.7-8.3-8.3c0-4.6,3.7-8.3,8.3-8.3c4.6,0,8.3,3.7,8.3,8.3l0,0&#10;&#9;&#9;C354.5,199.5,350.8,203.3,346.2,203.3z M346.2,190.3c-2.6,0-4.7,2.1-4.7,4.7s2.1,4.7,4.7,4.7c2.6,0,4.7-2.1,4.7-4.7&#10;&#9;&#9;C350.9,192.4,348.8,190.3,346.2,190.3L346.2,190.3z"/>
	<circle class="st1_artificial-intelligence-1-33" cx="313.8" cy="154.5" r="6.5"/>
	<path class="st1_artificial-intelligence-1-33" d="M313.8,162.9c-4.6,0-8.3-3.7-8.3-8.3c0-4.6,3.7-8.3,8.3-8.3c4.6,0,8.3,3.7,8.3,8.3l0,0&#10;&#9;&#9;C322.1,159.1,318.4,162.9,313.8,162.9z M313.8,149.9c-2.6,0-4.7,2.1-4.7,4.7s2.1,4.7,4.7,4.7c2.6,0,4.7-2.1,4.7-4.7&#10;&#9;&#9;C318.4,152,316.3,149.9,313.8,149.9L313.8,149.9z"/>
	<circle class="st1_artificial-intelligence-1-33" cx="352.6" cy="267.1" r="6.5"/>
	<path class="st1_artificial-intelligence-1-33" d="M352.6,275.4c-4.6,0-8.3-3.7-8.3-8.3c0-4.6,3.7-8.3,8.3-8.3c4.6,0,8.3,3.7,8.3,8.3&#10;&#9;&#9;C360.9,271.7,357.2,275.4,352.6,275.4z M352.6,262.4c-2.6,0-4.7,2.1-4.7,4.7s2.1,4.7,4.7,4.7s4.7-2.1,4.7-4.7&#10;&#9;&#9;C357.3,264.5,355.2,262.4,352.6,262.4L352.6,262.4z"/>
	<circle class="st1_artificial-intelligence-1-33" cx="365.6" cy="241.6" r="6.5"/>
	<path class="st1_artificial-intelligence-1-33" d="M365.6,249.9c-4.6,0-8.3-3.7-8.3-8.3c0-4.6,3.7-8.3,8.3-8.3c4.6,0,8.3,3.7,8.3,8.3c0,0,0,0,0,0&#10;&#9;&#9;C373.9,246.1,370.2,249.9,365.6,249.9z M365.6,236.9c-2.6,0-4.7,2.1-4.7,4.6s2.1,4.7,4.6,4.7s4.7-2.1,4.7-4.6c0,0,0,0,0,0&#10;&#9;&#9;C370.2,239,368.2,236.9,365.6,236.9L365.6,236.9z"/>
	<path class="st1_artificial-intelligence-1-33" d="M352.6,268.9h-58.4c-1,0-1.8-0.8-1.8-1.8c0-1,0.8-1.8,1.8-1.8h58.5c1,0,1.8,0.8,1.8,1.8&#10;&#9;&#9;C354.5,268.1,353.6,268.9,352.6,268.9L352.6,268.9z"/>
	<path class="st1_artificial-intelligence-1-33" d="M279.4,208.8c-1,0-1.8-0.8-1.8-1.8v-29.3c0-0.6,0.3-1.2,0.9-1.6l34.4-21.2c0.8-0.6,2-0.3,2.5,0.5&#10;&#9;&#9;s0.3,2-0.5,2.5c0,0-0.1,0-0.1,0.1l-33.5,20.6V207C281.2,208,280.4,208.8,279.4,208.8C279.4,208.8,279.4,208.8,279.4,208.8z"/>
	<path class="st1_artificial-intelligence-1-33" d="M221.6,208.8c-0.3,0-0.6-0.1-0.9-0.2L186,190.1c-0.6-0.3-1-0.9-1-1.6v-40.4c0-1,0.8-1.8,1.8-1.8&#10;&#9;&#9;s1.8,0.8,1.8,1.8l0,0v39.3l33.8,18c0.9,0.5,1.2,1.6,0.8,2.5C222.9,208.4,222.3,208.8,221.6,208.8L221.6,208.8z"/>
	<path class="st1_artificial-intelligence-1-33" d="M191.1,225.8c-8.2,0-20.5-0.1-38.9-0.3c-1,0-1.8-0.8-1.8-1.8v-32.9c0-1,0.8-1.8,1.8-1.8s1.8,0.8,1.8,1.8v31.1&#10;&#9;&#9;c20.1,0.2,49.1,0.4,52.1,0.1c0.2-0.1,0.4-0.1,0.6-0.1c1,0,1.8,0.8,1.8,1.8c0,0.5-0.2,1-0.6,1.3&#10;&#9;&#9;C207.7,225.4,207.3,225.8,191.1,225.8z"/>
	<path class="st1_artificial-intelligence-1-33" d="M204.3,248.8h-83c-1,0-1.8-0.8-1.8-1.8s0.8-1.8,1.8-1.8h83c1,0,1.8,0.8,1.8,1.8S205.3,248.8,204.3,248.8z"/>
	<path class="st1_artificial-intelligence-1-33" d="M362.8,245.2h-68.6c-1,0-1.8-0.8-1.8-1.8s0.8-1.8,1.8-1.8h68.6c1,0,1.8,0.8,1.8,1.8S363.8,245.2,362.8,245.2z"/>
	<path class="st1_artificial-intelligence-1-33" d="M152.3,289.6c-1,0-1.8-0.8-1.8-1.8c0-0.4,0.1-0.8,0.4-1.1l15.4-20.6c0.3-0.4,0.8-0.7,1.4-0.7&#10;&#9;&#9;c24.9-1.6,38.5-1.5,40.5,0.3c0.4,0.4,0.7,1,0.7,1.6c0,1-0.8,1.8-1.8,1.8c-0.5,0-1-0.2-1.4-0.7c-3.1-0.9-20.7-0.4-36.8,0.6l-14.9,20&#10;&#9;&#9;C153.4,289.3,152.8,289.6,152.3,289.6z"/>
	<path class="st1_artificial-intelligence-1-33" d="M182.2,342.5c-1,0-1.8-0.8-1.8-1.8c0,0,0,0,0,0v-57.3c0-1,0.8-1.8,1.8-1.8c0,0,0,0,0,0h24.7&#10;&#9;&#9;c1,0,1.8,0.8,1.8,1.8c0,1-0.8,1.8-1.8,1.8H184v55.5C184,341.6,183.2,342.5,182.2,342.5z"/>
	<path class="st1_artificial-intelligence-1-33" d="M279.4,322.2c-1,0-1.8-0.8-1.8-1.8v-26.1c0-1,0.8-1.8,1.8-1.8c1,0,1.8,0.8,1.8,1.8v26.1&#10;&#9;&#9;C281.2,321.4,280.4,322.2,279.4,322.2L279.4,322.2z"/>
	<path class="st3_artificial-intelligence-1-33" d="M246.9,236.1h-15.6c-1,0-1.8-0.8-1.8-1.8s0.8-1.8,1.8-1.8h15.6c1,0,1.8,0.8,1.8,1.8S247.9,236.1,246.9,236.1&#10;&#9;&#9;L246.9,236.1z"/>
</g>
</svg>