<?xml version="1.0" encoding="UTF-8"?>
<svg id="Layer_2" data-name="Layer 2" xmlns="http://www.w3.org/2000/svg" viewBox="0 0 183.84 115.84">
  <defs>
    <style>
      .cls-1 {
        fill: #333;
        stroke-width: 0px;
      }
    </style>
  </defs>
  <g id="_1dff4cb4-53bd-4ffc-acc1-5e8a2ceb72de" data-name="1dff4cb4-53bd-4ffc-acc1-5e8a2ceb72de">
    <path class="cls-1" d="M21.86,70.42c22.33-18.23,56.11-21.48,72.94-44.9,7-9.73,11.93-23.4,23.73-25.52l.35,24.9,37.79-3.88c-5.83,16.42,8.48,32.23,17.08,47.38,6.34,11.21,9.81,23.81,10.09,36.68-13.12,7.88-29.39-.72-44-5.31-14.2-4.46-29.29-4.92-44.17-5.34-7.63-.22-15.35-.42-22.8,1.25-6.53,1.47-12.64,4.34-18.82,6.93-10.05,4.21-41.79,20.09-51.13,9.85-10.58-11.61,10.32-35,18.94-42.04Z"/>
  </g>
</svg>