<?xml version="1.0" encoding="UTF-8"?>
<svg id="Layer_2" data-name="Layer 2" xmlns="http://www.w3.org/2000/svg" xmlns:xlink="http://www.w3.org/1999/xlink" viewBox="0 0 306.06 658.47">
  <defs>
    <style>
      .cls-1 {
        fill: url(#linear-gradient);
        stroke-width: 0px;
      }

      .cls-2 {
        opacity: .7;
      }
    </style>
    <linearGradient id="linear-gradient" x1="320.63" y1="-119.19" x2="320.63" y2="539.28" gradientTransform="translate(-167.6 539.28) scale(1 -1)" gradientUnits="userSpaceOnUse">
      <stop offset="0" stop-color="gray" stop-opacity=".25"/>
      <stop offset=".54" stop-color="gray" stop-opacity=".12"/>
      <stop offset="1" stop-color="gray" stop-opacity=".1"/>
    </linearGradient>
  </defs>
  <g id="_1dff4cb4-53bd-4ffc-acc1-5e8a2ceb72de" data-name="1dff4cb4-53bd-4ffc-acc1-5e8a2ceb72de">
    <g class="cls-2">
      <path class="cls-1" d="M182.39,353.19l-.59-.14v-22.6c46.64-11.52,81.95-49.69,89.79-97.09h.29c5.77,0,10.44-8.77,10.44-19.58,0-6.71-1.8-12.62-4.54-16.15.41-4.13.62-8.32.63-12.57.04-34.17-13.92-66.87-38.62-90.49-1.68-8.36-4.67-16.39-8.87-23.81-8.9-15.68-23.71-32-17.67-49l-39.1,4-.36-25.76c-12.2,2.19-17.31,16.33-24.55,26.4-17.41,24.22-52.35,27.59-75.46,46.45-7.85,6.41-25.51,25.9-22.19,38.68-15.53,21.37-23.88,47.11-23.84,73.53,0,4.24.21,8.43.63,12.57-2.74,3.53-4.54,9.44-4.54,16.15,0,10.82,4.68,19.58,10.44,19.58h.29c7.84,47.4,43.15,85.57,89.79,97.09v22.6l-.59.14c-13.46-1.57-149.3-11.94-119.51,211.46l18.27,67.36,4.07-.16c1.25,15.81,15.08,27.62,30.89,26.37,12.15-.96,22.37-9.48,25.5-21.26,25.87-.09,55.09-.17,70-.17s44.18.09,70,.17c3.99,15.35,19.67,24.57,35.02,20.58,11.9-3.09,20.52-13.42,21.42-25.69l4.07.16,18.27-67.36c29.93-223.4-105.92-213.03-119.38-211.46Z"/>
    </g>
  </g>
</svg>