<?xml version="1.0" encoding="UTF-8"?>
<svg id="Layer_2" data-name="Layer 2" xmlns="http://www.w3.org/2000/svg" viewBox="0 0 202.9 91.36">
  <defs>
    <style>
      .cls-1 {
        fill: #333;
        stroke-width: 0px;
      }
    </style>
  </defs>
  <g id="_1dff4cb4-53bd-4ffc-acc1-5e8a2ceb72de" data-name="1dff4cb4-53bd-4ffc-acc1-5e8a2ceb72de">
    <path class="cls-1" d="M18.05,67.45c6.16,3.73,13.4,5.2,20.53,6.18,29.74,4.06,60.02.66,88.11-9.9,4.6,11.66,15.83,19.67,27.77,23.48s24.69,4,37.22,4.15c2.76,0,5.72,0,8-1.53,5.58-3.77,2.88-12.4-.37-18.3l-16.17-29.32c-4.78-8.66-9.7-17.5-17.1-24.06-9.28-8.21-21.6-12.06-33.75-14.49-28.72-5.71-58.37-4.72-86.64,2.89C15.43,14.71-23.39,42.36,18.05,67.45Z"/>
  </g>
</svg>