<?xml version="1.0" encoding="UTF-8"?>
<svg id="_1dff4cb4-53bd-4ffc-acc1-5e8a2ceb72de" data-name="1dff4cb4-53bd-4ffc-acc1-5e8a2ceb72de" xmlns="http://www.w3.org/2000/svg" version="1.1" xmlns:xlink="http://www.w3.org/1999/xlink" viewBox="0 0 864.8 658.5">
  <defs>
    <style>
      .cls-1 {
        fill: #e47f7f;
      }

      .cls-1, .cls-2, .cls-3, .cls-4, .cls-5, .cls-6, .cls-7, .cls-8, .cls-9, .cls-10, .cls-11, .cls-12, .cls-13, .cls-14, .cls-15, .cls-16, .cls-17, .cls-18, .cls-19, .cls-20, .cls-21, .cls-22, .cls-23, .cls-24, .cls-25, .cls-26, .cls-27, .cls-28, .cls-29, .cls-30, .cls-31, .cls-32, .cls-33, .cls-34, .cls-35, .cls-36, .cls-37, .cls-38, .cls-39, .cls-40, .cls-41, .cls-42, .cls-43, .cls-44, .cls-45, .cls-46, .cls-47, .cls-48, .cls-49, .cls-50, .cls-51, .cls-52, .cls-53, .cls-54, .cls-55, .cls-56, .cls-57, .cls-58, .cls-59, .cls-60, .cls-61, .cls-62, .cls-63, .cls-64, .cls-65, .cls-66, .cls-67, .cls-68, .cls-69, .cls-70, .cls-71, .cls-72, .cls-73, .cls-74, .cls-75, .cls-76, .cls-77, .cls-78, .cls-79, .cls-80, .cls-81, .cls-82, .cls-83, .cls-84, .cls-85, .cls-86, .cls-87, .cls-88, .cls-89, .cls-90, .cls-91, .cls-92, .cls-93, .cls-94, .cls-95, .cls-96, .cls-97, .cls-98, .cls-99, .cls-100, .cls-101, .cls-102, .cls-103, .cls-104, .cls-105, .cls-106, .cls-107, .cls-108, .cls-109, .cls-110, .cls-111, .cls-112, .cls-113, .cls-114, .cls-115, .cls-116, .cls-117, .cls-118, .cls-119, .cls-120, .cls-121, .cls-122, .cls-123, .cls-124, .cls-125, .cls-126, .cls-127, .cls-128, .cls-129, .cls-130 {
        stroke-width: 0px;
      }

      .cls-2 {
        fill: #fee9c0;
      }

      .cls-3 {
        fill: #fdf4e1;
      }

      .cls-4 {
        fill: #f88866;
      }

      .cls-5 {
        fill: #3c3c3c;
      }

      .cls-6 {
        fill: #343434;
      }

      .cls-7 {
        fill: #8b5a32;
      }

      .cls-8 {
        fill: #a166fe;
      }

      .cls-9 {
        fill: #c34450;
      }

      .cls-10 {
        fill: #f88a68;
      }

      .cls-11 {
        fill: #f88c1d;
      }

      .cls-12 {
        fill: #face81;
      }

      .cls-13 {
        fill: #fcbe76;
      }

      .cls-14 {
        fill: url(#linear-gradient);
      }

      .cls-15 {
        fill: #fabc5c;
      }

      .cls-16 {
        fill: #fbe4b3;
      }

      .cls-17 {
        fill: #fbcc7b;
      }

      .cls-18 {
        fill: #fcfcfc;
      }

      .cls-19 {
        fill: #25303f;
      }

      .cls-20 {
        fill: #24303f;
      }

      .cls-21 {
        fill: #e0e0e0;
      }

      .cls-22 {
        fill: #fad89a;
      }

      .cls-23 {
        fill: #e34235;
      }

      .cls-24 {
        fill: #fef3de;
      }

      .cls-25 {
        fill: #fde7b9;
      }

      .cls-26 {
        fill: #f88b1c;
      }

      .cls-27 {
        fill: #fcc772;
      }

      .cls-28 {
        fill: #f88a69;
      }

      .cls-29 {
        fill: #f88967;
      }

      .cls-30 {
        fill: #eeeff0;
      }

      .cls-31 {
        fill: #dcdcdc;
      }

      .cls-32 {
        fill: #f89b2b;
      }

      .cls-33 {
        fill: #f78765;
      }

      .cls-34 {
        fill: #f88b69;
      }

      .cls-35 {
        fill: #a51a23;
      }

      .cls-36 {
        fill: #fcd4b5;
      }

      .cls-37 {
        fill: #fbb083;
      }

      .cls-38 {
        fill: #c2c1c0;
      }

      .cls-39 {
        fill: #ed8d86;
      }

      .cls-40 {
        fill: #fdeece;
      }

      .cls-41 {
        fill: #fac369;
      }

      .cls-42 {
        fill: #fef5e4;
      }

      .cls-43 {
        fill: #fdedcb;
      }

      .cls-44 {
        fill: #fab14e;
      }

      .cls-45 {
        fill: #fbdea6;
      }

      .cls-46 {
        fill: #fabb59;
      }

      .cls-47 {
        fill: #fde7ba;
      }

      .cls-48 {
        fill: #f8f8f9;
      }

      .cls-131 {
        opacity: .7;
      }

      .cls-49 {
        fill: #fdddac;
      }

      .cls-50 {
        fill: #b41f24;
      }

      .cls-51 {
        fill: #fee0ac;
      }

      .cls-52 {
        fill: #6b6564;
      }

      .cls-53 {
        fill: #fa8668;
      }

      .cls-54 {
        fill: #fce4b4;
      }

      .cls-55 {
        fill: #fabc5b;
      }

      .cls-56 {
        fill: #eaeced;
      }

      .cls-57 {
        fill: #a066fe;
      }

      .cls-58 {
        fill: #fbc56c;
      }

      .cls-59 {
        fill: #fba68c;
      }

      .cls-60 {
        fill: #e3e3e3;
      }

      .cls-61 {
        fill: #d96d77;
      }

      .cls-62 {
        fill: #fab34b;
      }

      .cls-63 {
        fill: #faa73b;
      }

      .cls-64 {
        fill: #252f3e;
      }

      .cls-65 {
        fill: #fad899;
      }

      .cls-66 {
        fill: #f7c0ba;
      }

      .cls-67 {
        fill: #ddd;
      }

      .cls-68 {
        fill: #ec7164;
      }

      .cls-69 {
        fill: #000;
        isolation: isolate;
        opacity: .1;
      }

      .cls-70 {
        fill: #fce7ba;
      }

      .cls-71 {
        fill: #faa153;
      }

      .cls-72 {
        fill: #fef0d6;
      }

      .cls-73 {
        fill: #fac9bc;
      }

      .cls-74 {
        fill: #55198b;
      }

      .cls-75 {
        fill: #fa8867;
      }

      .cls-76 {
        fill: #c3292a;
      }

      .cls-77 {
        fill: url(#linear-gradient-2);
      }

      .cls-78 {
        fill: #fa9e55;
      }

      .cls-79 {
        fill: #dedede;
      }

      .cls-80 {
        fill: #e1e1e1;
      }

      .cls-81 {
        fill: #fcdea3;
      }

      .cls-82 {
        fill: #e56961;
      }

      .cls-83 {
        fill: #fcd0ba;
      }

      .cls-84 {
        fill: url(#linear-gradient-3);
      }

      .cls-85 {
        fill: #face80;
      }

      .cls-86 {
        fill: #feeece;
      }

      .cls-87 {
        fill: #fcedcc;
      }

      .cls-88 {
        fill: #85827c;
      }

      .cls-89 {
        fill: #fddead;
      }

      .cls-90 {
        fill: #f09288;
      }

      .cls-91 {
        fill: #f90;
      }

      .cls-92 {
        fill: #3a3a3a;
      }

      .cls-93 {
        fill: #eaa5ad;
      }

      .cls-94 {
        fill: #333;
      }

      .cls-95 {
        fill: #fcd792;
      }

      .cls-96 {
        fill: #fa925e;
      }

      .cls-97 {
        fill: #fcca73;
      }

      .cls-98 {
        fill: #faae4b;
      }

      .cls-99 {
        fill: #232f3e;
      }

      .cls-100 {
        fill: #ea4736;
      }

      .cls-101 {
        fill: #fbce7f;
      }

      .cls-102 {
        fill: #e4e4e4;
      }

      .cls-103 {
        fill: #f7672b;
      }

      .cls-104 {
        fill: #fee0ad;
      }

      .cls-105 {
        fill: #cf4f55;
      }

      .cls-106 {
        fill: #c3c1c0;
      }

      .cls-107 {
        fill: #faad44;
      }

      .cls-108 {
        fill: #fdf5e2;
      }

      .cls-109 {
        fill: #fbb082;
      }

      .cls-110 {
        fill: #d83830;
      }

      .cls-111 {
        fill: #f75437;
      }

      .cls-112 {
        fill: #f9a435;
      }

      .cls-113 {
        fill: #253140;
      }

      .cls-114 {
        fill: #fa935d;
      }

      .cls-115 {
        fill: #f37968;
      }

      .cls-116 {
        fill: #24303e;
      }

      .cls-117 {
        fill: #c2c1c1;
      }

      .cls-118 {
        fill: #c1bfbf;
      }

      .cls-119 {
        fill: #d3565a;
      }

      .cls-120 {
        fill: #fcd184;
      }

      .cls-121 {
        fill: #f87722;
      }

      .cls-122 {
        fill: #c0bfbf;
      }

      .cls-123 {
        fill: #fefefe;
      }

      .cls-124 {
        fill: #f0f1f2;
      }

      .cls-125 {
        fill: #fac064;
      }

      .cls-126 {
        fill: #fcdfa6;
      }

      .cls-127 {
        fill: #f0b3b3;
      }

      .cls-128 {
        fill: #edabb0;
      }

      .cls-129 {
        fill: #4d4d4d;
      }

      .cls-130 {
        fill: #fbd591;
      }
    </style>
    <linearGradient id="linear-gradient" x1="477" y1="-119.2" x2="477" y2="539.2" gradientTransform="translate(-167.6 539.2) scale(1 -1)" gradientUnits="userSpaceOnUse">
      <stop offset="0" stop-color="gray" stop-opacity=".2"/>
      <stop offset=".5" stop-color="gray" stop-opacity=".1"/>
      <stop offset="1" stop-color="gray" stop-opacity=".1"/>
    </linearGradient>
    <linearGradient id="linear-gradient-2" x1="309.4" y1="37" x2="309.4" y2="199" gradientTransform="translate(0 660) scale(1 -1)" gradientUnits="userSpaceOnUse">
      <stop offset="0" stop-color="gray" stop-opacity=".2"/>
      <stop offset=".5" stop-color="gray" stop-opacity=".1"/>
      <stop offset="1" stop-color="gray" stop-opacity=".1"/>
    </linearGradient>
    <linearGradient id="linear-gradient-3" x1="773.4" y1="111" x2="773.4" y2="273" gradientTransform="translate(0 660) scale(1 -1)" gradientUnits="userSpaceOnUse">
      <stop offset="0" stop-color="gray" stop-opacity=".2"/>
      <stop offset=".5" stop-color="gray" stop-opacity=".1"/>
      <stop offset="1" stop-color="gray" stop-opacity=".1"/>
    </linearGradient>
  </defs>
  <g>
    <path class="cls-42" d="M782.1,107.1c1.4-1.9,3.1-3.4,5-4.7,1-.7,2.1-.8,2.9,0,3.9,4,8.3,7.6,10.5,13.1.2.6.6,1.3.5,1.9-.6,3.3,1.4,5.5,3.3,7.7,3.7,4.2,5.8,8.7,4.4,14.6-.5,2,.5,4,2,5.4,2.1,1.9,3,4.2,3.2,6.8.2,3.5.3,7.1-.2,10.7-.5,4-.5,8.1-.7,12.1-.1,4.8.6,10-1.2,14.2-3,6.9-3.2,14-4,21.2-.7,6.2-4.1,11.7-7,17.2-3.6,7-7.7,13.7-11.9,20.4-2.1,3.4-4.6,6.7-7.5,9.6-2,2-4.7,3.4-7.4,4.4,1.7-3.5.7-7.9,3.4-11.1.5-.9,1.4-1.4,2.3-1.9,2-1,3.6-2.5,5.3-3.9,4.2-3.1,6.8-7.1,6.9-12.6,0-1.6.9-2.8,1.7-4.1.1-.2.3-.4.5-.6,3.7-2.9,4.9-6.6,4.9-11.3,0-4.6,0-9.3.8-13.8.2-1.2.4-2.3,1.1-3.3.7-.9,1.6-1.5,2.6-2.1,1.8-.8,2.5-2.3,2.7-4.2.6-5.9.7-11.8,1.1-17.6.5-8,.8-16.1,1.4-24.1.1-1.2.1-2.5,0-3.7-.1-1.2-.6-2.2-1.8-2.7-1.9-.7-3.1-2.1-3.8-4-.4-1.3-1.5-2.2-2.5-3.1-1.8-1.5-2.5-3.4-2.4-5.7,0-1.3,0-2.7,0-4,.5-4.9-.6-6.6-5.2-8.5-1.6-.6-3.3-1.3-4.9-1.8-.2,0-.5-.2-.7-.3-3.9-1.3-3.9-1.3-3.7-5.6,0-1.8.1-3.5-1.8-4.5Z"/>
    <path class="cls-89" d="M698.1,136c1.4-1.8,2.9-1.9,4.7-.6,2.5,1.8,5,3.5,7.6,5.3,2.5,1.7,3.9,1.3,5.1-1.3,2.3-4.7,4.4-9.5,6.6-14.2,1.7-3.7,2.7-4.2,6.8-3.4.7.2,1.5.3,2.2.4,1,1.1.9,2.5.7,3.8-.6,4.1-.4,8.3-.3,12.4-.2,1-.8.9-1.5.6-1-.4-1.9-1-2.8-1.6-2.9-1.7-4-1.4-5.5,1.5-2.3,4.5-4.5,9.1-6.8,13.6-.7,1.3-1.4,2.7-2.8,3.4-1.7.5-3.1-.5-4.5-1-3.2-1.2-6.1-3-9.7-3.1-.3,0-.4-.3-.5-.5,0-5.1.2-10.2.8-15.3Z"/>
    <path class="cls-49" d="M723.6,239.5c-3,2.4-5.5,5.5-8.5,7.9-1.6,1.3-2.7,1.4-4.3,0-5.2-4.7-10.5-9.3-15.6-14.2-1.9-1.8-3.7-.6-5.6-.8-1.1,0-1.4-.8-1.5-1.6-.3-2.6-.7-5.3.7-7.8,2.3-1.6,4.7-1.7,7.2-.3,5.3,3.6,10.7,7,15.9,10.7,1.6,1.1,3.1,1.1,4.4-.3,1.8-1.9,3.8-3.7,5.5-5.8,1-1.3,2-2.7,3.7-3.3,1,0,2,0,1.7,1.5-2.1,1.7-1.9,4.1-1.9,6.4,0,2.6.4,5.4-1.7,7.5Z"/>
    <path class="cls-83" d="M689.1,223.1c-.6,2.2-.5,4.5-.5,6.8,0,1,.2,2,1,2.7-4.8,1.4-9.8,2-14.7,3,0,0-.2,0-.2,0-5.5,2.5-9.9.3-14.2-2.9-2.3-1.7-4.7-3.4-7.3-4.6-1.3-2.5-.9-5.1-.3-7.6.2-.9,1-1.5,1.9-1.7,1.1-.2,2.1.3,3.1.8.7.4,1.4.8,2.2,1.2,4.9,2.9,9.7,5,15.7,3.3,3.4-1,7-.9,10.6-1.3,1-.1,2-.4,2.8.4Z"/>
    <path class="cls-129" d="M478.7,232.7c0,13.7,0,27.3,0,41,0,2,.5,2.4,2.5,2.4,99.7,0,199.4,0,299.1-.1,2.7,0,5.4-.9,7.9.8-2.1,0-3.9,2.3-6.3.4-.4-.3-1.1,0-1.7,0-99.6,0-199.2,0-298.8,0-2.3,0-2.9.7-2.7,2.8.1,1,.3,2.1-.3,3.2-1.1-.4-.7-1.4-.7-2.1,0-3.8,0-3.8-3.7-3.9-.6,0-1.2,0-1.7-.2-.1,0-.2-.2-.4-.6,1.2-.7,2.4-.4,3.6-.3,1.8.2,2.4-.4,2.4-2.3,0-13.1,0-26.1,0-39.2,0-.7,0-1.3,0-2,.4-.3.7-.3,1,0Z"/>
    <path class="cls-52" d="M580.7,210c-.6-1.2-1.2-2.4-.3-3.7,1.5-1.9,3-1.5,4.5,1.3,1.5,1.8,3.5,2.9,5.4,4.1,3.7,2.8,7.8,5.1,11.5,7.9,1.5,1.7,3.2.8,4.9.6,1.3,0,1.9-.8,2.5-1.8,1.5-2.5,3-5,4.4-7.5.7-1.3,1.3-2.6,1.4-4.2.2-2.4,2.8-3.9,4.5-2.4,3.1,2.8,7.1,3,10.7,4.5,4.2,1.5,8,.9,11.4-2.1,2.2-1.9,4.4-3.7,6.7-5.6,1.9-1.7,4-3.2,5.9-4.9,1.3-1.1,2.5-2.2,3.1-4,.5-1.7,2-2,3.7-1.6.3.1.6.4.9.6,1.2,4,4.8,5.5,8,6.8,1.8.7,4.7.9,6.9-.4,6.2-3.6,12.4-7.3,18.6-11,.9-.5,1.4-1.4,1.9-2.2,1.1-1.7,2.5-2.4,4.4-1.3,1.4,2.2,3.5,3.3,6,4.2,3,1,5.5.5,7.5-2,1.9-2.4,3.9-4.7,5.8-7.1,1-1.3,1.9-2.6,2.2-4.4.3-2.4,2.7-3.2,4.8-1.8.7.5,1.3,1.3,2.3,1.3,1,0,2,0,2.9.2,3.4.9,6.6,0,9.7-1,.6,0,1.2.2,1.7-.2,3.1-2.7,7.1-4.5,9-8.6.5-1.2,1.4-2,2.8-2.1,1.8.2,2.8,1.4,3,3.1.2,1.3.9,2.3,1.8,3.1,2.6,2.6,5.2,5.3,7.9,7.9,2.4,1.1,4.8,1.9,7.3.3,1.2-.8,2.6-1.3,3.7-2.3,1.3-.9,2.7-1.5,4.1-2.3,1.8-.9,3.2-2.2,3.8-4.2.8-1,1.8-1.4,3.1-.9.8,1.1-.5,1.1-.8,1.6-1.2.8-.6,1.8-.3,2.7,0,.4-.3.6-.6.8-.8.3-1.7.5-2.5,1.1-2.6,1.6-5.3,3.1-7.9,4.6-1.8,1-3.6,1.9-4.7,3.8-.9,1.4-2.4,2-4.1,1-.3-.2-.8-.5-.9-.9-.9-3.6-4-5.6-6.3-8.1-1.3-1.4-2.6-2.7-4-4-.8-.8-1.7-1.3-2.8-1.3-1.5-.4-2.6.1-3.8,1.2-1.6,1.5-3.4,2.9-5.1,4.3-1,.9-1.7,2-2.2,3.2-1,2.3-2.7,2.8-4.8,1.3-1-.7-2.1-1-3.2-1.1-2.4-.6-4.9-.2-7.4-.6-1.4-.2-2.3,1.2-3.6,1.4-1.2,0-2,.6-2.7,1.5-2.4,3-4.8,5.9-7.2,8.9-.5.7-.9,1.4-.9,2.3,0,1.7-.4,3-2.2,3.4-1.9.4-3.2-.3-4-2.1-2.4-2-5-3-8.3-3-3.2,0-5.8,1-8.3,2.8-6.4,4.3-14,6.9-19.2,12.8-1.9.4-2.7-.8-3.9-2-2.9-2.9-5.9-5.7-10.5-5.6-1.7,0-2.7,1.1-3.9,1.9-4.3,3.7-8.7,7.3-13.2,10.9-1.2,1-2.1,2-2.3,3.6-.7,1.4-1.7,2.3-3.4,2.2-.5,0-1-.2-1.3-.6-3.6-4.1-8.9-3.8-13.5-5.4-1.4-.5-3,.6-4.5,1-1.8,2.2-2.9,4.8-4.4,7.2-1.4,2.2-2.9,4.4-3.8,6.9-.4,1.1-1.2,1.8-2.3,1.9-1,0-1.8-.2-2.4-.9-3.2-4.2-8-6.2-12.3-9-2.9-1.9-5.3-4.3-8.3-6-.5.1-1,.3-1.5.4-.4-.4-1.1,0-1.4-.5Z"/>
    <path class="cls-43" d="M747.1,112.6c2.4-3.8,5.2-7.4,8.2-10.9,1.1-1.3,2.7-1.6,3.9-.1,3.3,4.1,7.4,7.6,10.4,12,.8,1.4,1.4,2.8,1.1,4.4-.4,2.2-.2,4.3.5,6.4-1.9,1.4-3.4-.6-5.1-.8-2.1-.9-4.2-1.9-6.4-2.7-3.5-1.3-4.2-1.1-6.5,1.9-.4.5-.8,1-1.2,1.6-.7.9-1.3,1.7-2.5,2-1.7.2-2.1-.9-2.2-2.3,0-2.2-.2-4.4.2-6.6.3-1.8.2-3.4-.5-5Z"/>
    <path class="cls-36" d="M698.1,136c.6,1,.7,2.1.5,3.1-.9,4.1,0,8.4-1,12.5,0,1.6-1.6,1.9-2.4,2.8-6.3,4.4-12.6,8.8-18.9,13.2-1,.6-1.9,1.6-3.3.9-.4-.4-.8-.9-.8-1.5,0-3.2-.3-6.5.9-9.6,4-3.6,8-7.2,12-10.7,3.9-3.4,7.7-6.7,11.6-10.1.4-.3.9-.5,1.3-.7Z"/>
    <path class="cls-25" d="M747.1,112.6c2.7.7,1.6,2.9,1.4,4.3-.5,2.5-.1,5-.3,7.4-.1,1.6.7,1.8,2,1.7.3,1.2-.6,1.8-1.2,2.6-2.7,3.8-5.7,7.4-8.5,11.1-2,2.6-2.7,2.8-6,1.9-1.2-.7-2.7-1.2-3.4-2.6-1-3.6-.6-7.2-.3-10.8.2-2,.2-4.1.3-6.1,1.6.2,3.3,0,4.9.6,1.8.6,3,0,4.1-1.3,2.3-2.9,4.7-5.9,7-8.8Z"/>
    <path class="cls-73" d="M673.1,157.5c-.1,2.6.3,5.2-.4,7.9-.3,1.1.2,2.3.9,3.2-.6,2.1-2.2,1.6-3.6,1.4-2.8-.4-5.5-1-8.2-1.7-2.6-.7-4.5,0-5.9,2.2-.6,1-1.4,1.9-2.2,2.7-2.5,3.3-5.1,6.4-7.6,9.7-.7,1-1.4,2-2.7,2.5-2.1-.1-2-2-2.4-3.3,2.6-4.8,6.1-9,9.1-13.6,2-3.1,4.5-5.8,6.2-9,1.7-3.2,4.2-3.1,6.9-2.7,3.3.5,6.5,1.1,9.9.8Z"/>
    <path class="cls-47" d="M723.6,239.5c1.9-3.9.4-8.1,1.4-12.1.3-1.3.8-1.9,2.1-1.8,1.1,0,1.3.9,1.6,1.6.5.9.9,2,1.3,3,.8,2.3,2.2,3.8,4.7,4.1,3.5,1.4,7.2,1.9,10.7,3.3.4.3,1,.5.6,1.2-2.1,1.1-1.7,3.2-2.1,5-.3,1.2,0,2.5-.3,3.7-.2,1.5-.7,2.8-2.6,2.6-3.5-1-7.2-1.8-10.6-3.2-2.3-1-3.2-3.8-4.9-5.8-.6-.7-1-1.5-2.1-1.6Z"/>
    <path class="cls-128" d="M628.6,227.5c-2.8-1.1-5.6-2.2-8.3-3.4-2.1-1-3.6-.7-4.9,1.3-2.1,3.4-4.4,6.7-6.6,10-1.7,2.6-3.6,2.7-5.5.3-6.3-8-12.6-16.1-18.9-24.1-.2-.3-.3-.7-.5-1.1,1.6.1,2.4,1.5,3.5,2.4,2,1.8,3.9,3.8,5.8,5.7,1.8,1.7,3.3,3.7,5.4,5.1.8.6,1.5,1.4,2.3,2.1.9.9,1.8,1.9,2.8,2.8,1.7,1.6,2.3,1.5,3.8-.2.6-.8,1.2-1.6,1.8-2.4,1.8-2.6,3.5-5.3,5.3-7.9,1.5-2.1,3.1-2.7,5.4-2,3.2,1,6.2,2.3,9.4,3.4.7.3,1.4.6,1.5,1.5-.3,1.4-.6,2.7-.7,4.2,0,1-.4,2-1.6,2.3Z"/>
    <path class="cls-40" d="M741.1,250.1c1.2-.5,2-1.3,2-2.6-.1-2.2.5-4.4.5-6.6,0-1.9.8-2.5,2.5-2.3,1.5-.7,2.1.5,2.7,1.4,2.1,3,4.5,5.9,6.6,8.9,1.6,2.3,3.4,4.5,5,6.8,1,1.5,2.2,2.4,4.2,1.7.4-.2,1-.2,1.2.5-1.3,2.3-1.8,4.9-2,7.5,0,1-.4,1.9-1.1,2.7-1.4.2-2.3-.5-3.2-1.5-3.7-4.3-7.6-8.4-11.3-12.8-1.9-2.3-4.7-2.5-7-3.7Z"/>
    <path class="cls-93" d="M590.1,212.1c-1.3-.8-2.5-1.5-3.8-2.3-.8-.5-1.4-1.1-1.3-2.2,3.5-.4,6.9.5,10.4.6,1.2,0,2.3.2,3.5.3,2.1.2,3.2-.7,3.9-2.7,2.1-6.3,4.3-12.6,6.5-18.8,1.5-4.4,2.2-4.7,6.5-2.8.3.1.6.2.9.4,1.5,2.2.8,4.5.7,6.8-.9.6-1.8,0-2.6-.2-2.4-.7-3.2-.3-4,2.3-1.7,5.7-3.3,11.5-5,17.3-.4,1.5-.8,3.1-1.4,4.5-1.1,2.5-2.7,3.1-5.2,1.9-3.2-1.5-6.1-3.4-9.1-5.2Z"/>
    <path class="cls-66" d="M628.6,227.5c.7-.9,1.2-1.9,1-3.1-.2-1.3.2-2.4,1-3.4.1,0,.3-.3.4-.2,6.8,1.2,13.2-1.7,19.8-2.4,1.1-.1,2.1-.5,3.2-.3.6.2,1.2.3,1.1,1.1-1.6.6-2.1,1.7-2,3.3,0,1.9,0,3.8,0,5.7-5.6.5-11.2.9-16.8,1.6-2.9.3-5.3-.8-7.7-2.1Z"/>
    <path class="cls-108" d="M771.1,124.6c-1.3-1.6-1.9-3.3-1.1-5.4.7-1.8-.4-3.7-.4-5.6,2.8,2.2,2.9,2,5.6-.2,2.4-2,4.4-4.4,6.9-6.3,1.9-.3,2.7.4,2.5,2.4-.2,1.8-.4,3.7-.3,5.4.1,2.4,3.4.2,4.3,2.1-3.3,1-6.3,2.7-9.3,4.5-1.6,1-3.3,1.9-5,2.8-1,.5-2.1,1.2-3.2.2Z"/>
    <path class="cls-127" d="M617.1,191.5c-.7-2.2,0-4.6-.5-6.9,4.8,1.9,9.6,3.7,14.2,5.8,2.4,1.1,3.7.2,5.1-1.6,1.8-2.3,3-4.9,5.1-7,1.6.4.4,3.1,2.5,3,.4,1-.5,1.5-.9,2.1-2.2,3-4.6,5.9-7,8.9-1.4,1.4-3.1,1.2-4.8.7-4.1-1.3-8.1-2.7-12.2-4.1-.6-.2-1.2-.5-1.6-1.1Z"/>
    <path class="cls-129" d="M477.7,228.5c0-16.9,0-33.8,0-50.7,0-27.7,0-55.4,0-83.2,0-2.6-1.5-5.1,0-7.7.2-.3.2-.8.7-1,.3,1.1.7,2.2,1,3.3.2,1,1.1,2.1-.4,3-.6.4-.2,1.4-.2,2.1,0,44.7,0,89.4,0,134.1-.3.4-.7.4-1,0Z"/>
    <path class="cls-3" d="M762.6,268c.3-2.4.7-4.7,1-7.1.2-1.4,1.3-2.3,2-3.4.2-1.6,1.8-1.7,2.8-2.5,3-1.5,5.7-3.5,8.7-4.8.4,0,.7,0,1,.3-1.6,2.1-2.3,4.4-2,7.1.2,1.6-1.3,2.6-2,3.9-3.7,2.4-7.4,4.9-11.5,6.5Z"/>
    <path class="cls-9" d="M600.5,226.1c-.8-.5-1.4-1.1-2-1.9-1.8-1.7-3.4-3.6-5.4-5.1-3-2.8-6-5.6-9.1-8.5-.1-.2-.3-.3-.4-.5,2.6.5,4.4,2.3,6.3,3.9.7.6,1.3,1.2,2.1,1.6,3.8,2.7,7.4,5.8,11,8.8,1,.9,2,1.7,3.5,1.3,1.1-.3,1.8-.9,2.1-2.1.8-2.5,2.2-4.7,3.9-6.7,1,.9.7,2,.6,3.1-1,2.4-2.7,4.4-4,6.6-.5.5-.7,1.1-1.1,1.6-1.3,1.8-2.9,1.9-4.6.4-1-.9-1.7-2-2.9-2.5Z"/>
    <path class="cls-122" d="M505.2,235.5c3.4-6.2,6.7-12.4,9.6-18.9.8-.2,1.3-.1,1.4.9-3.4,6.2-7,12.4-9.6,19-.9.2-1.2-.3-1.4-1Z"/>
    <path class="cls-118" d="M542.7,233.5c2.6-.3,3.7-2.5,5.1-4.3,2.5-3.2,5.5-6,7.5-9.6.8,0,1.3.5,1.3,1.4-2.9,2.4-4.8,5.6-7.2,8.3-1.4,1.5-2.6,3.2-3.8,4.8-1,.2-2,.2-2.8-.6Z"/>
    <path class="cls-118" d="M518.5,216.1c3,4.7,7,8.6,10.4,12.9.3.3.5.7.8,1,.3.8-.2,1-.9,1-3.7-4.8-7.3-9.5-11.6-13.7.1-.8.5-1.2,1.3-1.2Z"/>
    <path class="cls-34" d="M576,220.6c.7,1.1,1,2.2,0,3.2-.9.8-1.9.9-2.9,0-.6-.6-1.4-.4-2.2-.2,1.6-.5,1.5-2.5,2.9-3.1.8,0,1.6-.5,2.3.2Z"/>
    <path class="cls-38" d="M480.8,231c3.1,2.7,5.6,6.1,9.4,8.2-.1.8-.5,1.3-1.4,1.3-2.9-2.8-5.3-6.2-9-8-.1-.8.4-1.1,1-1.4Z"/>
    <path class="cls-118" d="M576,220.6c-.8,0-1.6-.1-2.3-.2,1.1-.4,1.8-1.1,2.4-2.2,1.4-2.8,2.7-5.7,4.6-8.2.5,0,1.1,0,1.4.5-1,.1-1.2,1-1.6,1.7-1.5,2.8-3,5.6-4.6,8.4Z"/>
    <path class="cls-10" d="M528.8,231.1c.3-.3.6-.7.9-1,1.9-.6,2.9.3,3.3,2.1.5.5-.2.7-.3.9-.8.8-1.7,1.3-2.8.7-1.1-.6-1.3-1.6-1-2.7Z"/>
    <path class="cls-10" d="M518.5,216.1c-.4.4-.9.8-1.3,1.2-.4,0-.7,0-1.1.1-.5-.3-.9-.6-1.4-.9-.5-1.6-.3-3.2,1.6-3.4,1.7-.1,2.4,1.1,2.1,2.8Z"/>
    <path class="cls-10" d="M567.7,224.7c-.2,1.2-.7,2.2-2,2.3-1.4.1-2.1-.7-2.3-2.1-.2-1.5.8-1.9,1.9-1.9,1.2,0,2,.7,2.3,1.7Z"/>
    <path class="cls-29" d="M556.6,221c-.4-.5-.9-.9-1.3-1.4-.2-1.6.4-2.6,2.2-2.6,1.3,0,2,.9,2,2.1,0,1.8-1.3,2.1-2.8,1.9Z"/>
    <path class="cls-10" d="M488.7,240.5c.5-.4.9-.8,1.4-1.3,1.1-.4,1.8.3,2.5.9.5.4.3.9.2,1.4-.3,1.5-1.3,1.9-2.6,1.6-1.5-.3-1.7-1.4-1.5-2.7Z"/>
    <path class="cls-4" d="M505.2,235.5c.5.3.9.7,1.4,1,.3,1.1.4,2.2-.8,2.9-1.2.7-2.2,0-3.1-.8-.3-.3-.3-.7,0-1.1.3-1.4,1.2-2.1,2.6-2Z"/>
    <path class="cls-28" d="M542.7,233.5c1,.1,2-.2,2.8.6.3,1.4.3,2.7-1.3,3.2-1.4.4-2.3-.3-2.6-1.8-.2-.5-.4-1,.2-1.4.3-.2.7-.4,1-.7Z"/>
    <path class="cls-33" d="M480.8,231c-.3.5-.7.9-1,1.4-.3,0-.7.1-1,.2-.3,0-.7,0-1,0-1.4-1.3-1.4-2.7,0-4,.3,0,.7,0,1,0,1.5.2,2,1.2,2,2.6Z"/>
    <path class="cls-117" d="M502.6,237.5c0,.4,0,.7,0,1.1-3.2,1.4-6.7,1.5-9.8,3,0-.5-.1-1-.2-1.4,3.3-.9,6.6-1.7,9.9-2.6Z"/>
    <path class="cls-106" d="M541.7,234.1c0,.5-.1.9-.2,1.4-2.9-1.2-5.8-1.9-8.9-2.5.1-.3.2-.6.3-.9,3,.2,5.8,1.3,8.7,2Z"/>
    <path class="cls-92" d="M582.5,140.1v5.2c0,0-.2,0-.3,0v-5.3c0,0,.2,0,.3,0Z"/>
    <path class="cls-92" d="M582.5,172.6v5.2c0,0-.2,0-.3,0v-5.3c0,0,.2,0,.3,0Z"/>
    <path class="cls-5" d="M582.5,237.6v5.1c0,0-.2,0-.2,0v-5.1c0,0,.2,0,.2,0Z"/>
    <path class="cls-92" d="M582.5,183.5v5.3c0,0-.2,0-.3,0v-5.3c0,0,.2,0,.3,0Z"/>
    <path class="cls-92" d="M582.2,253.6v-5.3c0,0,.2,0,.3,0v5.3c0,0-.2,0-.3,0Z"/>
    <path class="cls-5" d="M582.5,107.6v5.1c0,0-.2,0-.3,0v-5.2c0,0,.2,0,.3,0Z"/>
    <path class="cls-92" d="M582.3,221.2v-5.3c0,0,.1,0,.2,0v5.3c0,0-.1,0-.2,0Z"/>
    <path class="cls-94" d="M582.5,96.9v5c0,0-.1,0-.2,0v-5c0,0,.1,0,.2,0Z"/>
    <path class="cls-94" d="M582.3,231.6v-4.9c0,0,.2,0,.2,0v5.1c0,0-.2-.1-.2-.2Z"/>
    <path class="cls-94" d="M582.3,118.4c.4,1.7.3,3.3,0,5-.4-1.7-.3-3.3,0-5Z"/>
    <path class="cls-94" d="M582.5,129.4v4.9c0,0-.1,0-.2,0v-4.8c0,0,.1,0,.2,0Z"/>
    <path class="cls-6" d="M582.4,150.8c.4,1.7.3,3.4,0,5-.4-1.7-.3-3.4,0-5Z"/>
    <path class="cls-94" d="M582.2,166.7v-4.9c.5,1.6.4,3.3,0,4.9Z"/>
    <path class="cls-94" d="M582.2,199.3v-4.9c0,0,.1,0,.2,0v4.8c0,0-.1,0-.2,0Z"/>
    <path class="cls-94" d="M582.2,264.3v-4.9c0,0,.1,0,.2,0v4.8c0,0-.1,0-.2.1Z"/>
    <path class="cls-94" d="M582.5,270.4v4.9c0,0-.2,0-.2,0v-5c0,0,.2,0,.2,0Z"/>
    <path class="cls-72" d="M779.1,121.1c3-1.7,5.6-4.3,9.5-4,1.6,0,3.1.8,4.5,1.5,2,1,2.7,2.5,2.4,4.7-.4,2.6,0,5.2-.3,7.7-.1,1.6.9,2.4,2,3.2,2.4,1.7,4.8,3.3,4.8,6.8,0,1.2,1.1,1.5,2,1.9,4.3,1.8,4.7,2.4,4.1,7.2-.5,3.8-.5,7.6-.7,11.4-.4,10.5-1.4,21.1-1.6,31.6,0,1.8-.5,3.4-2.2,4.5-.7.5-1.3,1-2,1.5-3.9,2-4.2,5.7-4.2,9.4,0,4.2-.8,8.4-.6,12.6.1,2.8-.9,5-2.7,7h0c-.7.6-1.2,1.4-2,1.9-3.7,2.1-4.5,5.5-4.4,9.3,0,2.4-.6,4.4-2.7,5.8-1.3,1.8-3.1,2.9-5,4,1.1-4.6.3-9.6,1.9-14.1.1-.3.3-.6.5-.9,1.6-1.8,3.9-2.4,5.8-3.7,1.7-.9,2.5-2.4,2.6-4.2.5-5.9.9-11.9,1-17.9,0-2.4.2-4.7,1.8-6.6,3.9-1.5,4.9-4.5,4.9-8.5,0-4.5.5-8.9.7-13.4.5-8.3.8-16.6,1.4-24.8.2-2.6,0-5.2.2-7.7.1-1.5-.8-1.8-2.1-1.6-1.2.2-2.2.7-3.4.9-1.7.4-2.7-.4-3-2.1-.2-1.4-.1-2.8,0-4.2.7-4.9-.2-6-5.3-6.4-1.1,0-2.1.2-3.2.5-2.2.6-3.4-.4-3.3-2.7.1-2.2,0-4.5.2-6.7.2-1.8-.2-3.1-1.9-3.8Z"/>
    <path class="cls-108" d="M803.6,197.6c1.2-1.5,1.5-3.2,1.5-5.1.4-10.7.8-21.5,1.6-32.2.3-4.3.1-8.6.9-12.9.4-2.4-1-3.6-3.2-3.7-2.4,0-3.6-1.1-3.3-3.5.2-1.9-.7-3.1-2.3-4-1.1-.7-2.3-1.3-3.3-2.2-.9-.8-1.3-1.4-1-2.7.5-3.1-.1-6.3.5-9.4.3-1.2-1.2-2.1-1.9-3.1,4.8,1,6.7,3.9,6.1,8.7-.3,2.2,0,4.5,0,6.7,0,.8.5,1.4,1.1,1.9,1.7,1.8,3.9,3.3,4.4,6.1.2,1.2,1.6,1.5,2.5,1.8,1.9.8,2.6,2.1,2.5,4.1-.5,7.7-1.1,15.5-1.5,23.2-.2,3.6-.4,7.3-.5,10.9,0,3.6-.6,7.3-.7,10.9,0,2.2-1.1,4-3.4,4.6Z"/>
    <path class="cls-24" d="M794.1,228.1c2-3.1,2-6.6,2.1-10.2,0-4.9.5-9.8,1-14.8.2-2.5,2.4-3.3,4.5-4-1.3,1.9-1.3,4.2-1.4,6.2,0,3.9-.9,7.8-.5,11.6.4,5-1.7,8.4-5.6,11.1Z"/>
    <path class="cls-24" d="M785.1,245.1c1.6-1.9,2.2-4.1,2-6.6-.4-5.2,2.6-8.3,7-10.3-1.7,2.4-1.2,5.3-2,8-1.2,3.9-3.2,7.1-7,9Z"/>
    <path class="cls-86" d="M783.1,234.1c-1.2,2.2-1.5,4.5-1.5,6.9,0,2.8,0,5.6-1.5,8.1-.7.4-1.6.6-2,1.5-.3,0-.7,0-1,0,.8-4.3,1-8.6,1.5-12.9.1-1,.7-1.8,1.3-2.6.3-.3.6-.6.9-.8.7-.3,1.5-.7,2.3-.1Z"/>
    <path class="cls-13" d="M695.1,154c.5-1.2,2-1.3,2.5-2.4,3.4-1.3,5.9,1.3,8.9,2.2,1.9.5,3.5,1.9,5.6,1.8,2,1.4,1.2,3.4,1,5.2-.1,1.6-.3,3.1.4,4.6-.7,3.2-1.9,3.7-6,2.4-2-.4-3.9-1.2-5.9-1.8-1.8-.5-3.5-.9-5.2.3-.6.4-1.5.9-2.1-.2-.7-4.1-.3-8.1.9-12.1Z"/>
    <path class="cls-97" d="M713.1,165.6c-1-1.3-1.1-2.6-.7-4.2.5-1.9.6-3.9-.3-5.9,3.1-4,4.7-8.8,7.1-13.1.8-1.5,1.5-3.1,2.4-4.7,1.3-2.4,2.5-2.8,4.9-1.5,1.6.9,3.1,1.9,4.7,2.8,1.2.7,2.3,1.4,3.5,2.1,1.2,2.2.8,4.6.6,6.9-1.1,1.1-2.3.6-3.5.4-1.4-.2-2.8-.6-4.2-.7-.6,0-1.2,0-1.7-.2-2-.6-3.4.3-4.2,2.1-1.9,4.1-3.8,8.1-5.7,12.2-.6,1.4-.8,3.3-2.7,3.8Z"/>
    <path class="cls-27" d="M725.1,224.6c-2.7,3.2-5.6,6.3-8.6,9.3-1.5,1.5-2.9,1.5-4.6.4-5.2-3.6-10.5-7.1-15.8-10.7-1.2-2.6-.4-5.1.4-7.5,1-.7,1.9-.2,2.8.2,1.8.8,3.5,1.8,5.4,2.6,1.8.7,3.4,1.6,5.2,2.4,2.5,1.2,3.6,1,5.4-1.1,2-2.4,4.2-4.7,6.1-7.1,1-.8,1.6-2.2,2.7-2.8,1-.6,2.3-1.6,2.9.6-1,1.3-1.3,2.8-1.3,4.4,0,3.1-.5,6.2-.7,9.4Z"/>
    <path class="cls-37" d="M697.1,216.1c-.7,2.4-1,5-1,7.5-2.2-1.8-4.6-.8-7-.5-6,.7-11.9,1.4-17.9,2.2-1.8.3-3.4.2-5-.7-3.7-1.9-7.4-3.7-11.1-5.6-.2-.4-.6-.5-1-.6-.7-1-.7-1.9.2-2.7,1.1-.5,2.1,0,3.1.2,2.7.8,5.4,1.8,8,2.8,2.3.9,4.5,1,6.8.2,5.6-1.4,11.3-2.5,16.9-4,1.4-.3,2.9-.7,4.3-.9,1.6-.2,3.1,0,3.7,1.9Z"/>
    <path class="cls-120" d="M725.1,224.6c-.8-1.4-.7-3-.4-4.4.4-2.2.4-4.4.4-6.7,0-1.3.2-2.7,2-3,1.6,0,2.4,1.4,3.4,2.3,1.4,1.3,2.7,2.7,4.1,4,1,1.2,2.5,2,2.5,3.8-.4,3.4-.7,6.7-.7,10.1,0,1.4,0,3-1.7,3.9-2.3-.1-3.9-.9-4.7-3.3-.7-1.9-1.3-4.1-2.7-5.7-.2-1.3-1.2-.9-2-1Z"/>
    <path class="cls-41" d="M763.6,172.5c1.8,1.7,3.5,3.4,5.3,5.1,1.1,1.1.3,3,1.7,3.9,0,2.9-.2,5.8-.4,8.7-.4,6.1-.7,12.2-1,18.3,0,.9-.3,1.8-.6,2.7-.5,1.5-1.8,2.2-3.2,2.8-1.9.5-3.2-.2-3.9-2-.8-2-2-4-1.6-6.3.6-1.2.8-2.5.9-3.9.4-8.8.8-17.5,1.5-26.3,0-1.1,0-2.4,1.3-3Z"/>
    <path class="cls-75" d="M661.6,191.6c-.2-.1-.3-.3-.5-.4-1.4-.8-3.1-1.2-3.6-3.1.4-4,.1-8.1.6-12.1.9-1.4,2.1-.6,3.1-.2,2.2.9,4.4,1.9,6.6,3,2.3,1.2,4.4,1.5,6.5-.3.4-.4,1-.6,1.6-.6.3.1.5.3.6.6.6,2.1.5,4.3.2,6.4-.3,2.7-.3,5.4-.6,8.1-2.6,4.2-6.4,5.1-10.2,2.3-1.5-1.1-3-2.4-4.3-3.7Z"/>
    <path class="cls-85" d="M768.1,211.6c.6-5.3.7-10.6,1.1-15.8.3-4.4,0-8.8.9-13.1,0-.4.3-.7.5-1.1,1.8.6,3.1.2,4-1.7.8-1.8,2.9-2.2,4.5-3.1,1.2,1.5.9,3.4.7,5.1-.7,7.5-.6,15.1-1.4,22.7,0,.5,0,1-.2,1.5-.6,1.8-2.4,2.2-3.7,3.1-1.3.6-2.4,1.4-3.7,2-.8.4-1.7,1.2-2.7.5Z"/>
    <path class="cls-22" d="M777.6,206.6c.5-9.9,1-19.9,1.5-29.8,2.7-1.5,5.3-3.1,8-4.6,1.2,1.5.8,3.2.7,4.8-.7,7.4-.7,14.9-1.4,22.4-.1,1.3,0,2.7-.7,3.9-.1.3-.3.5-.5.7-2,.6-3.9,1.3-5.7,2.4-.5.4-1.2.7-1.9.3Z"/>
    <path class="cls-105" d="M606.5,220.6c-1.8,1-3.4,1.3-4.9-.5,2-1.2,2.8-3,3.4-5.2,1.5-5.9,3.2-11.8,4.9-17.8,1.4-4.9,2.9-5.6,7.5-3.6.6.3,1.2.6,1.8.9,2.8,1.5,5.6,2.8,8.4,4.3,1,.5,2,.9,2.4,2,.3,2,.2,4,.4,6,0,.3-.2.5-.4.6-1.2.5-2.3-.1-3.4-.4-3.2-.9-6.2-2.4-9.4-3-2.7-.5-3.2,0-4.3,2.5-1.5,3.6-3,7.2-4.5,10.8-.5,1.2-.8,2.5-1.9,3.4Z"/>
    <path class="cls-107" d="M756.6,162.1c-1.4.4-2.4,1.1-2.5,2.7,0,.6-.3.9-.7,1.3-2.9,2.4-5.9,4.8-8.8,7.3-.4.3-.7.3-1.1-.1-.3-3.4-.3-6.9.1-10.3.2-1.6.5-3.3-.4-4.8-.7-1,.1-1.7.6-2.4,1.8-2.4,3.6-4.8,5.4-7.2,2.6-2.8,4.8-2.7,7.1.3.6.8,1.2,1.6,1.3,2.6.2,3.6.1,7.1-1.1,10.6Z"/>
    <path class="cls-11" d="M710.1,191.1c.3,1.8,1.6,2.2,3.2,1.9,1.6-.3,2.2-1.6,1.8-3-.3-1,0-1.5.6-2.2,2.8-3.3,5.5-6.7,8.2-10.1.6-.8,1.2-1.4,2.3-.7.7.7.8,1.7.6,2.6-.6,3.2-.2,6.4-.7,9.6,0,2.2-1.6,3.6-2.6,5.2-1.7,2.2-3.1,4.5-4.6,6.8-1.4,2.2-3.3,3-5.7,2.3-1.8-.5-4.1-.2-5.2-2.2-.2-2.8.4-5.6.7-8.4,0-.9.3-1.9,1.6-1.8Z"/>
    <path class="cls-15" d="M763.6,172.5c-1.1,2.2-.8,4.6-.9,6.8-.2,4.2-.7,8.4-.7,12.6,0,3.8-.8,7.6-.5,11.4,0,1.1-.4,2.1-1.5,2.7-2-1.8-2.1-4.5-3.2-6.7-.5-2.3-2-4.2-2.7-6.4.2-7.5,1-15.1,1.1-22.6,0-1.2.2-2.3,1.2-3.2,1-.3,1.9-.1,2.6.7,1.4,1.6,2.9,3.1,4.4,4.6Z"/>
    <path class="cls-62" d="M756.6,167.2c-.7,5.1-.6,10.2-1,15.3-.3,3.7-.3,7.4-1,11.1-1.5,2.1-4.1,1.6-6.1,2.6-.9,0-2,.8-2.7-.4,0-4.8.6-9.6.8-14.3,0-1.9.3-3.8.3-5.7,0-1.1,0-2.2.8-3.1,1.7-1.5,3.5-2.9,5.1-4.5,1.2-1.1,2.3-1.8,3.8-1Z"/>
    <path class="cls-51" d="M785.1,203.6c.6-4.4.9-8.9,1-13.4.2-6,.6-12.1,1-18.1.7-.6,1.4-1.2,2.5-1,1.4.4,2.7-1.5,4.2-.4.8,1.4.7,2.9.5,4.4-.7,7.9-.8,15.8-1.4,23.7-.1,1.4-.2,2.8-1.4,3.8-2,1-4,2-6.4.9Z"/>
    <path class="cls-63" d="M747.6,172.7c0,7.1-.7,14.2-1,21.2,0,.7-.3,1.4-.5,2.2-1.9,1.5-4.2,1.6-6.4.4-.9-.5-1.6-1.1-2.3-1.8-.7-1.2-2.8-1.5-2.3-3.5,1.4-3,1.2-6.2,1.3-9.4,0-2-.2-4,1.2-5.7,1.4-.1,2.5.2,3.5,1.3,1.3,1.4,3.5.8,3.8-1.1.3-1.8,1.4-2.7,2.7-3.6Z"/>
    <path class="cls-26" d="M730.1,174c-1,.3-1.5-.3-2-1.1-.8-1.1-2-1.2-3.1-.7-1,.4-1.5,1.4-1.3,2.4.3,1.1-.3,1.7-.8,2.4-2.6,3.1-5.1,6.3-7.7,9.4-1.6,2-4.6,2.8-7,1.8-.5-.2-1-.5-1.6-.7-2.3-.7-4.3-1.7-5.1-4.1-.3-.3-.3-.7,0-1.1,1.9-.6,3.4.9,5.1,1.1,2.7.8,3.3.7,4.6-1.9,1.9-3.6,3.9-7.2,5.7-10.8,2-4.1,3-4.5,7.5-3.8.9.1,1.8.2,2.7.3,1,.2,1.9.4,2.7,1,1.1,1.8,1.3,3.6.1,5.5Z"/>
    <path class="cls-121" d="M710.1,191.1c-1.8,2.1-.8,4.8-1.4,7.1-.3,1.1.1,2.3-.5,3.3-.3.3-.7.4-1.1.4-2-.3-3.9-.8-5.8-1.3-2.5-.7-5.1-1.7-7.8-.7-.6.2-1.2.1-1.6-.5-.8-3-.5-5.9.8-8.7.5-.3,1-.6,1.5-.9,1.9-1.1,3.7-1.6,6-1.9,3.3-.5,5.6.9,8.3,1.8.7.2,1.7.3,1.7,1.5Z"/>
    <path class="cls-12" d="M780.7,174.1c-1.8,1.1-3.6,2.2-5.4,3.3-.8.5-5.5-.7-6.2-1.5-.8-1.3-.3-2.8-.2-4.1.5-3.4.4-6.9.3-10.3,0-.4.2-.8.5-1.1,2.6-1.9,5.5-3.2,8.3-4.7.6-.4,1.4-.6,2.1,0,.9.7,1,1.6.9,2.7-.4,3.7,0,7.4-.6,11.1-.3,1.5,0,3.1.3,4.7Z"/>
    <path class="cls-103" d="M701.6,182.6c0,.3,0,.6,0,1-2-.7-3.5-.2-4,2-.2.8-.7,1.1-1.2,1.4-6.7,4-13.5,7.9-20.2,11.9-.8.5-1.4.7-2.3.1-.4-.3-1-.4-1.4-.3-4.7,1.5-6.7-3-10.1-4.4-.7-.3-.1-1.9-.8-2.7,2,.6,3.5,2.2,5.1,3.5,2.2,1.8,4,2,6.2.2.8-.7,1.8-1.1,2.7-1.7.5-1,1.4-1.6,2.3-2.1,4.6-2.7,9-5.6,13.6-8.4.8-.5,1.5-.9,2.3-1.4,2.9-1.7,5.1-1.4,7.8,1Z"/>
    <path class="cls-125" d="M769.5,161.1c1,2,.5,4.2.5,6.3,0,2.9-.6,5.7-.9,8.5-3.1-3.1-6.3-6.1-9.4-9.2-.4-.4-.7-.9-.6-1.5.2-1.9-.9-2.7-2.5-3.2.2-3.7.3-7.3.5-11,.5-.3.9,0,1.3.3,2.4,2.1,4.4,4.7,6.5,7.1,1.3,1.5,2.6,2.6,4.7,2.6Z"/>
    <path class="cls-65" d="M780.7,174.1c-1.1-.1-1.2-1-1.1-1.8.3-4.8.4-9.5.8-14.3,0-1.1-.5-1.7-.9-2.4-.2-.4,0-.7.4-1,1.6-1.1,3.3-2.1,4.9-3.3.8-.6,1.7-1.3,2.9-.8,1.2.9,1,2.2,1.1,3.4.3,3.8-.5,7.5-.5,11.3,0,.8-.2,1.6.2,2.4,0,2-1.1,3-2.8,3.8-1.7.8-3.3,1.8-4.9,2.7Z"/>
    <path class="cls-68" d="M636.6,214.6c1.5,0,2.3-.9,3-2,.3-.7.9-1.2,1.5-1.6,3.5-2.5,7-5.1,10.5-7.6.8-.6,1.8-1.8,2.9-.3-.2,4.3.3,8.7-1.2,12.9-.4.5-.9.7-1.5.8-5,1-9.9,2.2-14.9,3.1-.6.1-1.2.1-1.7-.1-1.2-1.3-.5-2.6-.1-3.9.3-.7.8-1.1,1.5-1.3Z"/>
    <path class="cls-32" d="M737.6,176c-1,4.5,0,9.2-1,13.7-.2,1-.4,1.8-1.5,1.8-1.7.1-2.5-1.4-3.7-2.2-2.5-1.8-2.5-1.9-4.9,0-.3.2-.6.3-.9.2,0-2.9-.1-5.8.2-8.6.1-1.3.2-2.6.3-3.9,3.6-2.9,7.6-1.4,11.5-1Z"/>
    <path class="cls-111" d="M655.1,198.1c3.4-3.2,5.6-3.4,9.4-.8,2.4,1.6,5.4,2.6,6.6,5.7.4,1,1.6.7,2.5.7.9,1,.7,2.1.4,3.2-.2.5-.7.9-1.2,1.2-2.5,1.5-4.8,1.1-7.3-.2-3.6-2-7.4-3.7-10.8-6-.5-1.3-.3-2.6.4-3.7Z"/>
    <path class="cls-112" d="M730.1,174c-.2-1.8.4-3.7-.5-5.4.2-.3.5-.5.8-.5,3.7,1,5.3-1.5,7-4,.2-.3.4-.5.6-.8,1.8-1.8,2.6-4.5,5.1-5.7,1.6.1,1.5,1.3,1.4,2.4-.3,3.9-.6,7.7-.5,11.6,0,.5-.3,1.1-.5,1.6-.6,0-1.4-.2-1.7,0-2.7,2.6-5.8,1.1-8.8,1-1,0-2-.2-3-.2Z"/>
    <path class="cls-103" d="M673.6,207c0-1.1,0-2.3,0-3.4,4.8-6.5,12.7-8.6,19-12.9,0,3-.8,5.9-.5,8.9-.1,1.4-1.4,1.2-2.2,1.7-4.5,1.8-8.9,3.6-13.4,5.4-.9.4-1.8.9-2.8.4Z"/>
    <path class="cls-104" d="M788.5,167.6c-.6.2-1,.2-.9-.6.2-2.2,0-4.4.3-6.7.4-2.8.2-5.6.2-8.4,0-.6-.4-1.1-1-1.3-.2-.3-.1-.6,0-.8,1.4-1.4,3.2-2.1,4.9-2.9,2.3-1,3.8,0,3.6,2.6-.3,2.7-.2,5.5-.4,8.2-.2,2.8-.4,5.6-.5,8.4,0,1.2-.2,2.5-1.1,3.5-1.7-.2-1.2-2-2.1-2.9-1.2-.2-2.2,0-3,.9Z"/>
    <path class="cls-119" d="M635.6,215.6c0,1.3-.7,2.6-.5,4-1,1-2.2.5-3.3.2-3.9-1.1-7.9-2.1-11.7-3.4-2.8-1-3.7-.5-5.4,2-.6.8-.8,2-2.1,2.3,0-1.2,0-2.4,0-3.6,1.1-2.6,2.7-4.9,4.1-7.4,1.5-.2,2.9.3,4.3.8,4.8,1.8,9.7,3.5,14.6,5.2Z"/>
    <path class="cls-50" d="M606.5,220.6c1.8-5.6,4.3-10.9,6.6-16.3.9-2.1,3-1.3,4.6-.8,4.1,1.2,8.2,2.5,12.4,3.7.7.8.7,1.5,0,2.3-2.5-.8-5.1-1.6-7.6-2.3-.9-.2-1.7-.5-2.2-1.4-.7-1.4-2-1.5-3.2-1.1-1.4.5-1.8,1.7-1.4,3,.2.8,0,1.3-.4,1.8-2,3.4-4.1,6.8-6.1,10.3-.7,1.2-1.5,1.8-2.7.8Z"/>
    <path class="cls-61" d="M619.1,195.1c-6.8-3.3-6.9-3.3-9,3.9-1.8,6-3.4,11.9-4.9,17.9-.5,2-1.5,3.1-3.5,3.1-3.9-2.6-7.9-5-11.6-8,3,1.5,6.1,3,9.1,4.5,2.6,1.3,4.1.7,4.9-2.2,2-6.8,3.9-13.7,5.9-20.5,1.1-4,1.8-4.3,5.5-2.9.5.2,1.1.4,1.6.6.5.2,1,.4,1.5.6.9.8,1.4,1.8.5,2.9Z"/>
    <path class="cls-100" d="M658.1,188.6c1,.9,2,1.7,3,2.6-2.2-.4-3.6.1-3.6,2.7,0,.8-.6,1.1-1.1,1.5-2.6,2.1-5.1,4.1-7.7,6.2-1.3.1-1.5-.9-1.6-1.7-.2-1-.1-2-.2-3,0-.6.2-1,.5-1.5,2.1-2.2,4.2-4.4,6.4-6.4,1.3-1.1,2.8-2.3,4.4-.4Z"/>
    <path class="cls-110" d="M647.1,196.6c.9.8.4,1.8.5,2.8,0,.9,0,1.8,1,2.3-3.1,2.6-5.8,5.8-9.3,7.7-2.6,1.4-6.1,1.8-9.2.2,0-.8,0-1.5,0-2.3,0,0,0-.1,0-.1.5-.3,1-.2,1.4,0,3.2,1.2,5.4-.4,7.2-2.8,1.8-2.4,4.2-4.5,6.3-6.6.5-.6,1.1-1.3,2.1-1Z"/>
    <path class="cls-76" d="M635.6,215.6c-3.4.2-6.2-1.5-9.2-2.5-3.3-1.1-6.5-2.3-9.7-3.5,4.2-2.8,8.1-.3,12.1.6,3,.7,5.9,1.7,7.8,4.4-.3.3-.7.7-1,1Z"/>
    <path class="cls-23" d="M655.1,198.1c0,1.3,0,2.7,0,4-.2.4-.6.5-1,.5-4,2.4-7.6,5.3-11.3,8-1,.7-2.1,1.3-3.1,2-.3-1.2.1-2.1,1.1-2.8,4.8-3.9,9.6-7.8,14.4-11.7Z"/>
    <path class="cls-35" d="M606.5,225.7c-1,.6-2.2.7-3,0-3.7-3.5-8-6.3-11.5-10,4.4,2.7,9.3,4.6,12.3,9,.5.8,1.3,1,2.1,1.1Z"/>
    <path class="cls-79" d="M608,223.4c-.2.9-.7,1.5-1.7,1.5-1.1,0-1.7-.7-1.7-1.8,0-.9.8-1.6,1.7-1.5,1,0,1.6.7,1.7,1.8Z"/>
    <path class="cls-79" d="M582.3,206.2c1,.1,1.7.7,1.8,1.7,0,.9-.6,1.5-1.6,1.6-1,0-1.6-.5-1.7-1.4-.2-1.1.6-1.6,1.5-1.9Z"/>
    <path class="cls-31" d="M773.6,179.3c0,1.1-.5,1.7-1.4,1.8-1.1,0-1.8-.6-1.8-1.6,0-1,.7-1.7,1.7-1.7.9,0,1.5.6,1.5,1.5Z"/>
    <path class="cls-79" d="M726,176.1c-1-.2-1.6-.8-1.5-1.9,0-1,.7-1.5,1.6-1.5.9,0,1.6.7,1.6,1.6,0,1-.6,1.7-1.7,1.8Z"/>
    <path class="cls-79" d="M619.7,206.7c-.1,1-.7,1.7-1.7,1.7-.9,0-1.5-.7-1.5-1.6,0-1,.7-1.7,1.7-1.6.9,0,1.5.7,1.5,1.6Z"/>
    <path class="cls-79" d="M674.5,201.1c-.2,1-.7,1.7-1.8,1.6-1,0-1.5-.6-1.5-1.5,0-1,.6-1.5,1.5-1.6,1.1,0,1.6.6,1.8,1.5Z"/>
    <path class="cls-67" d="M659.8,191.8c.9.1,1.6.6,1.7,1.5,0,1.1-.6,1.7-1.7,1.7-1,0-1.6-.6-1.6-1.5,0-1.1.7-1.6,1.6-1.8Z"/>
    <path class="cls-60" d="M700.2,187.4c-1-.2-1.6-.6-1.7-1.6,0-.9.4-1.6,1.4-1.7,1.1-.1,1.7.5,1.8,1.6,0,1-.6,1.4-1.4,1.7Z"/>
    <path class="cls-80" d="M758.2,164.7c-.1,1-.7,1.6-1.6,1.6-1,0-1.6-.8-1.5-1.9.1-1,.8-1.4,1.7-1.4,1,0,1.4.8,1.4,1.7Z"/>
    <path class="cls-80" d="M790,170.6c-1.3-1.1-1.4-2.1,0-3.2,1.3-.2,2.7-.3,2.5,1.6-.1,1.5-.9,2.3-2.5,1.6Z"/>
    <path class="cls-80" d="M712.5,192.2c-1-.1-1.5-.7-1.4-1.7,0-1,.7-1.5,1.6-1.5,1.1,0,1.7.7,1.6,1.8-.1.9-.8,1.4-1.8,1.4Z"/>
    <path class="cls-102" d="M638.7,212.1c0,1-.5,1.5-1.5,1.6-1,0-1.6-.4-1.6-1.4,0-1.1.5-1.7,1.6-1.7,1,0,1.5.6,1.5,1.5Z"/>
    <path class="cls-102" d="M744.2,175.7c-.1.9-.6,1.4-1.6,1.4-1.1,0-1.6-.7-1.5-1.8.1-1,.8-1.4,1.7-1.3,1,0,1.4.7,1.4,1.7Z"/>
    <path class="cls-88" d="M790,170.6c1.2,0,2.2-.4,2.2-1.7,0-1.3-1.2-1.4-2.2-1.5.5-.3,1-.5,1.4-.8,1.4.4,1.7,1.6,1.7,2.9.2.4.1.8-.3,1-1,.6-2,1.7-3.4.6.2-.2.3-.3.5-.5Z"/>
    <path class="cls-70" d="M787.1,150.1c0,.2,0,.3,0,.5-2.3,1.5-4.7,3-7,4.5-1.5-.5-1.7-1.7-1.5-3,.6-3.7,0-7.5.7-11.2.2-.8.3-1.8-.5-2.3-.9-.6-1.7.1-2.5.5-2.1,1.1-4,2.8-6.6,2.6-1.4-.4-2.6-.9-3.6-2.1-1-1.5-1.2-3.1-.9-4.9.5-3.1,0-6.3.4-9.4,0-.7,0-1.5.5-2.1,1.8.1,3.2,1.5,5,1.5,3.2,0,5.2-2.6,8-3.5,2.1-.1,3.3,0,2.6,2.9-.7,2.7,0,5.6-.4,8.4-.2,1.4,1,2.1,2.4,1.4,1.1-.5,2.2-.7,3.4-.6,1.3,2,.8,4.2.7,6.3-.2,3.6-.3,7.1-.7,10.7Z"/>
    <path class="cls-126" d="M766.1,123.1c.2,4.1.3,8.2-.4,12.2-.3,1.7.7,2.8.9,4.3-1.6.4-2.7-.8-4.1-1.4-1.6-.7-3.1-1.5-4.7-2.2-1.5-.8-3-1.2-4.6-1.7-1.5-1.1-1.4-2.6-1.2-4.2.3-2,.5-4.1-.5-6q4.1-5.4,10.4-2.8c1.4.6,2.7,1.2,4.1,1.8Z"/>
    <path class="cls-95" d="M751.6,124.1c1.2,0,1.5.8,1.5,1.9,0,1.4.2,2.8-.3,4.2-.5,1.5-.2,2.8.8,3.9-.2,1.5-1.5,2.1-2.4,2.9-1.3,1.1-2.6,2.3-3.9,3.5-2.5,2-4.9,4.2-7.3,6.3-1.3,1.2-2.7,2.3-4.6,1.6,0,0-.2-.2-.3-.3-1-2.3-.3-4.7-.5-7,2.1.9,3.8.7,5.3-1.4,3.3-4.6,6.8-9.1,10.2-13.6.5-.7,1-1.3,1.5-2Z"/>
    <path class="cls-109" d="M676.1,178.1c-.2,0-.3,0-.5,0-.3-.3-.6-.6-.6-1.1,0-3.4,0-6.7,1.1-10,6.3-4.4,12.4-9.1,19-13.1.2,4.2-.8,8.3-.5,12.5-.6,1.6-2.2,2-3.4,3-4.3,2.5-8.4,5.2-12.6,7.8-.7.5-1.5,1.2-2.5.8Z"/>
    <path class="cls-59" d="M676.1,167.1c.4,3.7-.7,7.3-.5,11-3.1,2.9-4.1,3-7.9,1.3-3-1.3-5.8-3.2-9.1-3.8-.9.7-1.9,1.1-3,1.2-1.6-.7-1.6-2.5-2.5-3.7,0-.1.2-.3.2-.4,2.8-5.6,7.1-6.2,12.5-4.1,1.7.6,3.5.8,5.3,1.1.9.1,1.8-.2,2.4-1,.8-.5,1.7-1,2.5-1.5Z"/>
    <path class="cls-90" d="M653.1,173.1c2.2.2,1.2,2.7,2.5,3.5-.5,2.9-3,4.4-4.6,6.5-1.2,1.7-2.6,3.2-3.9,4.8-2.9,3-5,6.9-8.5,9.3-1.3,0-2.3-.7-3-1.7,2.7-3.5,5.3-7,8-10.5,3.2-4,6.3-8,9.5-12Z"/>
    <path class="cls-81" d="M755.1,249.1c-2.4-2.6-4.4-5.5-6.4-8.4-.7-.9-1.2-2-2.6-2.1-.2-.4-.6-.5-1-.5-.3-2.3.4-4.6.4-6.9,0-3,.5-5.9.5-8.9,0-1.3.5-2.4,1.7-3.2,1.4-.8,2.1.2,2.8,1.2,1.2,1.8,2.1,3.7,3.1,5.6,1.6,3.4,3.6,6.5,5.2,9.9.4.8,1.1,1.5.3,2.5-1.3.6-1.2,1.8-1.5,2.9-.4,1.9,0,3.8-.4,5.7-.2,1.1-.1,2.7-2.1,2.2Z"/>
    <path class="cls-95" d="M748.1,219.1c-1.2,1.2-1.7,2.7-1.5,4.5.3,3.9-.8,7.8-.5,11.8.1,1.1-1,1.7-1,2.7-3.4-1.5-7.2-1.7-10.5-3.5.8-1.7,1.1-3.4,1-5.3-.1-3.1.1-6.2,1-9.2,2.9-.3,5.9-.6,8.8-1.2.9,0,1.9-.5,2.7.2Z"/>
    <path class="cls-39" d="M612.6,220.6c1.7-1.6,2-4.9,4.5-5.2,2.1-.3,4.4,1.1,6.7,1.5,3.8.8,7.3,2.5,11.3,2.7,5.3-1.1,10.7-2.2,16-3.2.6-.1,1.3-.2,2-.3.5-.6,1-1.3,1.5,0-.8.7-.4,1.6-.5,2.4-5.1.9-10.2,1.6-15.3,2.8-2.9.7-5.5.7-8.2-.3-3.7-1.9-7.6-3-11.5-4.4-1.6-.6-3,.3-4,1.8-1.8,2.7-3.7,5.4-5.6,8.1-.2.2-.3.2-.5,0l3.6-6Z"/>
    <path class="cls-119" d="M609.1,226.6c.2,0,.4,0,.5,0-3.5,5.1-3.7,5.2-8.1.7-.3-.4-.6-.7-1-1.1,1.1-.1,1.6.7,2.2,1.3,2.5,2.4,3.6,2.3,5.7-.5.1-.2.4-.3.6-.4Z"/>
    <path class="cls-119" d="M593.2,219c2.3,1.2,3.9,3.1,5.4,5.1-2.2-1.3-3.8-3.2-5.4-5.1Z"/>
    <path class="cls-54" d="M755.1,249.1c1.4-.3,1.5-1.4,1.5-2.5,0-2.5.3-4.9.5-7.4.2-1.7.8-1.8,2-1.1,1.9,1,2.1,3.3,3.5,4.7.9.9,1.8.5,2.7,0,1.3-.6,2.5-1.4,3.7-2,.7-.4,1.6-1.1,2.3.2-.7,3.2-1.2,6.5-1,9.8,0,1.8-.5,3.4-1.7,4.8-1,.7-2,1.3-3,2-3.6,1.2-3.8,1.2-6-2.1-1.5-2.1-3.5-4-4.5-6.4Z"/>
    <path class="cls-1" d="M635.6,195.6c1.2,0,1.9,1.2,3,1.5-1.1,5-4.8,6.4-9,3.5-3.3-2.2-7-3.6-10.5-5.5.2-1-.3-2-.5-2.9,4.2,1.4,8.4,2.7,12.6,4.1,1.6.6,3,.5,4.4-.6Z"/>
    <path class="cls-87" d="M768.6,255.5c1.8-3.8.4-8,1.4-12,.3-1.1.6-2,1.1-3-.2-.4,0-.7.4-1,2.2-1.4,4.5-2.7,6.7-4,.7-.4,1.4-1.2,2.4-.5-2.4,2.7-1.5,6.1-1.9,9.2-.3,2.2-.4,4.4-1.6,6.3-2.7,1.9-5.6,3.4-8.5,5Z"/>
    <path class="cls-2" d="M787.1,150.1c-1-2.1-.7-4.3-.4-6.4.6-3.6.2-7.1.4-10.6.4,0,.8,0,1.2,0,4.3.2,6,2.3,5.1,6.5-.3,1.4-.4,2.8-.3,4.2,0,2.2.7,2.7,2.8,1.9,1.3-.5,2.7-.9,4.1-1.1,1.5-.2,2.3.7,2,2.1-.8,3.6-.4,7.3-.7,10.9-.7,8-.8,16-1.1,24.1-.3,5.3-.6,10.6-1,15.8-.1,1.6-1.1,2.8-2.6,3.4-.8.3-1.8.4-2.4,1.2-.8.5-1.7,1-2.7.7,0,0-.2-.2-.3-.2,1.9-2.7,1.1-6,1.3-9,.5-6.9.8-13.9,1.2-20.8,0-.8.3-1.7-.6-2.3.1-.3.2-.7.3-1,1.5-4.1.5-8.5,1.3-12.7.4-2.3-.2-4.8.5-7.1.3-.8.2-1.8-.6-2.5-.9-.7-1.5,0-2.2.4-1.7.8-3.4,1.7-5.1,2.5Z"/>
    <path class="cls-87" d="M785.1,203.6c2-.3,4-.7,6-1,0,0,0,0,0,0,.4.5.4,1.1.3,1.7-1,7.5-.8,15.2-1.5,22.7-.2,1.6-.3,3.1-1.8,4.1-1.7,1-3.3,2-5,3-.7.2-1.3.3-2,.5,1.7-9.2,1.2-18.6,2.2-27.9.1-1.2.3-2.3,1.3-3.1.2,0,.3,0,.5,0Z"/>
    <path class="cls-86" d="M788.1,231.1c1.7-3.3,1.1-7,1.4-10.5.6-6,0-12.1,1.6-18,1-.2,1.9-.7,3-.5-1,1.2-1.4,2.7-1.4,4.1,0,3.7-.4,7.4-.5,11.1,0,3.2-.5,6.4-.6,9.6,0,2-1.4,3.4-3.4,4.1Z"/>
    <path class="cls-16" d="M784.6,203.6c-.3,2.1-1,4.2-.9,6.3.1,4.7-.4,9.4-.7,14.1-.2,3.5.7,7.4-1.9,10.5-.2.2-.3.3-.5.5-3,1.7-6,3.3-9,5-.3-2.9.2-5.7.4-8.6.3-5.2.6-10.4.9-15.6.1-2.5,0-5,1.3-7.3,1.2-.7,2.3-1.3,3.5-2,2.3-1,4.2-3.1,7-3Z"/>
    <path class="cls-44" d="M727.1,168.1c-.4,0-.8,0-1.2,0-6.9-1-5.9-1.4-9.3,5.1-1.6,3.2-3.3,6.3-5,9.5-1.4,2.6-2.2,2.8-4.9,1.5-.4-.5-.6-1-.6-1.6.4-4.6.3-9.2.9-13.8,0-.6.3-1.1.7-1.6,3.8,1.4,4.2,1.3,5.5-1.5,2.5-3.7,3.8-8.1,5.9-12,.5-.9.8-2,1.3-2.9q2.1-4.3,6.8-3.5c.9.7,1.2,1.8,1.2,2.9,0,5.7-.5,11.3-.7,16.9,0,.4-.2.8-.5,1.1Z"/>
    <path class="cls-78" d="M707.6,167.1c-.3,5.7-.7,11.3-1,17-1.8,0-3.3-1.2-5-1.5-.4-.1-.8-.2-1.2-.4-2.4-1.3-4.6-1.6-6.9.3-.5.5-1.3.7-2,1-1.2.5-1.6-.5-1.6-1.2.1-4.4-.2-8.9,1.1-13.3,1.2-.8,2.3-1.7,3.5-2.5,2.7-2.4,5.7-1.9,8.7-.7,1.4.5,2.7,1.2,4.3,1.2Z"/>
    <path class="cls-55" d="M727.1,168.1c-.1-4.1-.1-8.2.3-12.3.3-2.9.5-5.8-.3-8.6,2.7-.2,5.3,1.3,8,1,0,0,0,0,0,0,3.5.7,3.8,1.2,3.4,4.8-.3,3.5-.6,7.1,0,10.6-.2.3-.5.6-.7,1-1.8,3.2-4.2,5.4-8.3,4-.8-.2-1.7-.4-2.5-.5Z"/>
    <path class="cls-46" d="M725.6,189.6c.3-.3.7-.7,1-1.1,1.2-2,2.6-1.7,4.1-.5,1.5,1.2,2.9,2.4,4.4,3.6.5,1.1,2.1,1.2,2.5,2.5.6,3.5-.4,6.9-.3,10.4,0,3.1-.4,6.3-.5,9.5,0,1.6-.4,3.3-2.7,3.1-2.3-2.2-4.7-4.3-7-6.5-1.4-1.1-2.5-.2-3.3.8-.7.8-1.2,1.7-2.2,2.2-.1-.2-.4-.4-.3-.6.8-5.9.6-11.8,1.4-17.7,0-.4.2-.8.4-1.1.6-1.6,2.1-2.8,2.5-4.5Z"/>
    <path class="cls-98" d="M723.1,194.1c0,6.5-.1,13.1-1.5,19.5-2.2,2.6-4.3,5.2-6.5,7.7-1.4,1.6-3,1.8-4.9.8-1.8-1-3.7-1.7-5.6-2.6-.4-1-.4-2.1-.2-3.2.8-4.2,0-8.4,1-12.5.2-1,.2-2.2,1.7-2.3.3,0,.7,0,1,0,1.8.5,3.6,1.1,5.4,1.5,2,.4,3.5-.3,4.8-2.2,1.5-2.3,2.8-4.8,4.8-6.8Z"/>
    <path class="cls-71" d="M707.1,201.6c-1.7,1.9-1.3,4.3-1.4,6.5-.2,3.9-.1,7.7-1.1,11.5-2.5-1.1-4.8-2.7-7.5-3.5-2.5-2.5-5.3-.5-8-.5-.3-.3-.6-.7-.5-1.1.6-4.6-.2-9.3,1.1-13.9.9-.3,1.8-.4,2.5-1.1,2.9-1.6,5.8-.6,8.6.1,2.1.6,4.2,1.2,6.3,1.9Z"/>
    <path class="cls-53" d="M654.6,216.1c-.5-.8-1-.1-1.5,0,.3-4.5.7-9,1-13.5.3-.2.7-.4,1-.5,2.5.2,4.3,2,6.4,3,1.5.7,3.1,1.3,4.4,2.2,2.2,1.6,4.4,1.4,6.7.3.2.2.4.3.4.6.4,3.9.2,7.7-.9,11.4-3.3,2.1-6.3,0-9.3-.9-2.7-.9-5.3-2.1-8.2-2.6Z"/>
    <path class="cls-96" d="M672.1,219.6c-.4-4,.7-8,.5-12,.3-.2.7-.4,1-.6,5.3-2.1,10.7-4.3,16-6.4.5,3.9,0,7.8-.3,11.8,0,1-.2,2.1-.2,3.2-5.5,1.8-11.3,2.9-17,4Z"/>
    <path class="cls-27" d="M734.1,217.1c1.6-.6,2-1.7,2-3.3,0-5.9.5-11.9,1-17.8,0-.6.3-1.3.5-1.9,2.4,2.4,5.2,3.3,8.5,2,.8-.2,1.7-.3,2.5-.5.5,1.1.3,2.3.2,3.4-.5,5.5-.7,11.1-1,16.7,0,1.7-.6,3.1-2.2,3.9-3,.2-5.9,1.9-9,.5-.8-1-1.7-2-2.5-3Z"/>
    <path class="cls-130" d="M762.1,243.1c-1-1.7-2-3.3-3-5-1.7-3.2-3.3-6.3-5-9.5-.4-.8-.7-1.7-1-2.5.9-1.8,1.2-3.7,1.3-5.8.1-6.3.6-12.6,1.1-18.8,0-1.2,0-2.9,2.2-2.4.8,2.3,1.7,4.7,2.5,7,.6,1.7,1.2,3.4,1.8,5.1.6,1.8,1.7,2.8,3.7,2.4.9,2.3.3,4.8.1,7.1-.3,5.1-.7,10.3-.8,15.4,0,1.8-.2,3.5-.6,5.2-.3,1.1-.8,2.1-2.2,1.8Z"/>
    <path class="cls-81" d="M762.1,243.1c2.4-.9,1.9-3.3,1.9-4.9,0-4.7.7-9.4.7-14.1,0-3.5.6-7,.9-10.5.8-.7,1.7-1.3,2.5-2,2.3-.5,3.9-2.2,6-3-.5,9.5-1,19-1.5,28.4,0,1-.6,2-1,3-.2.2-.3.3-.5.5-2.1.5-3.7,2-5.6,2.9-1.3.7-2.4,1-3.4-.4Z"/>
    <path class="cls-114" d="M691.1,169.1c0,4.1,0,8.2-.5,12.3,0,.8-.4,1.9,1,2.2-5.3,3.3-10.7,6.7-16,10-.2-5.2.8-10.3.5-15.4,5.1-2.9,9.8-6.4,15-9Z"/>
    <path class="cls-115" d="M646.6,187.6c3-3.7,6-7.3,9-11,.9-.7,1.8-1.2,3-1,0,4.3.1,8.7-.5,13-1.7-1-3-.3-4.2.9-2.1,2-4.2,4.1-6.3,6.1-1.1-1.3-.7-2.8-.6-4.2,0-1.3,0-2.6-.4-3.8Z"/>
    <path class="cls-82" d="M646.6,187.6c1.1.6,1.5,1.4,1.2,2.8-.4,1.7-.2,3.5-.2,5.2-.2.3-.3.6-.5,1-2.7,2.4-5.4,4.9-7.7,7.8-3.1,4-4.6,4.5-9.3,2.7-.8-2.1-.4-4.3-.5-6.5,0,0,.2,0,.2,0,4.4,2.5,6.7-.2,8.7-3.5,2.7-3.2,5.4-6.3,8-9.5Z"/>
    <path class="cls-58" d="M738.6,163.6c-.7-.4-1.5-.9-1.3-1.9.8-3.3-.2-6.8.7-10.1.7-2.3-1.4-2.8-2.9-3.5,2,.2,3.4-.7,4.8-2,2.3-2.1,4.4-4.4,7.2-6,1.4,0,1.5,1,1.6,2,.2,1.3.2,2.6,0,3.9-.2,1.2,0,2.3.9,3.1-2.2,2.8-4.3,5.7-6.5,8.5-1.5,2-3,4-4.5,6Z"/>
    <path class="cls-17" d="M749.6,149.1c-1.9.2-2.1-.7-1.8-2.4.4-2.2,1.3-4.6-.7-6.6,1.7-2.5,4.4-3.9,6.5-6,1.8-.3,3.1.6,4.5,1.5.8.8,1.2,1.7,1.2,2.9,0,4-.6,7.9-.6,11.8,0,.5-.2,1-.6,1.3-.3-.2-.7-.3-1-.5-.5-.7-.9-1.4-1.4-2-2.1-2.7-3.9-2.7-6.1,0Z"/>
    <path class="cls-101" d="M757.6,199.1c-1.2,0-1.5.8-1.5,1.9.2,3.6-.4,7.1-.6,10.6-.3,4.3,0,8.7-.8,13.1-.2,1-.5,1.5-1.6,1.4-1.1-1.8-2.2-3.7-3.2-5.5-.4-.7-.7-1.5-1.8-1.5-.8.2-1.7.3-2.5.5,1.2-1.4,1.5-3,1.6-4.8.2-5.9.6-11.8,1-17.8,0-.5.3-.9.5-1.4,2-.7,4-1.3,6-2,2,1.3,2,3.7,3,5.5Z"/>
    <path class="cls-130" d="M758.1,151.6c0-4,0-7.9.5-11.9.2-1.4,0-2.8-.5-4.1,3,1,5.6,2.7,8.5,4,1,.5,2,1,3,1.5.9.8,1,1.8.9,3-.3,3.4,0,6.9-.6,10.4-.3,2,0,4.1.2,6.2-.2.2-.3.4-.5.5-1.4.7-2.7.7-3.8-.6-2.6-3-5.1-6-7.7-9Z"/>
    <path class="cls-45" d="M770.1,160.6c-2.1-2.3-1-5-.8-7.5.3-4,.4-8,.3-12,2,.2,3.4-1,5-1.8,1-.5,2-1.2,3-1.7,1.6-.8,2.5-.2,2.4,1.5-.2,4.1-.3,8.2-.7,12.3-.2,1.4-.1,2.6.8,3.7-.2.2-.3.3-.5.5-3.2,1.7-6.3,3.3-9.5,5Z"/>
  </g>
  <g class="cls-131">
    <path class="cls-14" d="M338.8,353.2h-.6v-22.7c46.6-11.5,81.9-49.7,89.8-97.1h.3c5.8,0,10.4-8.8,10.4-19.6s-1.8-12.6-4.5-16.1c.4-4.1.6-8.3.6-12.6,0-34.2-13.9-66.9-38.6-90.5-1.7-8.4-4.7-16.4-8.9-23.8-8.9-15.7-23.7-32-17.7-49l-39.1,4-.4-25.8c-12.2,2.2-17.3,16.3-24.5,26.4-17.4,24.2-52.4,27.6-75.5,46.4-7.9,6.4-25.5,25.9-22.2,38.7-15.5,21.4-23.9,47.1-23.8,73.5,0,4.2.2,8.4.6,12.6-2.7,3.5-4.5,9.4-4.5,16.1,0,10.8,4.7,19.6,10.4,19.6h.3c7.8,47.4,43.2,85.6,89.8,97.1v22.6h-.6c-13.5-1.4-149.3-11.8-119.5,211.6l18.3,67.4,4.1-.2c1.2,15.8,15.1,27.6,30.9,26.4,12.2-1,22.4-9.5,25.5-21.3,25.9,0,55.1-.2,70-.2s44.2,0,70,.2c4,15.4,19.7,24.6,35,20.6,11.9-3.1,20.5-13.4,21.4-25.7l4.1.2,18.3-67.4c29.9-223.4-105.9-213-119.4-211.5Z"/>
  </g>
  <rect class="cls-21" y="625.2" width="645.6" height="21.9"/>
  <rect class="cls-21" x="27.4" y="647" width="590.9" height="9"/>
  <rect class="cls-69" x="27.4" y="647" width="590.9" height="3"/>
  <path class="cls-69" d="M193.4,626.8s86.6-.3,116.1-.3,116.1.3,116.1.3v-12.6h-232.2v12.6Z"/>
  <path class="cls-74" d="M425.6,624.3s-86.6-.3-116.1-.3-116.1.3-116.1.3v-159.3c0-64.1,52-116.1,116.1-116.1h0c64.1,0,116.1,52,116.1,116.1h0v159.4Z"/>
  <path class="cls-7" d="M298.5,290.8h22c9.3,0,16.8,7.5,16.8,16.8h0v46.3c0,15.3-12.4,27.8-27.8,27.8h0c-15.3,0-27.8-12.4-27.8-27.8h0v-46.3c0-9.3,7.5-16.8,16.8-16.8h0Z"/>
  <path class="cls-69" d="M281.7,332.9c18.2,4.5,37.3,4.5,55.5,0v-39.5h-55.5v39.5Z"/>
  <circle class="cls-94" cx="309.5" cy="189.9" r="121.1"/>
  <circle class="cls-7" cx="309.5" cy="217.6" r="116.1"/>
  <path class="cls-94" d="M232.8,81.4c22.3-18.2,56.1-21.5,72.9-44.9,7-9.7,11.9-23.4,23.7-25.5l.4,24.9,37.8-3.9c-5.8,16.4,8.5,32.2,17.1,47.4,6.3,11.2,9.8,23.8,10.1,36.7-13.1,7.9-29.4-.7-44-5.3-14.2-4.5-29.3-4.9-44.2-5.3-7.6-.2-15.4-.4-22.8,1.2-6.5,1.5-12.6,4.3-18.8,6.9-10,4.2-41.8,20.1-51.1,9.9-10.6-11.6,10.3-35,18.9-42Z"/>
  <path class="cls-69" d="M239.1,159.4c6.2,3.7,13.4,5.2,20.5,6.2,29.7,4.1,60,.7,88.1-9.9,4.6,11.7,15.8,19.7,27.8,23.5s24.7,4,37.2,4.1c2.8,0,5.7,0,8-1.5,5.6-3.8,2.9-12.4-.4-18.3l-16.2-29.3c-4.8-8.7-9.7-17.5-17.1-24.1-9.3-8.2-21.6-12.1-33.8-14.5-28.7-5.7-58.4-4.7-86.6,2.9-30.2,8.1-69,35.8-27.6,60.9Z"/>
  <path class="cls-94" d="M239.1,156.9c6.2,3.7,13.4,5.2,20.5,6.2,29.7,4.1,60,.7,88.1-9.9,4.6,11.7,15.8,19.7,27.8,23.5s24.7,4,37.2,4.1c2.8,0,5.7,0,8-1.5,5.6-3.8,2.9-12.4-.4-18.3l-16.2-29.3c-4.8-8.7-9.7-17.5-17.1-24.1-9.3-8.2-21.6-12.1-33.8-14.5-28.7-5.7-58.4-4.7-86.6,2.9-30.2,8.2-69,35.8-27.6,60.9Z"/>
  <ellipse class="cls-7" cx="424.3" cy="217.6" rx="10.1" ry="18.9"/>
  <ellipse class="cls-7" cx="194.7" cy="217.6" rx="10.1" ry="18.9"/>
  <path class="cls-74" d="M336.8,352.5s146.8-22.9,116.6,204.3l-17.7,65.1-50.5-2s32.8-75.7,12.6-126.2-61-141.2-61-141.2Z"/>
  <path class="cls-74" d="M282.2,352.5s-146.8-22.9-116.6,204.3l17.7,65.1,50.5-2s-32.8-75.7-12.6-126.2,61-141.2,61-141.2Z"/>
  <path class="cls-69" d="M218.6,452.6s-10.1,78,7.6,100.7"/>
  <path class="cls-69" d="M400.4,454.6s10.1,76-7.6,98.7"/>
  <circle class="cls-7" cx="404.1" cy="619.7" r="27.8"/>
  <circle class="cls-7" cx="214.9" cy="619.7" r="27.8"/>
  <g class="cls-131">
    <rect class="cls-77" x="218" y="461" width="182.8" height="162" rx="21.3" ry="21.3"/>
  </g>
  <rect class="cls-21" x="221.4" y="464" width="176" height="156" rx="21.3" ry="21.3"/>
  <g class="cls-131">
    <rect class="cls-84" x="682" y="387" width="182.8" height="162" rx="21.3" ry="21.3"/>
  </g>
  <rect class="cls-21" x="685.4" y="390" width="176" height="156" rx="21.3" ry="21.3"/>
  <path class="cls-64" d="M742,456.2c0,1.4.1,2.9.5,4.3.4,1.2.9,2.3,1.5,3.5.2.3.3.7.3,1.1,0,.6-.4,1.1-.9,1.4l-3,2c-.4.3-.8.4-1.2.4-.5,0-1.1-.3-1.4-.7-.6-.7-1.2-1.4-1.7-2.2-.5-.8-1-1.7-1.5-2.8-3.4,4.3-8.6,6.7-14.1,6.6-4,0-7.2-1.2-9.6-3.5-5-5.5-4.7-14,.8-19.1,2.9-2.5,6.8-3.7,11.7-3.7,1.7,0,3.4.1,5.1.4,1.8.2,3.6.6,5.5,1v-3.5c0-3.6-.8-6.2-2.2-7.7s-4.1-2.2-7.8-2.2c-1.7,0-3.5.2-5.2.6-1.8.4-3.5,1-5.2,1.6-.5.2-1.1.5-1.7.6-.2,0-.5.1-.8.1-.7,0-1-.5-1-1.5v-2.3c0-.6,0-1.2.3-1.7.4-.4.8-.8,1.3-1,1.9-.9,3.9-1.7,6-2.2,2.4-.6,5-.9,7.5-.9,5.7,0,9.9,1.3,12.5,3.9s4,6.5,4,11.8v15.5h0ZM722.6,463.5c1.7,0,3.3-.3,4.9-.9,1.8-.6,3.3-1.7,4.5-3.1.8-.9,1.3-1.9,1.6-3.1.3-1.4.5-2.8.5-4.2v-2c-1.5-.4-2.9-.6-4.4-.8-1.5-.2-3-.3-4.5-.3-3.2,0-5.6.6-7.1,1.9-3.1,2.2-3.7,6.5-1.5,9.6,1.4,1.9,3.6,3,6,2.8h0ZM761,468.7c-.6,0-1.3-.1-1.8-.5-.5-.5-.8-1.2-1-1.9l-11.2-37c-.2-.6-.4-1.3-.4-1.9,0-.6.3-1.1.9-1.2,0,0,.2,0,.3,0h4.7c.7,0,1.3,0,1.9.5.5.5.8,1.2,1,1.9l8,31.7,7.5-31.7c0-.7.4-1.4.9-1.9.6-.4,1.2-.5,1.9-.5h3.8c.7,0,1.4,0,1.9.5.5.5.8,1.2.9,1.9l7.6,32.1,8.3-32.1c.2-.7.5-1.3,1-1.9.6-.4,1.2-.5,1.9-.5h4.5c.6,0,1.1.3,1.2.9,0,0,0,.2,0,.3,0,.3,0,.5,0,.8,0,.4-.2.8-.3,1.2l-11.5,37c-.1.7-.5,1.4-1,1.9-.5.3-1.2.5-1.8.5h-4.1c-.7,0-1.4,0-1.9-.5-.5-.5-.8-1.2-.9-1.9l-7.4-30.9-7.4,30.8c-.1.7-.4,1.4-.9,1.9-.6.4-1.2.5-1.9.5h-4.2ZM822.6,470c-2.5,0-5-.3-7.4-.9-1.9-.4-3.8-1-5.5-1.9-.6-.3-1.1-.8-1.5-1.3-.2-.4-.3-.9-.3-1.3v-2.4c0-1,.4-1.5,1.1-1.5s.6,0,.9.1c.3,0,.7.3,1.2.5,1.7.7,3.5,1.3,5.3,1.7,1.9.4,3.8.6,5.7.6,2.4.1,4.9-.4,7-1.6,1.6-1,2.5-2.7,2.5-4.5,0-1.2-.4-2.5-1.3-3.3-1.4-1.2-3.1-2-4.8-2.5l-7-2.2c-3.5-1.1-6.1-2.7-7.7-4.9-1.5-2-2.4-4.4-2.4-6.9,0-1.9.4-3.7,1.3-5.3.9-1.5,2-2.9,3.5-3.9,1.5-1.1,3.2-2,5-2.5,2-.6,4-.8,6-.8,1.1,0,2.1,0,3.2.2,1.1.1,2.1.3,3.1.5s1.9.5,2.7.8c.7.2,1.4.5,2,.9.6.3,1.1.7,1.4,1.2.3.5.5,1,.4,1.6v2.2c0,1-.4,1.5-1.1,1.5-.6,0-1.3-.3-1.8-.6-2.9-1.3-6-1.9-9.2-1.9-2.2-.1-4.4.3-6.4,1.3-1.5.9-2.4,2.5-2.2,4.3,0,1.3.5,2.5,1.4,3.4,1.6,1.2,3.3,2.1,5.3,2.6l6.8,2.2c3.5,1.1,5.9,2.6,7.4,4.6,1.5,1.9,2.2,4.3,2.2,6.7,0,1.9-.4,3.8-1.2,5.6-.9,1.6-2,3.1-3.5,4.2-1.6,1.2-3.4,2.1-5.3,2.7-2.2.7-4.5,1-6.8,1h0Z"/>
  <path class="cls-91" d="M831.6,493.2c-15.8,11.6-38.7,17.8-58.3,17.8-26.3.1-51.7-9.5-71.2-27.2-1.5-1.3-.1-3.2,1.6-2.1,38.3,22.1,84.8,25,125.6,7.8,2.6-1.2,4.9,1.7,2.3,3.6h0Z"/>
  <path class="cls-91" d="M838.2,485.8c-2-2.6-13.3-1.2-18.4-.6-1.5.2-1.8-1.2-.4-2.2,9-6.3,23.8-4.5,25.5-2.4s-.5,17-8.9,24c-1.3,1.1-2.5.5-2-.9,1.9-4.7,6.2-15.4,4.2-17.9Z"/>
  <g>
    <path class="cls-57" d="M342.7,516.6c0,10.5,0,21.1,0,31.6,0,3.9-1,5-4.8,5-20.2,0-40.5,0-60.7,0-3.8,0-4.8-1.1-4.8-4.9,0-21.2,0-42.3,0-63.5,0-3.7,1-4.8,4.6-4.8,20.3,0,40.6,0,61,0,3.7,0,4.7,1.1,4.7,5.1,0,10.5,0,21.1,0,31.6Z"/>
    <path class="cls-116" d="M311.5,597.6c1.3-2.7,2.3-5,3.4-7.4.3-.7.6-1.4,1.6-1.5,1.7,0,2.9,0,2.7,2.4-.2,3.9,0,7.7,0,11.6,0,1,0,1.7-1.3,1.7-1.3,0-1.6-.5-1.6-1.7,0-2.7,0-5.3,0-8.5-1.5,1.6-2,3.3-2.7,4.8-.5,1.1-1,1.6-2.3,1.6-1.2,0-1.7-.6-2.1-1.6-.7-1.5-1.4-3-2.6-4.5,0,2.4,0,4.9,0,7.3,0,1.1.6,2.6-1.5,2.5-1.9,0-1.4-1.3-1.5-2.4,0-3.7,0-7.4,0-11.1,0-.8-.7-2.2,1-2.2,1.2,0,2.6-.6,3.3,1.2,1,2.5,2.2,4.8,3.5,7.5Z"/>
    <path class="cls-20" d="M298.4,575.8c0,1,0,2,0,3,.1,1.3-.2,1.9-1.7,1.9-1.5,0-1.6-.7-1.6-2,0-1.9,0-3.8,0-5.7,0-1.2-.5-1.9-1.7-1.7-1.1,0-2,.3-2,1.8,0,1.8,0,3.6,0,5.4,0,1.3,0,2.2-1.7,2.2-1.9,0-1.6-1.1-1.6-2.3,0-1.8,0-3.6,0-5.4,0-1.2-.5-1.9-1.7-1.7-1,.1-2.1.1-2,1.8,0,2,0,4,0,5.9,0,1.3-.4,1.6-1.6,1.7-1.3,0-1.6-.5-1.6-1.7,0-2.8,0-5.6,0-8.4,0-1.4.8-2,1.6-1.5,1.5.9,2.6-.3,3.8-.2,3.1.2,6.2.2,9.3,0,1.4-.1,2.1,1.5,2.2,2.9.1,1.3,0,2.7,0,4,0,0,0,0,0,0Z"/>
    <path class="cls-20" d="M285.8,603.5c-2.1.8-4.2,1.3-5.8-.8-1.7-2.2-1.7-4.9-.7-7.4.7-1.8,2-2.9,4-2.7,1.6.2,3.1.9,4.8.3,1-.3,1,.6,1,1.4,0,3.3.1,6.7,0,10-.2,4.3-5.3,6.8-8.8,4.4-.6-.4-.8-.9-.7-1.6.2-1.2,1.1-.6,1.7-.5,4,.5,4.6,0,4.6-3.2Z"/>
    <path class="cls-20" d="M265.4,580.4c1.6-4.8,3.3-9.6,4.9-14.4.5-1.4,1.5-.9,2.3-1,.8,0,1.6-.2,2,1.1,1.4,4.4,3,8.8,4.4,13.2.2.5.6,1.4-.4,1.4-1,0-2.7.8-2.9-.8-.4-3.4-2.7-2.7-4.8-2.8-1,0-1.5.4-1.6,1.3-.2,2.8-1.9,2.7-4,2.2Z"/>
    <path class="cls-113" d="M259.4,588.3c.3,0,.7-.1,1,0,1.1.5,3.3-.3,3,2-.3,2.6-2,.3-3,.7-.5.2-1.2,0-1.8,0-.8.1-1.5.6-1.6,1.5-.1.8.5,1.3,1.1,1.6,1.2.5,2.4,1,3.6,1.5,1.8.8,2.9,2.3,2.7,4.4-.2,2.2-1.4,3.6-3.4,4.3-2.1.7-4.1.4-6.1-.1-.9-.2-1.2-.9-1.1-1.8.1-1.5,1.1-.8,1.7-.7,1.4.1,2.7.6,4.1.2.7-.2,1.3-.5,1.4-1.4.1-.9-.3-1.6-1.1-1.9-.8-.4-1.6-.7-2.4-1-3.1-1.3-4.3-3.1-3.8-5.6.5-2.3,2.6-3.8,5.6-3.7Z"/>
    <path class="cls-99" d="M345.6,604.1c-4.3,1.6-5.2-2.5-7.7-4.7,0,1.3,0,2.2,0,3.1,0,1.2,0,1.9-1.6,2-1.6,0-1.6-.8-1.6-2,0-4.4,0-8.8,0-13.2,0-1.3.3-1.7,1.6-1.7,1.2,0,1.6.4,1.6,1.7,0,2.6,0,5.2,0,8.1,2.4-1.8,3.2-5.9,7.3-4.2-1,1.2-1.9,2.5-3,3.6-1.1,1.1-1.2,1.9,0,3.1,1.3,1.3,2.3,2.8,3.5,4.3Z"/>
    <path class="cls-20" d="M322.8,574.8c0-3.8,2-6.1,5.4-6.1,3.6,0,5.6,2.1,5.6,6.1,0,3.8-2,6.1-5.3,6.2-3.4,0-5.6-2.3-5.7-6.2Z"/>
    <path class="cls-20" d="M336.3,574.8c0-1.3.1-2.7,0-4-.2-1.9,1.2-2.2,2-1.6,1.3,1,2,.2,3-.1,3.5-1.2,5.3.2,5.3,4,0,2,0,4,0,5.9,0,1.3-.4,1.7-1.6,1.7-1.3,0-1.6-.5-1.5-1.7,0-1.7,0-3.4,0-5.1,0-1.4-.1-2.6-1.9-2.5-1.5,0-2.4.7-2.2,2.5.2,1.8,0,3.6,0,5.4.1,1.5-.7,1.5-1.7,1.5-1.2,0-1.5-.4-1.4-1.6,0-1.4,0-2.9,0-4.3Z"/>
    <path class="cls-113" d="M297.7,604.7c-4.4,0-6.4-2.3-6.1-6.7.2-3.8,2.7-5.9,6.3-5.4,2.6.3,4.5,3.7,3.6,6.1-.3.8-.8.8-1.4.8-1.2,0-2.4,0-3.6,0-.6,0-1.5-.5-1.6.7,0,.8.4,1.3,1.1,1.7,1.2.6,2.5.4,3.8.3.6,0,1.4-.7,1.6.6.1,1-.3,1.5-1.2,1.7-.9.1-1.7.3-2.2.3Z"/>
    <path class="cls-113" d="M352.1,604.7c-4.3,0-6.2-2.3-6-6.6.2-3.8,2.5-6,6.1-5.6,2.7.3,4.5,3.3,3.7,6-.3,1-.9.9-1.6.9-1.2,0-2.4,0-3.6,0-.5,0-1.3-.4-1.5.5-.1.8.3,1.4,1,1.7,1.2.7,2.5.5,3.8.4.6,0,1.4-.9,1.7.4.2,1.1-.3,1.7-1.3,1.9-.9.1-1.7.2-2.2.3Z"/>
    <path class="cls-19" d="M309.9,575.9c0,.4,0,.9,0,1.3-.1,1.9.8,5-2.9,2.8-.2-.1-.6.2-.9.4-1.7.8-3.4,1-4.8-.5-1.1-1.2-1.2-2.7-.5-4,1-1.9,2.8-2.2,4.7-2,.6,0,1.5.6,1.6-.6,0-.9-.2-1.8-1.3-2-.5,0-1,0-1.5,0-.5,0-1,.3-1.5.2-.5,0-1.4,1-1.6-.4-.1-.9.1-1.5,1.1-1.8,1.7-.5,3.4-.7,5.1-.3,1.6.3,2.5,1.5,2.6,3.2,0,1.3,0,2.5,0,3.8Z"/>
    <path class="cls-19" d="M267.5,595.5c-.5-1.3-.3-2.1,1.2-2.5,1.5-.4,3.1-.5,4.6-.3,1.6.2,2.7,1.3,2.8,3.1,0,2.5,0,5,0,7.5,0,1.3-.8,1.5-1.5,1.1-1.4-.6-2.5-.1-3.7.2-2,.6-3.8-.5-4.2-2.4-.5-2.2.4-3.7,2.5-4.3.8-.3,1.7-.4,2.5-.2.6.1,1.5.6,1.5-.7,0-.9-.3-1.8-1.4-2-1.5-.2-2.9.3-4.4.5Z"/>
    <path class="cls-19" d="M331.6,599.8c0,.5,0,1.1,0,1.6,0,2.8,0,2.7-2.8,2.4-.4,0-.8.3-1.2.4-1.7.8-3.4.9-4.8-.6-1-1.1-1.1-2.5-.5-3.8.9-2,2.7-2.3,4.6-2.2.7,0,1.7.8,1.8-.7,0-1.1-.4-2-1.6-2-.7,0-1.4.3-2,.1-.8-.2-1.9,1.3-2.3-.4-.4-1.6,1-1.7,1.9-1.9,1-.2,2.1-.3,3.1-.3,2.7,0,3.7,1.2,3.8,4,0,1.1,0,2.2,0,3.2Z"/>
    <path class="cls-20" d="M317.9,571.4c-1.7,0-2.9,0-4.1,0-.7,0-1.4,0-1.3-1.1,0-.9.2-1.3,1.2-1.3,2.2,0,4.5-.2,6.7,0,2.2.3,1.2,1.9.5,2.9-1.5,2-3.1,3.8-4.9,5.8,1.5.6,2.7.3,4,.4.8,0,1.5,0,1.6,1.2,0,1.2-.7,1.2-1.5,1.2-2,0-4,0-5.9,0-.6,0-1.5.4-1.8-.4-.3-.8-.2-1.7.5-2.5,1.7-1.9,3.3-3.9,5.2-6.2Z"/>
    <path class="cls-20" d="M358.1,598.6c0-1.3.1-2.7,0-4-.2-2.1,1.5-2.3,2.2-1.5,1.1,1.2,1.6.6,2.5.1.6-.3,1.4-.9,2.2-.3.6.5.4,1.3.3,2,0,1.4-1.2.8-1.8.8-1.8,0-2.5.7-2.3,2.6.1,1.4,0,2.9,0,4.3,0,1.4-.3,1.8-1.7,1.8-1.4,0-1.5-.7-1.5-1.8,0-1.3,0-2.7,0-4Z"/>
    <path class="cls-123" d="M332.8,517.3c1,3.7-.7,6.9-4.5,9.1-2,1.1-1.7,3-1.5,4.7.4,2.9-.8,4.7-3.2,5.9-2.6,1.3-5.1,2.9-7.6,4.6-1.8,1.2-3.4,1.3-5,0-2.2-1.8-4.4-2.1-6.7-.1-1.8,1.5-3.6,1.3-5.5,0-2.7-1.8-5.4-3.5-8.3-5-1.8-1-2.6-2.3-2.3-4.3.6-3.3-.6-5.7-3.5-7.3-2-1.2-2.8-3-2.6-5.4,0-.9.1-1.8,0-2.7-.7-4.5.6-7.9,4.6-10.1,1.7-.9,1.6-2.5,1.4-4-.5-3.4.8-5.6,3.8-7.1,2.2-1.2,4.2-2.8,6.3-4.2,1.5-1,2.8-1.2,4.2,0,0,0,.2,0,.2.1,3.2,3.3,6.4,3.1,9.6,0,1.5-1.5,3.1-1.2,4.7,0,2.3,1.6,4.6,3.3,7,4.7,2.2,1.2,3.1,2.9,2.8,5.5-.2,2.3,0,4.2,2.2,5.8,4.3,3.1,3.8,2,3.8,9.8Z"/>
    <path class="cls-18" d="M285.9,598.3c-.2,1.3.7,3.4-1.8,3.4-2.1,0-2.3-1.7-2.3-3.4,0-1.7.2-3.3,2.4-3.3,2.4,0,1.7,1.9,1.8,3.3Z"/>
    <path class="cls-30" d="M272.2,568.5c1.2,1.7,1.5,3.5,1.7,5.2.2,1.6-1.4.7-2.1.9-.7.2-1.4,0-1-1.1.5-1.5.9-3.1,1.4-5Z"/>
    <path class="cls-48" d="M330.6,574.8c-.1,1.6-.1,3.5-2.2,3.5-2.3,0-2.4-2-2.4-3.7,0-1.7.3-3.5,2.3-3.5,2,0,2.2,1.9,2.3,3.6Z"/>
    <path class="cls-124" d="M294.5,597.4c.2-2,1.1-2.8,2.7-2.6,1,.1,1.5.9,1.5,1.9,0,1.1-1,.6-1.6.7-.8,0-1.7,0-2.6,0Z"/>
    <path class="cls-124" d="M349.1,597.4c.1-2,1-2.7,2.7-2.6,1,0,1.5.9,1.5,1.8,0,1.2-1,.6-1.6.7-.8,0-1.7,0-2.6,0Z"/>
    <path class="cls-56" d="M307.1,576.9c0,1.5-1.2,1.7-2.2,1.8-.9.1-1.5-.5-1.5-1.4,0-1.5,1-1.7,2.2-1.6.8,0,1.6,0,1.5,1.2Z"/>
    <path class="cls-56" d="M271.5,599.6c1,0,1.8,0,1.8,1.1,0,1.5-1.1,1.7-2.1,1.9-1,.1-1.7-.5-1.6-1.6.1-1.2,1-1.6,1.9-1.4Z"/>
    <path class="cls-56" d="M327.2,599.6c.9,0,1.7,0,1.6,1.2,0,1.5-1.1,1.7-2.1,1.8-.9.1-1.6-.4-1.6-1.4,0-1.4.9-1.8,2.1-1.6Z"/>
    <path class="cls-57" d="M326.9,523.4c-3.4,1.6-3.4,4.7-3.2,7.8.1,1.4-.4,2.1-1.5,2.8-2,1.1-4,2.1-5.8,3.6-2.2,1.8-3.9,1.2-6,0-2.1-1.3-1-3.2-1.3-4.8-.2-1.3.4-1.7,1.6-1.7,1.2,0,2.4.2,3.5.7,1.1.4,2.1.2,2.7-.9.6-1,.7-2,0-3-.7-1.1-1.8-1.3-3-.9-.5.2-.9.6-1.4.7-2.6.9-3.6.2-3.6-2.7,0-1.3-.2-2.6,0-3.8.6-3.6-1.3-5.5-4.1-6.9-.9-.5-1.9-.8-2.5.3-.6,1-.1,1.8.8,2.5,1.2.9,2.7,1.3,2.7,3.5,0,2.3-.5,3.8-2.9,4.3-.6-.3-.4-1-.3-1.4.6-3.1-.8-4.9-3.5-5.9-1.5-.5-1.9-1.5-1.9-3.1,0-1.6,0-2.9,1.7-3.8,3.9-2.3,5.2-5.6,4.1-10.2-.2-1-.7-1.7-1.8-1.6-.9,0-1.3.8-1.3,1.7,0,.8-.2,1.7,0,2.4.7,3.2-1.3,4.3-3.5,5.4-1,.5-5.1-1.8-5.2-3.1-.1-1.9-1.1-4.1.8-5.8.4-.3.8-.8,1.4-.6.6.2.4.9.5,1.4,0,1,0,2,0,3,0,1.2.3,2.3,1.6,2.3,1.3,0,1.6-1.2,1.7-2.3,0-1.9.2-3.8,0-5.7-.1-1.7,1-2.3,2-3.1,1.1-.8,1.7.2,2.6.5,3.1,1.4,4.6,3.8,3.9,7.4-.2,1,0,2.2,0,3.2-.5,3.8.3,6.7,4.1,8.1.9.3,1.2,1.3,1.7,2,.8,1,2,1.1,3.1.7,1.1-.4,1.6-1.4,1.5-2.6-.2-1.3-.9-2-2.2-2.2-4.3-.8-5-1.8-5-6.1,0-1.9,0-3.8,0-5.7,0-1.5.4-2.4,1.7-3.3,3.9-2.6,3.8-2.7,7.7,0,1.7,1.2,3.4,2.4,5.1,3.9-2.3.5-4.6.9-6.9,0-1.4-.5-2.7-.7-3.7.7-.6.9-.7,2.1.1,3,1.1,1.3,2.3,1.1,3.7.4,1.9-1,4.1-.3,6.1-.4.5,0,.8.4.8.9-.2,2.3,1.4,3.4,3,4.4,2.4,1.5,3.3,3.4,2.9,6.3-.2,1.5,0,3,0,4.8-1.8-.5-3.2-1.2-4-2.7-.8-1.4-2.1-1.6-3.4-1.2-1.1.4-1.7,1.3-1.5,2.5.2,1.6,1.2,2.2,2.7,2.3,1.4,0,2.4.9,3.6,2Z"/>
    <path class="cls-8" d="M306,527.2c0,3.1.1,5.7,0,8.4-.2,2.5-4.2,3.8-6.5,2.2.7-1.1,1.9-1.5,2.9-2.1,1.1-.7,1.5-1.6.9-2.7-.6-1-1.6-.7-2.5-.2-.7.4-1.4.8-2,1.2-1.9,1.5-3.6,1.4-5.6,0-2.4-1.7-2.4-4.6,0-6.1,1.2-.7,2.4-1.4,3.6-2.2.7-.5,1.1-1.1.6-2.1-.5-1-1.2-1.2-2.2-.7-.2.1-.5.3-.7.4-4,2.1-5,1.9-8.1-1.5-1.3-1.5-1.1-3.1.6-4.2,1.3-.8,2.6-1.5,3.8-2.3.8-.5,1.3-1.3.7-2.3-.6-.9-1.4-1-2.3-.5-.6.3-1.2.7-1.8,1-.5.2-1,1-1.6.4-.5-.6-.3-1.4,0-2,.5-1.2,4-3.4,4.7-3,2.9,1.4,4.8,5.2,3.4,7.5-.5.9-1.7,1.4-2.6,2.1-1.1.8-2.9,1.5-1.7,3.2,1.2,1.7,2.5.2,3.5-.6,1.8-1.4,3.4-1.9,5.4-.5,1.7,1.2,1.8,5.8,0,6.9-.7.5-1.5.8-2.3,1.3-1,.7-2.8,1.2-1.7,2.9,1,1.7,2.3.4,3.4-.2,2.6-1.4,5.1-2.9,8-4.5Z"/>
  </g>
</svg>